<svg width="191" height="190" viewBox="0 0 191 190" fill="none" xmlns="http://www.w3.org/2000/svg">
<g filter="url(#filter0_d_327_1849)">
<rect x="5" y="20" width="164" height="150" rx="16" fill="url(#paint0_linear_327_1849)"/>
<path opacity="0.89" d="M79.1632 106.69V110.53L82.1232 106.69H83.6332L81.2132 109.81L83.6632 114H82.1832L80.3732 110.89L79.1632 112.44V114H77.8832V106.69H79.1632ZM83.7804 111.52C83.7804 109.99 84.7904 108.91 86.2504 108.91C87.6004 108.91 88.5204 109.66 88.6504 110.85H87.4304C87.2904 110.29 86.8804 110 86.3004 110C85.5204 110 85.0004 110.59 85.0004 111.52C85.0004 112.45 85.4804 113.03 86.2604 113.03C86.8704 113.03 87.3004 112.73 87.4304 112.19H88.6604C88.5104 113.34 87.5504 114.13 86.2604 114.13C84.7604 114.13 83.7804 113.09 83.7804 111.52ZM91.0385 114.13C89.9885 114.13 89.3485 113.52 89.3485 112.59C89.3485 111.68 90.0085 111.11 91.1785 111.02L92.6585 110.91V110.8C92.6585 110.13 92.2585 109.86 91.6385 109.86C90.9185 109.86 90.5185 110.16 90.5185 110.68H89.4785C89.4785 109.61 90.3585 108.91 91.6985 108.91C93.0285 108.91 93.8485 109.63 93.8485 111V114H92.7785L92.6885 113.27C92.4785 113.78 91.8085 114.13 91.0385 114.13ZM91.4385 113.21C92.1885 113.21 92.6685 112.76 92.6685 112V111.74L91.6385 111.82C90.8785 111.89 90.5885 112.14 90.5885 112.54C90.5885 112.99 90.8885 113.21 91.4385 113.21ZM96.277 114H95.067V106.56H96.277V114Z" fill="white"/>
<path d="M80.1901 88.992C80.1901 83.998 82.8741 80.61 86.9881 80.61C91.1021 80.61 93.8081 83.998 93.8081 88.992C93.8081 93.964 91.2561 97.286 86.9881 97.286C82.7201 97.286 80.1901 93.964 80.1901 88.992ZM82.9621 88.992C82.9621 92.71 84.4581 94.8 86.9881 94.8C89.5401 94.8 91.0361 92.71 91.0361 88.992C91.0361 85.186 89.5401 83.096 86.9881 83.096C84.4581 83.096 82.9621 85.186 82.9621 88.992Z" fill="white"/>
<g clip-path="url(#clip0_327_1849)">
<path d="M92.1422 61.2889C91.9378 61.0222 91.6889 60.7911 91.4578 60.56C90.8622 60.0267 90.1867 59.6444 89.6178 59.0844C88.2933 57.7867 88 55.6444 88.8444 54C88 54.2044 87.2622 54.6667 86.6311 55.1733C84.3289 57.0222 83.4222 60.2844 84.5067 63.0844C84.5422 63.1733 84.5778 63.2622 84.5778 63.3778C84.5778 63.5733 84.4444 63.7511 84.2667 63.8222C84.0622 63.9111 83.8489 63.8578 83.68 63.7156C83.6295 63.6733 83.5874 63.6221 83.5556 63.5644C82.5511 62.2933 82.3911 60.4711 83.0667 59.0133C81.5822 60.2222 80.7733 62.2667 80.8889 64.1956C80.9422 64.64 80.9956 65.0844 81.1467 65.5289C81.2711 66.0622 81.5111 66.5956 81.7778 67.0667C82.7378 68.6044 84.4 69.7067 86.1867 69.9289C88.0889 70.1689 90.1244 69.8222 91.5822 68.5067C93.2089 67.0311 93.7778 64.6667 92.9422 62.64L92.8267 62.4089C92.64 62 92.1422 61.2889 92.1422 61.2889ZM89.3333 66.8889C89.0844 67.1022 88.6756 67.3333 88.3556 67.4222C87.36 67.7778 86.3644 67.28 85.7778 66.6933C86.8356 66.4444 87.4667 65.6622 87.6533 64.8711C87.8044 64.16 87.52 63.5733 87.4044 62.8889C87.2978 62.2311 87.3156 61.6711 87.5556 61.0578C87.7244 61.3956 87.9022 61.7333 88.1156 62C88.8 62.8889 89.8756 63.28 90.1067 64.4889C90.1422 64.6133 90.16 64.7378 90.16 64.8711C90.1867 65.6 89.8667 66.4 89.3333 66.8889Z" fill="white"/>
</g>
<path d="M30.652 158.204C27.031 158.204 24.685 155.688 24.685 151.795C24.685 147.936 27.116 145.369 30.754 145.369C33.695 145.369 35.888 147.086 36.313 149.755H34.018C33.593 148.31 32.352 147.46 30.703 147.46C28.408 147.46 26.963 149.126 26.963 151.778C26.963 154.413 28.425 156.113 30.703 156.113C32.386 156.113 33.678 155.229 34.086 153.852H36.347C35.871 156.47 33.593 158.204 30.652 158.204ZM40.3254 158.221C38.5404 158.221 37.4524 157.184 37.4524 155.603C37.4524 154.056 38.5744 153.087 40.5634 152.934L43.0794 152.747V152.56C43.0794 151.421 42.3994 150.962 41.3454 150.962C40.1214 150.962 39.4414 151.472 39.4414 152.356H37.6734C37.6734 150.537 39.1694 149.347 41.4474 149.347C43.7084 149.347 45.1024 150.571 45.1024 152.9V158H43.2834L43.1304 156.759C42.7734 157.626 41.6344 158.221 40.3254 158.221ZM41.0054 156.657C42.2804 156.657 43.0964 155.892 43.0964 154.6V154.158L41.3454 154.294C40.0534 154.413 39.5604 154.838 39.5604 155.518C39.5604 156.283 40.0704 156.657 41.0054 156.657ZM49.2308 158H47.1738V145.352H49.2308V158ZM50.9134 153.784C50.9134 151.166 52.8004 149.364 55.4014 149.364C58.0024 149.364 59.8894 151.166 59.8894 153.784C59.8894 156.402 58.0024 158.204 55.4014 158.204C52.8004 158.204 50.9134 156.402 50.9134 153.784ZM52.9874 153.784C52.9874 155.314 53.9734 156.351 55.4014 156.351C56.8294 156.351 57.8154 155.314 57.8154 153.784C57.8154 152.254 56.8294 151.217 55.4014 151.217C53.9734 151.217 52.9874 152.254 52.9874 153.784ZM66.8034 149.568V151.489H66.0384C64.5424 151.489 63.6074 152.288 63.6074 153.92V158H61.5334V149.619H63.4884L63.6074 150.843C63.9644 150.01 64.7634 149.449 65.8854 149.449C66.1744 149.449 66.4634 149.483 66.8034 149.568ZM69.2442 147.919C68.5302 147.919 67.9692 147.358 67.9692 146.661C67.9692 145.964 68.5302 145.42 69.2442 145.42C69.9242 145.42 70.4852 145.964 70.4852 146.661C70.4852 147.358 69.9242 147.919 69.2442 147.919ZM68.2072 158V149.602H70.2812V158H68.2072ZM76.181 158.221C73.682 158.221 71.931 156.402 71.931 153.801C71.931 151.166 73.648 149.347 76.113 149.347C78.629 149.347 80.227 151.03 80.227 153.648V154.277L73.903 154.294C74.056 155.773 74.838 156.521 76.215 156.521C77.354 156.521 78.102 156.079 78.34 155.28H80.261C79.904 157.116 78.374 158.221 76.181 158.221ZM76.13 151.047C74.906 151.047 74.158 151.71 73.954 152.968H78.17C78.17 151.812 77.371 151.047 76.13 151.047ZM92.0279 158.204C88.4069 158.204 86.0609 155.688 86.0609 151.795C86.0609 147.936 88.4919 145.369 92.1299 145.369C95.0709 145.369 97.2639 147.086 97.689 149.755H95.3939C94.9689 148.31 93.7279 147.46 92.0789 147.46C89.7839 147.46 88.3389 149.126 88.3389 151.778C88.3389 154.413 89.8009 156.113 92.0789 156.113C93.7619 156.113 95.0539 155.229 95.4619 153.852H97.7229C97.2469 156.47 94.9689 158.204 92.0279 158.204ZM98.8754 153.784C98.8754 151.166 100.762 149.364 103.363 149.364C105.964 149.364 107.851 151.166 107.851 153.784C107.851 156.402 105.964 158.204 103.363 158.204C100.762 158.204 98.8754 156.402 98.8754 153.784ZM100.949 153.784C100.949 155.314 101.935 156.351 103.363 156.351C104.791 156.351 105.777 155.314 105.777 153.784C105.777 152.254 104.791 151.217 103.363 151.217C101.935 151.217 100.949 152.254 100.949 153.784ZM114.991 149.602H117.065V158H115.144L114.991 156.878C114.481 157.677 113.393 158.221 112.271 158.221C110.333 158.221 109.194 156.912 109.194 154.855V149.602H111.268V154.124C111.268 155.722 111.897 156.368 113.053 156.368C114.362 156.368 114.991 155.603 114.991 154.005V149.602ZM121.281 158H119.207V149.602H121.128L121.298 150.69C121.825 149.84 122.845 149.347 123.984 149.347C126.092 149.347 127.18 150.656 127.18 152.832V158H125.106V153.325C125.106 151.914 124.409 151.234 123.338 151.234C122.063 151.234 121.281 152.118 121.281 153.478V158ZM132.074 158H130V151.336H128.385V149.602H130V146.984H132.074V149.602H133.706V151.336H132.074V158ZM138.669 158.221C136.17 158.221 134.419 156.402 134.419 153.801C134.419 151.166 136.136 149.347 138.601 149.347C141.117 149.347 142.715 151.03 142.715 153.648V154.277L136.391 154.294C136.544 155.773 137.326 156.521 138.703 156.521C139.842 156.521 140.59 156.079 140.828 155.28H142.749C142.392 157.116 140.862 158.221 138.669 158.221ZM138.618 151.047C137.394 151.047 136.646 151.71 136.442 152.968H140.658C140.658 151.812 139.859 151.047 138.618 151.047ZM149.645 149.568V151.489H148.88C147.384 151.489 146.449 152.288 146.449 153.92V158H144.375V149.619H146.33L146.449 150.843C146.806 150.01 147.605 149.449 148.727 149.449C149.016 149.449 149.305 149.483 149.645 149.568Z" fill="white"/>
<circle opacity="0.2" cx="87" cy="85" r="47" stroke="white" stroke-width="8"/>
<path d="M87 38C87.7839 38 88.5678 38.0196 89.3507 38.0588" stroke="white" stroke-width="8" stroke-linecap="round" stroke-linejoin="round"/>
</g>
<defs>
<filter id="filter0_d_327_1849" x="-13" y="0" width="204" height="190" filterUnits="userSpaceOnUse" color-interpolation-filters="sRGB">
<feFlood flood-opacity="0" result="BackgroundImageFix"/>
<feColorMatrix in="SourceAlpha" type="matrix" values="0 0 0 0 0 0 0 0 0 0 0 0 0 0 0 0 0 0 127 0" result="hardAlpha"/>
<feOffset dx="2"/>
<feGaussianBlur stdDeviation="10"/>
<feColorMatrix type="matrix" values="0 0 0 0 0.092934 0 0 0 0 0.224094 0 0 0 0 0.420833 0 0 0 0.05 0"/>
<feBlend mode="normal" in2="BackgroundImageFix" result="effect1_dropShadow_327_1849"/>
<feBlend mode="normal" in="SourceGraphic" in2="effect1_dropShadow_327_1849" result="shape"/>
</filter>
<linearGradient id="paint0_linear_327_1849" x1="87" y1="20" x2="87" y2="170" gradientUnits="userSpaceOnUse">
<stop stop-color="#0BB839"/>
<stop offset="1" stop-color="#058527"/>
</linearGradient>
<clipPath id="clip0_327_1849">
<rect width="13.3333" height="16" fill="white" transform="translate(80 54)"/>
</clipPath>
</defs>
</svg>
