<svg width="804" height="890" viewBox="0 0 204 190" fill="none" xmlns="http://www.w3.org/2000/svg">
<g filter="url(#filter0_d_327_1849)">
<rect x="18" y="20" width="164" height="150" rx="16" fill="url(#paint0_linear_327_1849)"/>
<path opacity="0.89" d="M92.1632 106.69V110.53L95.1232 106.69H96.6332L94.2132 109.81L96.6632 114H95.1832L93.3732 110.89L92.1632 112.44V114H90.8832V106.69H92.1632ZM96.7804 111.52C96.7804 109.99 97.7904 108.91 99.2504 108.91C100.6 108.91 101.52 109.66 101.65 110.85H100.43C100.29 110.29 99.8804 110 99.3004 110C98.5204 110 98.0004 110.59 98.0004 111.52C98.0004 112.45 98.4804 113.03 99.2604 113.03C99.8704 113.03 100.3 112.73 100.43 112.19H101.66C101.51 113.34 100.55 114.13 99.2604 114.13C97.7604 114.13 96.7804 113.09 96.7804 111.52ZM104.038 114.13C102.988 114.13 102.348 113.52 102.348 112.59C102.348 111.68 103.008 111.11 104.178 111.02L105.658 110.91V110.8C105.658 110.13 105.258 109.86 104.638 109.86C103.918 109.86 103.518 110.16 103.518 110.68H102.478C102.478 109.61 103.358 108.91 104.698 108.91C106.028 108.91 106.848 109.63 106.848 111V114H105.778L105.688 113.27C105.478 113.78 104.808 114.13 104.038 114.13ZM104.438 113.21C105.188 113.21 105.668 112.76 105.668 112V111.74L104.638 111.82C103.878 111.89 103.588 112.14 103.588 112.54C103.588 112.99 103.888 113.21 104.438 113.21ZM109.277 114H108.067V106.56H109.277V114Z" fill="white"/>
<path d="M93.1901 88.992C93.1901 83.998 95.8741 80.61 99.9881 80.61C104.102 80.61 106.808 83.998 106.808 88.992C106.808 93.964 104.256 97.286 99.9881 97.286C95.7201 97.286 93.1901 93.964 93.1901 88.992ZM95.9621 88.992C95.9621 92.71 97.4581 94.8 99.9881 94.8C102.54 94.8 104.036 92.71 104.036 88.992C104.036 85.186 102.54 83.096 99.9881 83.096C97.4581 83.096 95.9621 85.186 95.9621 88.992Z" fill="white"/>
<g clip-path="url(#clip0_327_1849)">
<path d="M105.142 61.2889C104.938 61.0222 104.689 60.7911 104.458 60.56C103.862 60.0267 103.187 59.6444 102.618 59.0844C101.293 57.7867 101 55.6444 101.844 54C101 54.2044 100.262 54.6667 99.6311 55.1733C97.3289 57.0222 96.4222 60.2844 97.5067 63.0844C97.5422 63.1733 97.5778 63.2622 97.5778 63.3778C97.5778 63.5733 97.4444 63.7511 97.2667 63.8222C97.0622 63.9111 96.8489 63.8578 96.68 63.7156C96.6295 63.6733 96.5874 63.6221 96.5556 63.5644C95.5511 62.2933 95.3911 60.4711 96.0667 59.0133C94.5822 60.2222 93.7733 62.2667 93.8889 64.1956C93.9422 64.64 93.9956 65.0844 94.1467 65.5289C94.2711 66.0622 94.5111 66.5956 94.7778 67.0667C95.7378 68.6044 97.4 69.7067 99.1867 69.9289C101.089 70.1689 103.124 69.8222 104.582 68.5067C106.209 67.0311 106.778 64.6667 105.942 62.64L105.827 62.4089C105.64 62 105.142 61.2889 105.142 61.2889ZM102.333 66.8889C102.084 67.1022 101.676 67.3333 101.356 67.4222C100.36 67.7778 99.3644 67.28 98.7778 66.6933C99.8356 66.4444 100.467 65.6622 100.653 64.8711C100.804 64.16 100.52 63.5733 100.404 62.8889C100.298 62.2311 100.316 61.6711 100.556 61.0578C100.724 61.3956 100.902 61.7333 101.116 62C101.8 62.8889 102.876 63.28 103.107 64.4889C103.142 64.6133 103.16 64.7378 103.16 64.8711C103.187 65.6 102.867 66.4 102.333 66.8889Z" fill="white"/>
</g>
<path d="M43.652 158.204C40.031 158.204 37.685 155.688 37.685 151.795C37.685 147.936 40.116 145.369 43.754 145.369C46.695 145.369 48.888 147.086 49.313 149.755H47.018C46.593 148.31 45.352 147.46 43.703 147.46C41.408 147.46 39.963 149.126 39.963 151.778C39.963 154.413 41.425 156.113 43.703 156.113C45.386 156.113 46.678 155.229 47.086 153.852H49.347C48.871 156.47 46.593 158.204 43.652 158.204ZM53.3254 158.221C51.5404 158.221 50.4524 157.184 50.4524 155.603C50.4524 154.056 51.5744 153.087 53.5634 152.934L56.0794 152.747V152.56C56.0794 151.421 55.3994 150.962 54.3454 150.962C53.1214 150.962 52.4414 151.472 52.4414 152.356H50.6734C50.6734 150.537 52.1694 149.347 54.4474 149.347C56.7084 149.347 58.1024 150.571 58.1024 152.9V158H56.2834L56.1304 156.759C55.7734 157.626 54.6344 158.221 53.3254 158.221ZM54.0054 156.657C55.2804 156.657 56.0964 155.892 56.0964 154.6V154.158L54.3454 154.294C53.0534 154.413 52.5604 154.838 52.5604 155.518C52.5604 156.283 53.0704 156.657 54.0054 156.657ZM62.2308 158H60.1738V145.352H62.2308V158ZM63.9134 153.784C63.9134 151.166 65.8004 149.364 68.4014 149.364C71.0024 149.364 72.8894 151.166 72.8894 153.784C72.8894 156.402 71.0024 158.204 68.4014 158.204C65.8004 158.204 63.9134 156.402 63.9134 153.784ZM65.9874 153.784C65.9874 155.314 66.9734 156.351 68.4014 156.351C69.8294 156.351 70.8154 155.314 70.8154 153.784C70.8154 152.254 69.8294 151.217 68.4014 151.217C66.9734 151.217 65.9874 152.254 65.9874 153.784ZM79.8034 149.568V151.489H79.0384C77.5424 151.489 76.6074 152.288 76.6074 153.92V158H74.5334V149.619H76.4884L76.6074 150.843C76.9644 150.01 77.7634 149.449 78.8854 149.449C79.1744 149.449 79.4634 149.483 79.8034 149.568ZM82.2442 147.919C81.5302 147.919 80.9692 147.358 80.9692 146.661C80.9692 145.964 81.5302 145.42 82.2442 145.42C82.9242 145.42 83.4852 145.964 83.4852 146.661C83.4852 147.358 82.9242 147.919 82.2442 147.919ZM81.2072 158V149.602H83.2812V158H81.2072ZM89.181 158.221C86.682 158.221 84.931 156.402 84.931 153.801C84.931 151.166 86.648 149.347 89.113 149.347C91.629 149.347 93.227 151.03 93.227 153.648V154.277L86.903 154.294C87.056 155.773 87.838 156.521 89.215 156.521C90.354 156.521 91.102 156.079 91.34 155.28H93.261C92.904 157.116 91.374 158.221 89.181 158.221ZM89.13 151.047C87.906 151.047 87.158 151.71 86.954 152.968H91.17C91.17 151.812 90.371 151.047 89.13 151.047ZM105.028 158.204C101.407 158.204 99.0609 155.688 99.0609 151.795C99.0609 147.936 101.492 145.369 105.13 145.369C108.071 145.369 110.264 147.086 110.689 149.755H108.394C107.969 148.31 106.728 147.46 105.079 147.46C102.784 147.46 101.339 149.126 101.339 151.778C101.339 154.413 102.801 156.113 105.079 156.113C106.762 156.113 108.054 155.229 108.462 153.852H110.723C110.247 156.47 107.969 158.204 105.028 158.204ZM111.875 153.784C111.875 151.166 113.762 149.364 116.363 149.364C118.964 149.364 120.851 151.166 120.851 153.784C120.851 156.402 118.964 158.204 116.363 158.204C113.762 158.204 111.875 156.402 111.875 153.784ZM113.949 153.784C113.949 155.314 114.935 156.351 116.363 156.351C117.791 156.351 118.777 155.314 118.777 153.784C118.777 152.254 117.791 151.217 116.363 151.217C114.935 151.217 113.949 152.254 113.949 153.784ZM127.991 149.602H130.065V158H128.144L127.991 156.878C127.481 157.677 126.393 158.221 125.271 158.221C123.333 158.221 122.194 156.912 122.194 154.855V149.602H124.268V154.124C124.268 155.722 124.897 156.368 126.053 156.368C127.362 156.368 127.991 155.603 127.991 154.005V149.602ZM134.281 158H132.207V149.602H134.128L134.298 150.69C134.825 149.84 135.845 149.347 136.984 149.347C139.092 149.347 140.18 150.656 140.18 152.832V158H138.106V153.325C138.106 151.914 137.409 151.234 136.338 151.234C135.063 151.234 134.281 152.118 134.281 153.478V158ZM145.074 158H143V151.336H141.385V149.602H143V146.984H145.074V149.602H146.706V151.336H145.074V158ZM151.669 158.221C149.17 158.221 147.419 156.402 147.419 153.801C147.419 151.166 149.136 149.347 151.601 149.347C154.117 149.347 155.715 151.03 155.715 153.648V154.277L149.391 154.294C149.544 155.773 150.326 156.521 151.703 156.521C152.842 156.521 153.59 156.079 153.828 155.28H155.749C155.392 157.116 153.862 158.221 151.669 158.221ZM151.618 151.047C150.394 151.047 149.646 151.71 149.442 152.968H153.658C153.658 151.812 152.859 151.047 151.618 151.047ZM162.645 149.568V151.489H161.88C160.384 151.489 159.449 152.288 159.449 153.92V158H157.375V149.619H159.33L159.449 150.843C159.806 150.01 160.605 149.449 161.727 149.449C162.016 149.449 162.305 149.483 162.645 149.568Z" fill="white"/>
<circle opacity="0.2" cx="100" cy="85" r="47" stroke="white" stroke-width="8"/>
<path d="M100 38C100.784 38 101.568 38.0196 102.351 38.0588" stroke="white" stroke-width="8" stroke-linecap="round" stroke-linejoin="round"/>
</g>
<defs>
<filter id="filter0_d_327_1849" x="0" y="0" width="204" height="190" filterUnits="userSpaceOnUse" color-interpolation-filters="sRGB">
<feFlood flood-opacity="0" result="BackgroundImageFix"/>
<feColorMatrix in="SourceAlpha" type="matrix" values="0 0 0 0 0 0 0 0 0 0 0 0 0 0 0 0 0 0 127 0" result="hardAlpha"/>
<feOffset dx="2"/>
<feGaussianBlur stdDeviation="10"/>
<feColorMatrix type="matrix" values="0 0 0 0 0.092934 0 0 0 0 0.224094 0 0 0 0 0.420833 0 0 0 0.05 0"/>
<feBlend mode="normal" in2="BackgroundImageFix" result="effect1_dropShadow_327_1849"/>
<feBlend mode="normal" in="SourceGraphic" in2="effect1_dropShadow_327_1849" result="shape"/>
</filter>
<linearGradient id="paint0_linear_327_1849" x1="100" y1="20" x2="100" y2="170" gradientUnits="userSpaceOnUse">
<stop stop-color="#0BB839"/>
<stop offset="1" stop-color="#058527"/>
</linearGradient>
<clipPath id="clip0_327_1849">
<rect width="13.3333" height="16" fill="white" transform="translate(93 54)"/>
</clipPath>
</defs>
</svg>
