<svg width="164" height="150" viewBox="0 0 164 150" fill="none" xmlns="http://www.w3.org/2000/svg">
<g clip-path="url(#clip0_327_1857)">
<rect width="164" height="150" rx="16" fill="url(#paint0_linear_327_1857)"/>
<g opacity="0.2">
<line x1="10.2" y1="8.74228e-09" x2="10.2" y2="164" stroke="#7B8794" stroke-width="0.4"/>
<line x1="30.7714" y1="8.74228e-09" x2="30.7714" y2="164" stroke="#7B8794" stroke-width="0.4"/>
<line x1="51.3429" y1="8.74228e-09" x2="51.3429" y2="164" stroke="#7B8794" stroke-width="0.4"/>
<line x1="71.9143" y1="8.74228e-09" x2="71.9143" y2="164" stroke="#7B8794" stroke-width="0.4"/>
<line x1="92.4857" y1="8.74228e-09" x2="92.4857" y2="164" stroke="#7B8794" stroke-width="0.4"/>
<line x1="113.057" y1="8.74228e-09" x2="113.057" y2="164" stroke="#7B8794" stroke-width="0.4"/>
<line x1="133.629" y1="8.74228e-09" x2="133.629" y2="164" stroke="#7B8794" stroke-width="0.4"/>
<line x1="154.2" y1="8.74228e-09" x2="154.2" y2="164" stroke="#7B8794" stroke-width="0.4"/>
</g>
<g opacity="0.2">
<line x1="164" y1="10.2" x2="-1.74846e-08" y2="10.2" stroke="#7B8794" stroke-width="0.4"/>
<line x1="164" y1="28.7714" x2="-1.74846e-08" y2="28.7714" stroke="#7B8794" stroke-width="0.4"/>
<line x1="164" y1="47.3428" x2="-1.74846e-08" y2="47.3428" stroke="#7B8794" stroke-width="0.4"/>
<line x1="164" y1="65.9144" x2="-1.74846e-08" y2="65.9143" stroke="#7B8794" stroke-width="0.4"/>
<line x1="164" y1="84.4858" x2="-1.74846e-08" y2="84.4858" stroke="#7B8794" stroke-width="0.4"/>
<line x1="164" y1="103.057" x2="-1.74846e-08" y2="103.057" stroke="#7B8794" stroke-width="0.4"/>
<line x1="164" y1="121.629" x2="-1.74846e-08" y2="121.629" stroke="#7B8794" stroke-width="0.4"/>
<line x1="164" y1="140.2" x2="-1.74846e-08" y2="140.2" stroke="#7B8794" stroke-width="0.4"/>
</g>
<path opacity="0.95" fill-rule="evenodd" clip-rule="evenodd" d="M72.0419 34.7049C73.0537 34.2412 74.1443 34 75.25 34C76.3558 34 77.4464 34.2412 78.4581 34.7049C79.4693 35.1684 80.3777 35.8429 81.1359 36.6818C81.5983 37.1935 82.4017 37.1935 82.8641 36.6818C84.3969 34.9859 86.5101 34 88.75 34C90.9898 34 93.1031 34.9859 94.6358 36.6818C96.164 38.3727 97 40.6364 97 42.9688C97 45.3012 96.164 47.5649 94.6358 49.2558L85.3386 59.543C83.5519 61.52 80.4481 61.52 78.6614 59.543L69.3642 49.2558C68.6063 48.4172 68.0121 47.4296 67.609 46.3529C67.206 45.2762 67 44.1267 67 42.9688C67 41.8109 67.206 40.6614 67.609 39.5847C68.0121 38.508 68.6063 37.5204 69.3642 36.6818C70.1224 35.8429 71.0307 35.1684 72.0419 34.7049Z" fill="white"/>
<path d="M26.5866 91H20.8006V74.918H26.4326C31.1846 74.918 34.4626 78.196 34.4626 82.992C34.4626 87.722 31.2506 91 26.5866 91ZM26.1686 77.514H23.6166V88.404H26.3226C29.5346 88.404 31.4926 86.336 31.4926 82.992C31.4926 79.582 29.4906 77.514 26.1686 77.514ZM41.5517 91.286C38.3177 91.286 36.0517 88.932 36.0517 85.566C36.0517 82.156 38.2737 79.802 41.4637 79.802C44.7197 79.802 46.7877 81.98 46.7877 85.368V86.182L38.6037 86.204C38.8017 88.118 39.8137 89.086 41.5957 89.086C43.0697 89.086 44.0377 88.514 44.3457 87.48H46.8317C46.3697 89.856 44.3897 91.286 41.5517 91.286ZM41.4857 82.002C39.9017 82.002 38.9337 82.86 38.6697 84.488H44.1257C44.1257 82.992 43.0917 82.002 41.4857 82.002ZM48.2978 85.544C48.2978 82.178 50.5198 79.802 53.7318 79.802C56.7018 79.802 58.7258 81.452 59.0118 84.07H56.3278C56.0198 82.838 55.1178 82.2 53.8418 82.2C52.1258 82.2 50.9818 83.498 50.9818 85.544C50.9818 87.59 52.0378 88.866 53.7538 88.866C55.0958 88.866 56.0418 88.206 56.3278 87.018H59.0338C58.7038 89.548 56.5918 91.286 53.7538 91.286C50.4538 91.286 48.2978 88.998 48.2978 85.544ZM60.3935 85.544C60.3935 82.156 62.8355 79.824 66.2015 79.824C69.5675 79.824 72.0095 82.156 72.0095 85.544C72.0095 88.932 69.5675 91.264 66.2015 91.264C62.8355 91.264 60.3935 88.932 60.3935 85.544ZM63.0775 85.544C63.0775 87.524 64.3535 88.866 66.2015 88.866C68.0495 88.866 69.3255 87.524 69.3255 85.544C69.3255 83.564 68.0495 82.222 66.2015 82.222C64.3535 82.222 63.0775 83.564 63.0775 85.544ZM78.603 91.286C75.457 91.286 73.499 88.976 73.499 85.61C73.499 82.222 75.479 79.802 78.757 79.802C80.275 79.802 81.617 80.44 82.299 81.518V74.632H84.961V91H82.497L82.321 89.306C81.661 90.56 80.253 91.286 78.603 91.286ZM79.197 88.822C81.067 88.822 82.277 87.48 82.277 85.522C82.277 83.564 81.067 82.2 79.197 82.2C77.327 82.2 76.183 83.586 76.183 85.522C76.183 87.458 77.327 88.822 79.197 88.822ZM92.6201 91.286C89.3861 91.286 87.1201 88.932 87.1201 85.566C87.1201 82.156 89.3421 79.802 92.5321 79.802C95.7881 79.802 97.8561 81.98 97.8561 85.368V86.182L89.6721 86.204C89.8701 88.118 90.8821 89.086 92.6641 89.086C94.1381 89.086 95.1061 88.514 95.4141 87.48H97.9001C97.4381 89.856 95.4581 91.286 92.6201 91.286ZM92.5541 82.002C90.9701 82.002 90.0021 82.86 89.7381 84.488H95.1941C95.1941 82.992 94.1601 82.002 92.5541 82.002ZM107.716 91H104.79L110.598 74.918H113.48L119.288 91H116.318L115.02 87.282H109.014L107.716 91ZM111.676 79.714L109.85 84.906H114.206L112.358 79.714C112.226 79.296 112.072 78.812 112.028 78.482C111.962 78.79 111.83 79.274 111.676 79.714ZM119.992 85.324C119.992 82.156 122.06 79.78 125.162 79.78C126.79 79.78 128.066 80.462 128.704 81.628L128.858 80.132H131.344V90.45C131.344 94.08 129.166 96.346 125.646 96.346C122.522 96.346 120.388 94.564 120.058 91.66H122.742C122.918 93.068 123.996 93.904 125.646 93.904C127.494 93.904 128.682 92.738 128.682 90.934V89.13C128 90.142 126.658 90.78 125.096 90.78C122.016 90.78 119.992 88.47 119.992 85.324ZM122.698 85.258C122.698 87.084 123.864 88.448 125.624 88.448C127.472 88.448 128.616 87.15 128.616 85.258C128.616 83.41 127.494 82.134 125.624 82.134C123.842 82.134 122.698 83.476 122.698 85.258ZM138.983 91.286C135.749 91.286 133.483 88.932 133.483 85.566C133.483 82.156 135.705 79.802 138.895 79.802C142.151 79.802 144.219 81.98 144.219 85.368V86.182L136.035 86.204C136.233 88.118 137.245 89.086 139.027 89.086C140.501 89.086 141.469 88.514 141.777 87.48H144.263C143.801 89.856 141.821 91.286 138.983 91.286ZM138.917 82.002C137.333 82.002 136.365 82.86 136.101 84.488H141.557C141.557 82.992 140.523 82.002 138.917 82.002Z" fill="white"/>
<path d="M30.3078 115.768H29.0598C27.5878 113.928 26.6118 111.144 26.6118 108.248C26.6118 105.528 27.4918 102.68 29.0598 100.744H30.3078C29.0438 102.504 28.1478 105.256 28.1478 108.248C28.1478 111.08 28.9478 113.896 30.3078 115.768ZM37.7685 108.088H33.2245V113H31.6565V101.432H38.6325V102.872H33.2245V106.664H37.7685V108.088ZM39.1541 109.08C39.1541 106.664 40.8821 104.968 43.2341 104.968C45.5701 104.968 47.2981 106.664 47.2981 109.08C47.2981 111.496 45.5701 113.192 43.2341 113.192C40.8821 113.192 39.1541 111.496 39.1541 109.08ZM40.6741 109.08C40.6741 110.712 41.7141 111.848 43.2341 111.848C44.7381 111.848 45.7941 110.712 45.7941 109.08C45.7941 107.448 44.7381 106.312 43.2341 106.312C41.7141 106.312 40.6741 107.448 40.6741 109.08ZM53.443 105.112V106.488H52.771C51.347 106.488 50.467 107.352 50.467 108.856V113H48.963V105.192H50.371L50.467 106.376C50.787 105.56 51.571 105.016 52.643 105.016C52.915 105.016 53.139 105.048 53.443 105.112ZM57.9484 113.192C55.6444 113.192 54.0604 111.528 54.0604 109.096C54.0604 106.648 55.6124 104.952 57.8844 104.952C60.1084 104.952 61.5644 106.488 61.5644 108.808V109.368L55.5164 109.384C55.6284 111.032 56.4924 111.944 57.9804 111.944C59.1484 111.944 59.9164 111.464 60.1724 110.568H61.5804C61.1964 112.248 59.8844 113.192 57.9484 113.192ZM57.8844 106.216C56.5724 106.216 55.7404 107 55.5484 108.376H60.0604C60.0604 107.08 59.2124 106.216 57.8844 106.216ZM65.1706 113L62.0186 105.176H63.6186L65.3306 109.544C65.6026 110.28 65.8266 110.936 65.9546 111.416C66.0826 110.904 66.3386 110.232 66.6106 109.544L68.3546 105.176H69.9226L66.6586 113H65.1706ZM74.1359 113.192C71.8319 113.192 70.2479 111.528 70.2479 109.096C70.2479 106.648 71.7999 104.952 74.0719 104.952C76.2959 104.952 77.7519 106.488 77.7519 108.808V109.368L71.7039 109.384C71.8159 111.032 72.6799 111.944 74.1679 111.944C75.3359 111.944 76.1039 111.464 76.3599 110.568H77.7679C77.3839 112.248 76.0719 113.192 74.1359 113.192ZM74.0719 106.216C72.7599 106.216 71.9279 107 71.7359 108.376H76.2479C76.2479 107.08 75.3999 106.216 74.0719 106.216ZM83.9118 105.112V106.488H83.2398C81.8158 106.488 80.9358 107.352 80.9358 108.856V113H79.4318V105.192H80.8398L80.9358 106.376C81.2558 105.56 82.0398 105.016 83.1118 105.016C83.3838 105.016 83.6078 105.048 83.9118 105.112ZM92.6894 108.296L88.7694 101.432H90.5294L93.1054 106.056C93.2654 106.328 93.3614 106.552 93.4894 106.824C93.6334 106.536 93.6654 106.44 93.8734 106.056L96.4334 101.432H98.1454L94.2574 108.296V113H92.6894V108.296ZM97.3104 109.08C97.3104 106.664 99.0384 104.968 101.39 104.968C103.726 104.968 105.454 106.664 105.454 109.08C105.454 111.496 103.726 113.192 101.39 113.192C99.0384 113.192 97.3104 111.496 97.3104 109.08ZM98.8304 109.08C98.8304 110.712 99.8704 111.848 101.39 111.848C102.894 111.848 103.95 110.712 103.95 109.08C103.95 107.448 102.894 106.312 101.39 106.312C99.8704 106.312 98.8304 107.448 98.8304 109.08ZM112.34 105.176H113.828V113H112.484L112.324 111.816C111.876 112.632 110.836 113.192 109.684 113.192C107.86 113.192 106.836 111.96 106.836 110.04V105.176H108.34V109.544C108.34 111.224 109.06 111.864 110.212 111.864C111.588 111.864 112.34 110.984 112.34 109.304V105.176ZM117.514 113H116.01V105.176H117.37L117.53 106.376C118.026 105.48 119.018 104.952 120.122 104.952C122.186 104.952 123.13 106.216 123.13 108.216V113H121.626V108.552C121.626 106.968 120.89 106.328 119.738 106.328C118.33 106.328 117.514 107.336 117.514 108.856V113ZM124.717 108.888C124.717 106.68 126.141 104.952 128.413 104.952C129.677 104.952 130.653 105.528 131.149 106.504L131.261 105.176H132.605V112.68C132.605 115.144 131.085 116.712 128.685 116.712C126.557 116.712 125.101 115.512 124.813 113.528H126.317C126.509 114.68 127.373 115.352 128.685 115.352C130.157 115.352 131.117 114.392 131.117 112.904V111.336C130.605 112.248 129.581 112.792 128.349 112.792C126.125 112.792 124.717 111.08 124.717 108.888ZM126.221 108.856C126.221 110.328 127.133 111.48 128.605 111.48C130.125 111.48 131.053 110.392 131.053 108.856C131.053 107.352 130.157 106.264 128.621 106.264C127.117 106.264 126.221 107.416 126.221 108.856ZM134.952 115.768H133.688C135.048 113.896 135.848 111.08 135.848 108.248C135.848 105.256 134.968 102.504 133.688 100.744H134.952C136.504 102.68 137.384 105.528 137.384 108.248C137.384 111.144 136.408 113.928 134.952 115.768Z" fill="white"/>
</g>
<defs>
<linearGradient id="paint0_linear_327_1857" x1="82" y1="0" x2="82" y2="150" gradientUnits="userSpaceOnUse">
<stop stop-color="#FDCE30"/>
<stop offset="1" stop-color="#F8C109"/>
</linearGradient>
<clipPath id="clip0_327_1857">
<rect width="164" height="150" rx="16" fill="white"/>
</clipPath>
</defs>
</svg>
