<svg width="164" height="150" viewBox="0 0 164 150" fill="none" xmlns="http://www.w3.org/2000/svg">
<g clip-path="url(#clip0_327_1832)">
<rect width="164" height="150" rx="16" fill="url(#paint0_linear_327_1832)"/>
<path d="M18.524 19.702H14.548V24H13.176V13.878H19.28V15.138H14.548V18.456H18.524V19.702ZM24.2138 17.098V18.302H23.6258C22.3798 18.302 21.6098 19.058 21.6098 20.374V24H20.2938V17.168H21.5258L21.6098 18.204C21.8898 17.49 22.5758 17.014 23.5138 17.014C23.7518 17.014 23.9478 17.042 24.2138 17.098ZM28.156 24.168C26.14 24.168 24.754 22.712 24.754 20.584C24.754 18.442 26.112 16.958 28.1 16.958C30.046 16.958 31.32 18.302 31.32 20.332V20.822L26.028 20.836C26.126 22.278 26.882 23.076 28.184 23.076C29.206 23.076 29.878 22.656 30.102 21.872H31.334C30.998 23.342 29.85 24.168 28.156 24.168ZM28.1 18.064C26.952 18.064 26.224 18.75 26.056 19.954H30.004C30.004 18.82 29.262 18.064 28.1 18.064ZM35.7439 24.168C33.7279 24.168 32.3419 22.712 32.3419 20.584C32.3419 18.442 33.6999 16.958 35.6879 16.958C37.6339 16.958 38.9079 18.302 38.9079 20.332V20.822L33.6159 20.836C33.7139 22.278 34.4699 23.076 35.7719 23.076C36.7939 23.076 37.4659 22.656 37.6899 21.872H38.9219C38.5859 23.342 37.4379 24.168 35.7439 24.168ZM35.6879 18.064C34.5399 18.064 33.8119 18.75 33.6439 19.954H37.5919C37.5919 18.82 36.8499 18.064 35.6879 18.064ZM41.9878 20.962H40.9658C40.8258 19.912 40.7278 18.05 40.7278 16.23V13.878H42.2398V16.23C42.2398 18.078 42.1278 19.926 41.9878 20.962ZM41.4838 24.196C40.9238 24.196 40.4758 23.748 40.4758 23.202C40.4758 22.656 40.9238 22.208 41.4838 22.208C42.0158 22.208 42.4778 22.656 42.4778 23.202C42.4778 23.748 42.0158 24.196 41.4838 24.196ZM46.103 20.962H45.081C44.941 19.912 44.843 18.05 44.843 16.23V13.878H46.355V16.23C46.355 18.078 46.243 19.926 46.103 20.962ZM45.599 24.196C45.039 24.196 44.591 23.748 44.591 23.202C44.591 22.656 45.039 22.208 45.599 22.208C46.131 22.208 46.593 22.656 46.593 23.202C46.593 23.748 46.131 24.196 45.599 24.196Z" fill="white"/>
<path d="M22.008 54H13.592V30.608H21.784C28.696 30.608 33.464 35.376 33.464 42.352C33.464 49.232 28.792 54 22.008 54ZM21.4 34.384H17.688V50.224H21.624C26.296 50.224 29.144 47.216 29.144 42.352C29.144 37.392 26.232 34.384 21.4 34.384ZM38.6555 35.024C37.3115 35.024 36.2555 33.968 36.2555 32.656C36.2555 31.344 37.3115 30.32 38.6555 30.32C39.9355 30.32 40.9915 31.344 40.9915 32.656C40.9915 33.968 39.9355 35.024 38.6555 35.024ZM36.7035 54V38.192H40.6075V54H36.7035ZM51.713 54.416C47.009 54.416 43.713 50.992 43.713 46.096C43.713 41.136 46.945 37.712 51.585 37.712C56.321 37.712 59.329 40.88 59.329 45.808V46.992L47.425 47.024C47.713 49.808 49.185 51.216 51.777 51.216C53.921 51.216 55.329 50.384 55.777 48.88H59.393C58.721 52.336 55.841 54.416 51.713 54.416ZM51.617 40.912C49.313 40.912 47.905 42.16 47.521 44.528H55.457C55.457 42.352 53.953 40.912 51.617 40.912ZM67.6733 54H63.7693V41.456H60.7293V38.192H63.7693V33.264H67.6733V38.192H70.7453V41.456H67.6733V54Z" fill="white"/>
<path d="M17.475 67.13H14.73V71H13.26V60.155H17.475C19.605 60.155 20.97 61.55 20.97 63.635C20.97 65.66 19.59 67.13 17.475 67.13ZM17.22 61.475H14.73V65.81H17.16C18.615 65.81 19.425 64.955 19.425 63.62C19.425 62.255 18.6 61.475 17.22 61.475ZM23.835 71H22.425V59.96H23.835V71ZM28.0556 71.18C26.4806 71.18 25.5506 70.295 25.5506 68.96C25.5506 67.61 26.5556 66.77 28.2806 66.635L30.5906 66.455V66.245C30.5906 65.015 29.8556 64.58 28.8656 64.58C27.6806 64.58 27.0056 65.105 27.0056 65.99H25.7756C25.7756 64.46 27.0356 63.455 28.9256 63.455C30.7406 63.455 31.9706 64.415 31.9706 66.395V71H30.7706L30.6206 69.815C30.2456 70.655 29.2406 71.18 28.0556 71.18ZM28.4606 70.085C29.7956 70.085 30.6056 69.215 30.6056 67.835V67.445L28.7306 67.595C27.4856 67.715 26.9756 68.195 26.9756 68.915C26.9756 69.695 27.5456 70.085 28.4606 70.085ZM35.3333 71H33.9233V63.665H35.1983L35.3483 64.79C35.8133 63.95 36.7433 63.455 37.7783 63.455C39.7133 63.455 40.5983 64.64 40.5983 66.515V71H39.1883V66.83C39.1883 65.345 38.4983 64.745 37.4183 64.745C36.0983 64.745 35.3333 65.69 35.3333 67.115V71ZM43.9613 71H42.5513V63.665H43.8263L43.9763 64.79C44.4413 63.95 45.3713 63.455 46.4063 63.455C48.3413 63.455 49.2263 64.64 49.2263 66.515V71H47.8163V66.83C47.8163 65.345 47.1263 64.745 46.0463 64.745C44.7263 64.745 43.9613 65.69 43.9613 67.115V71ZM51.8692 61.925C51.3592 61.925 50.9392 61.505 50.9392 60.995C50.9392 60.47 51.3592 60.065 51.8692 60.065C52.3792 60.065 52.7992 60.47 52.7992 60.995C52.7992 61.505 52.3792 61.925 51.8692 61.925ZM51.1792 71V63.665H52.5892V71H51.1792ZM56.0462 71H54.6362V63.665H55.9112L56.0612 64.79C56.5262 63.95 57.4562 63.455 58.4912 63.455C60.4262 63.455 61.3112 64.64 61.3112 66.515V71H59.9012V66.83C59.9012 65.345 59.2112 64.745 58.1312 64.745C56.8112 64.745 56.0462 65.69 56.0462 67.115V71ZM62.7991 67.145C62.7991 65.075 64.1341 63.455 66.2641 63.455C67.4491 63.455 68.3641 63.995 68.8291 64.91L68.9341 63.665H70.1941V70.7C70.1941 73.01 68.7691 74.48 66.5191 74.48C64.5241 74.48 63.1591 73.355 62.8891 71.495H64.2991C64.4791 72.575 65.2891 73.205 66.5191 73.205C67.8991 73.205 68.7991 72.305 68.7991 70.91V69.44C68.3191 70.295 67.3591 70.805 66.2041 70.805C64.1191 70.805 62.7991 69.2 62.7991 67.145ZM64.2091 67.115C64.2091 68.495 65.0641 69.575 66.4441 69.575C67.8691 69.575 68.7391 68.555 68.7391 67.115C68.7391 65.705 67.8991 64.685 66.4591 64.685C65.0491 64.685 64.2091 65.765 64.2091 67.115Z" fill="white"/>
<g clip-path="url(#clip1_327_1832)">
<path d="M123.076 27.6673H120.783C120.886 27.4508 121.049 27.2682 121.252 27.1403C121.455 27.0124 121.69 26.9446 121.929 26.9446C122.169 26.9446 122.404 27.0124 122.607 27.1403C122.809 27.2682 122.972 27.4508 123.076 27.6673ZM126.745 26.9422C126.745 26.6445 126.767 26.3472 126.81 26.0526C126.632 26.0813 126.462 26.1477 126.312 26.2472C126.161 26.3468 126.034 26.4772 125.938 26.6299C125.841 26.7827 125.779 26.9541 125.754 27.133C125.729 27.3118 125.742 27.494 125.793 27.6673H126.789C126.761 27.4266 126.747 27.1845 126.747 26.9422H126.745ZM121.596 22.2499C120.744 21.3969 119.6 20.4955 118.591 20.4955H118.507L118.56 21.5452C119.046 21.5216 119.829 21.998 120.711 22.8574C120.767 22.9112 120.821 22.9652 120.874 23.0195C121.019 22.9882 121.167 22.9708 121.315 22.9677C121.368 22.7139 121.464 22.471 121.598 22.2492L121.596 22.2499ZM122.923 21.2171C123.064 21.0513 123.19 20.8735 123.3 20.6857C123.467 20.4024 123.597 20.0991 123.688 19.783C123.778 19.4689 123.827 19.1445 123.835 18.8178C123.842 18.5138 123.811 18.2102 123.744 17.9137C123.714 17.7846 123.678 17.6571 123.635 17.5319C123.599 17.4283 123.558 17.3265 123.513 17.2268C123.481 17.1577 123.447 17.0898 123.41 17.0234C123.397 16.9998 123.384 16.9808 123.377 16.9683L123.365 16.9492L123.346 16.9591C123.333 16.9657 123.312 16.9755 123.289 16.9886C123.222 17.0255 123.157 17.0651 123.093 17.1074C123.002 17.1679 122.914 17.2336 122.831 17.3042C122.728 17.3882 122.631 17.4776 122.538 17.5719C122.325 17.7889 122.141 18.0313 121.988 18.2936C121.823 18.576 121.696 18.8783 121.608 19.1931C121.518 19.5088 121.468 19.8346 121.46 20.1628C121.454 20.4668 121.484 20.7704 121.551 21.0669C121.605 21.3022 121.682 21.5314 121.782 21.7513C121.807 21.809 121.832 21.8582 121.855 21.8995C122.141 21.5767 122.512 21.3403 122.926 21.2165L122.923 21.2171ZM141.574 18.8224C141.561 18.8152 141.542 18.8033 141.518 18.7909C141.451 18.7548 141.382 18.7219 141.312 18.6925C141.225 18.6557 141.122 18.6151 141.005 18.5777C140.879 18.5375 140.751 18.504 140.621 18.4773C140.324 18.4172 140.02 18.394 139.716 18.4084C139.39 18.424 139.067 18.4813 138.756 18.579C138.444 18.6757 138.145 18.8115 137.867 18.9832C137.609 19.1432 137.371 19.3343 137.159 19.552L137.13 19.5835C137.431 19.9407 137.664 20.3507 137.817 20.7927C138.021 20.8173 138.227 20.825 138.433 20.8156C138.759 20.8002 139.082 20.7435 139.394 20.647C139.706 20.5517 140.005 20.4168 140.283 20.2455C140.542 20.0858 140.779 19.8948 140.991 19.6767C141.084 19.5814 141.171 19.4813 141.253 19.3768C141.329 19.2797 141.392 19.1892 141.443 19.1078C141.493 19.0264 141.532 18.9596 141.557 18.911C141.57 18.8873 141.579 18.8664 141.585 18.8533L141.595 18.8329L141.574 18.8224ZM136.909 15.2192C136.885 15.1266 136.862 15.0394 136.855 15L135.821 15.1903C135.835 15.2657 135.859 15.3562 135.891 15.4809C136.044 16.0754 136.397 17.4453 135.971 18.6571C136.294 18.8249 136.59 19.0378 136.852 19.2896C137.548 17.7117 137.098 15.9605 136.906 15.2191L136.909 15.2192ZM124.67 39H131.349C132.487 39 133.614 38.7755 134.666 38.3394C135.717 37.9032 136.673 37.264 137.477 36.4581C138.282 35.6522 138.921 34.6954 139.356 33.6424C139.792 32.5895 140.016 31.4609 140.016 30.3212V28.717H116.006V30.3218C116.006 32.6231 116.919 34.8302 118.544 36.4576C120.169 38.085 122.372 38.9995 124.67 39ZM138.024 26.9422C138.025 25.6241 137.517 24.3566 136.606 23.4052C136.817 23.0402 136.94 22.6315 136.968 22.2109C136.996 21.7903 136.926 21.369 136.765 20.9795C136.604 20.59 136.356 20.2429 136.04 19.9648C135.723 19.6867 135.347 19.4853 134.941 19.3759C134.534 19.2666 134.108 19.2523 133.695 19.3342C133.282 19.4162 132.894 19.5921 132.56 19.8484C132.225 20.1047 131.955 20.4345 131.768 20.8123C131.581 21.1902 131.484 21.6059 131.484 22.0274C130.3 22.371 129.28 23.1312 128.612 24.168C127.944 25.2048 127.673 26.4485 127.848 27.6699H137.97C138.005 27.4289 138.023 27.1857 138.024 26.9422ZM124.695 27.3103C124.694 26.7464 124.9 26.2018 125.273 25.779C125.151 25.5472 124.96 25.3586 124.727 25.2389C124.495 25.1192 124.231 25.0742 123.972 25.11C123.712 25.1459 123.47 25.2608 123.279 25.4392C123.087 25.6176 122.955 25.8508 122.9 26.107C123.215 26.2528 123.492 26.4669 123.714 26.7338C123.935 27.0006 124.094 27.3134 124.18 27.6496C124.362 27.644 124.541 27.5992 124.704 27.5183C124.698 27.4491 124.695 27.3797 124.695 27.3103ZM120.371 26.4941C120.211 26.2011 119.944 25.9822 119.625 25.8845C119.306 25.7867 118.962 25.8179 118.666 25.9713C118.371 26.1247 118.146 26.3881 118.042 26.705C117.938 27.0219 117.962 27.3672 118.109 27.6666H119.672C119.782 27.2147 120.025 26.8063 120.37 26.4941H120.371ZM124.72 22.8567C124.599 22.6247 124.411 22.4354 124.179 22.3143C123.948 22.1933 123.685 22.1464 123.426 22.18C123.167 22.2136 122.925 22.326 122.732 22.5021C122.539 22.6782 122.405 22.9095 122.348 23.1645C122.8 23.3771 123.173 23.7294 123.411 24.1696C123.612 24.1019 123.822 24.0623 124.034 24.0521C124.136 23.5935 124.375 23.1767 124.719 22.8567H124.72ZM126.299 23.2832C126.016 23.2826 125.741 23.3764 125.518 23.5496C125.294 23.7227 125.134 23.9656 125.064 24.2398C125.505 24.4306 125.876 24.753 126.128 25.1629C126.409 25.045 126.712 24.9843 127.017 24.9845H127.064C127.171 24.6615 127.306 24.3481 127.465 24.0476C127.366 23.8204 127.203 23.6272 126.996 23.4914C126.789 23.3557 126.547 23.2833 126.299 23.2832H126.299ZM122.512 24.7233C122.398 24.4914 122.216 24.2999 121.991 24.174C121.765 24.0481 121.507 23.9939 121.25 24.0187C120.993 24.0434 120.749 24.1458 120.552 24.3123C120.354 24.4788 120.212 24.7016 120.144 24.951C120.63 25.1564 121.033 25.5206 121.286 25.9844C121.478 25.9291 121.676 25.8989 121.876 25.8945C121.969 25.4502 122.19 25.043 122.512 24.7233Z" fill="white"/>
</g>
<circle cx="62" cy="108.5" r="3.5" fill="white"/>
<path d="M75.11 107.12C75.11 107.473 75.0267 107.807 74.86 108.12C74.6933 108.433 74.4267 108.69 74.06 108.89C73.6933 109.083 73.2233 109.18 72.65 109.18H71.39V112H70.25V105.05H72.65C73.1833 105.05 73.6333 105.143 74 105.33C74.3733 105.51 74.65 105.757 74.83 106.07C75.0167 106.383 75.11 106.733 75.11 107.12ZM72.65 108.25C73.0833 108.25 73.4067 108.153 73.62 107.96C73.8333 107.76 73.94 107.48 73.94 107.12C73.94 106.36 73.51 105.98 72.65 105.98H71.39V108.25H72.65ZM77.3373 107.29C77.5039 107.01 77.7239 106.793 77.9973 106.64C78.2773 106.48 78.6073 106.4 78.9873 106.4V107.58H78.6973C78.2506 107.58 77.9106 107.693 77.6773 107.92C77.4506 108.147 77.3373 108.54 77.3373 109.1V112H76.1973V106.49H77.3373V107.29ZM82.4252 112.09C81.9052 112.09 81.4352 111.973 81.0152 111.74C80.5952 111.5 80.2652 111.167 80.0252 110.74C79.7852 110.307 79.6652 109.807 79.6652 109.24C79.6652 108.68 79.7885 108.183 80.0352 107.75C80.2818 107.317 80.6185 106.983 81.0452 106.75C81.4718 106.517 81.9485 106.4 82.4752 106.4C83.0018 106.4 83.4785 106.517 83.9052 106.75C84.3318 106.983 84.6685 107.317 84.9152 107.75C85.1618 108.183 85.2852 108.68 85.2852 109.24C85.2852 109.8 85.1585 110.297 84.9052 110.73C84.6518 111.163 84.3052 111.5 83.8652 111.74C83.4318 111.973 82.9518 112.09 82.4252 112.09ZM82.4252 111.1C82.7185 111.1 82.9918 111.03 83.2452 110.89C83.5052 110.75 83.7152 110.54 83.8752 110.26C84.0352 109.98 84.1152 109.64 84.1152 109.24C84.1152 108.84 84.0385 108.503 83.8852 108.23C83.7318 107.95 83.5285 107.74 83.2752 107.6C83.0218 107.46 82.7485 107.39 82.4552 107.39C82.1618 107.39 81.8885 107.46 81.6352 107.6C81.3885 107.74 81.1918 107.95 81.0452 108.23C80.8985 108.503 80.8252 108.84 80.8252 109.24C80.8252 109.833 80.9752 110.293 81.2752 110.62C81.5818 110.94 81.9652 111.1 82.4252 111.1ZM87.7421 107.42V110.47C87.7421 110.677 87.7888 110.827 87.8821 110.92C87.9821 111.007 88.1488 111.05 88.3821 111.05H89.0821V112H88.1821C87.6688 112 87.2754 111.88 87.0021 111.64C86.7288 111.4 86.5921 111.01 86.5921 110.47V107.42H85.9421V106.49H86.5921V105.12H87.7421V106.49H89.0821V107.42H87.7421ZM95.1828 109.11C95.1828 109.317 95.1695 109.503 95.1428 109.67H90.9328C90.9661 110.11 91.1295 110.463 91.4228 110.73C91.7161 110.997 92.0761 111.13 92.5028 111.13C93.1161 111.13 93.5495 110.873 93.8028 110.36H95.0328C94.8661 110.867 94.5628 111.283 94.1228 111.61C93.6895 111.93 93.1495 112.09 92.5028 112.09C91.9761 112.09 91.5028 111.973 91.0828 111.74C90.6695 111.5 90.3428 111.167 90.1028 110.74C89.8695 110.307 89.7528 109.807 89.7528 109.24C89.7528 108.673 89.8661 108.177 90.0928 107.75C90.3261 107.317 90.6495 106.983 91.0628 106.75C91.4828 106.517 91.9628 106.4 92.5028 106.4C93.0228 106.4 93.4861 106.513 93.8928 106.74C94.2995 106.967 94.6161 107.287 94.8428 107.7C95.0695 108.107 95.1828 108.577 95.1828 109.11ZM93.9928 108.75C93.9861 108.33 93.8361 107.993 93.5428 107.74C93.2495 107.487 92.8861 107.36 92.4528 107.36C92.0595 107.36 91.7228 107.487 91.4428 107.74C91.1628 107.987 90.9961 108.323 90.9428 108.75H93.9928ZM96.8847 105.76C96.678 105.76 96.5047 105.69 96.3647 105.55C96.2247 105.41 96.1547 105.237 96.1547 105.03C96.1547 104.823 96.2247 104.65 96.3647 104.51C96.5047 104.37 96.678 104.3 96.8847 104.3C97.0847 104.3 97.2547 104.37 97.3947 104.51C97.5347 104.65 97.6047 104.823 97.6047 105.03C97.6047 105.237 97.5347 105.41 97.3947 105.55C97.2547 105.69 97.0847 105.76 96.8847 105.76ZM97.4447 106.49V112H96.3047V106.49H97.4447ZM101.721 106.4C102.155 106.4 102.541 106.49 102.881 106.67C103.228 106.85 103.498 107.117 103.691 107.47C103.885 107.823 103.981 108.25 103.981 108.75V112H102.851V108.92C102.851 108.427 102.728 108.05 102.481 107.79C102.235 107.523 101.898 107.39 101.471 107.39C101.045 107.39 100.705 107.523 100.451 107.79C100.205 108.05 100.081 108.427 100.081 108.92V112H98.9414V106.49H100.081V107.12C100.268 106.893 100.505 106.717 100.791 106.59C101.085 106.463 101.395 106.4 101.721 106.4Z" fill="white"/>
<circle cx="62" cy="123.5" r="3.5" fill="white"/>
<path d="M69.87 123.51C69.87 122.83 70.0267 122.22 70.34 121.68C70.66 121.14 71.09 120.72 71.63 120.42C72.1767 120.113 72.7733 119.96 73.42 119.96C74.16 119.96 74.8167 120.143 75.39 120.51C75.97 120.87 76.39 121.383 76.65 122.05H75.28C75.1 121.683 74.85 121.41 74.53 121.23C74.21 121.05 73.84 120.96 73.42 120.96C72.96 120.96 72.55 121.063 72.19 121.27C71.83 121.477 71.5467 121.773 71.34 122.16C71.14 122.547 71.04 122.997 71.04 123.51C71.04 124.023 71.14 124.473 71.34 124.86C71.5467 125.247 71.83 125.547 72.19 125.76C72.55 125.967 72.96 126.07 73.42 126.07C73.84 126.07 74.21 125.98 74.53 125.8C74.85 125.62 75.1 125.347 75.28 124.98H76.65C76.39 125.647 75.97 126.16 75.39 126.52C74.8167 126.88 74.16 127.06 73.42 127.06C72.7667 127.06 72.17 126.91 71.63 126.61C71.09 126.303 70.66 125.88 70.34 125.34C70.0267 124.8 69.87 124.19 69.87 123.51ZM77.6044 124.22C77.6044 123.667 77.7177 123.177 77.9444 122.75C78.1777 122.323 78.491 121.993 78.8844 121.76C79.2844 121.52 79.7244 121.4 80.2044 121.4C80.6377 121.4 81.0144 121.487 81.3344 121.66C81.661 121.827 81.921 122.037 82.1144 122.29V121.49H83.2644V127H82.1144V126.18C81.921 126.44 81.6577 126.657 81.3244 126.83C80.991 127.003 80.611 127.09 80.1844 127.09C79.711 127.09 79.2777 126.97 78.8844 126.73C78.491 126.483 78.1777 126.143 77.9444 125.71C77.7177 125.27 77.6044 124.773 77.6044 124.22ZM82.1144 124.24C82.1144 123.86 82.0344 123.53 81.8744 123.25C81.721 122.97 81.5177 122.757 81.2644 122.61C81.011 122.463 80.7377 122.39 80.4444 122.39C80.151 122.39 79.8777 122.463 79.6244 122.61C79.371 122.75 79.1644 122.96 79.0044 123.24C78.851 123.513 78.7744 123.84 78.7744 124.22C78.7744 124.6 78.851 124.933 79.0044 125.22C79.1644 125.507 79.371 125.727 79.6244 125.88C79.8844 126.027 80.1577 126.1 80.4444 126.1C80.7377 126.1 81.011 126.027 81.2644 125.88C81.5177 125.733 81.721 125.52 81.8744 125.24C82.0344 124.953 82.1144 124.62 82.1144 124.24ZM85.9017 122.29C86.0684 122.01 86.2884 121.793 86.5617 121.64C86.8417 121.48 87.1717 121.4 87.5517 121.4V122.58H87.2617C86.8151 122.58 86.4751 122.693 86.2417 122.92C86.0151 123.147 85.9017 123.54 85.9017 124.1V127H84.7617V121.49H85.9017V122.29ZM89.7396 122.31C89.9329 122.043 90.1963 121.827 90.5296 121.66C90.8696 121.487 91.2463 121.4 91.6596 121.4C92.1463 121.4 92.5863 121.517 92.9796 121.75C93.3729 121.983 93.6829 122.317 93.9096 122.75C94.1363 123.177 94.2496 123.667 94.2496 124.22C94.2496 124.773 94.1363 125.27 93.9096 125.71C93.6829 126.143 93.3696 126.483 92.9696 126.73C92.5763 126.97 92.1396 127.09 91.6596 127.09C91.2329 127.09 90.8529 127.007 90.5196 126.84C90.1929 126.673 89.9329 126.46 89.7396 126.2V127H88.5996V119.6H89.7396V122.31ZM93.0896 124.22C93.0896 123.84 93.0096 123.513 92.8496 123.24C92.6963 122.96 92.4896 122.75 92.2296 122.61C91.9763 122.463 91.7029 122.39 91.4096 122.39C91.1229 122.39 90.8496 122.463 90.5896 122.61C90.3363 122.757 90.1296 122.97 89.9696 123.25C89.8163 123.53 89.7396 123.86 89.7396 124.24C89.7396 124.62 89.8163 124.953 89.9696 125.24C90.1296 125.52 90.3363 125.733 90.5896 125.88C90.8496 126.027 91.1229 126.1 91.4096 126.1C91.7029 126.1 91.9763 126.027 92.2296 125.88C92.4896 125.727 92.6963 125.507 92.8496 125.22C93.0096 124.933 93.0896 124.6 93.0896 124.22Z" fill="white"/>
<circle cx="62" cy="138.5" r="3.5" fill="white"/>
<path d="M74.34 135.05V135.98H71.39V138.03H73.69V138.96H71.39V142H70.25V135.05H74.34ZM75.9765 135.76C75.7698 135.76 75.5965 135.69 75.4565 135.55C75.3165 135.41 75.2465 135.237 75.2465 135.03C75.2465 134.823 75.3165 134.65 75.4565 134.51C75.5965 134.37 75.7698 134.3 75.9765 134.3C76.1765 134.3 76.3465 134.37 76.4865 134.51C76.6265 134.65 76.6965 134.823 76.6965 135.03C76.6965 135.237 76.6265 135.41 76.4865 135.55C76.3465 135.69 76.1765 135.76 75.9765 135.76ZM76.5365 136.49V142H75.3965V136.49H76.5365ZM79.1732 137.31C79.3665 137.043 79.6299 136.827 79.9632 136.66C80.3032 136.487 80.6799 136.4 81.0932 136.4C81.5799 136.4 82.0199 136.517 82.4132 136.75C82.8065 136.983 83.1165 137.317 83.3432 137.75C83.5699 138.177 83.6832 138.667 83.6832 139.22C83.6832 139.773 83.5699 140.27 83.3432 140.71C83.1165 141.143 82.8032 141.483 82.4032 141.73C82.0099 141.97 81.5732 142.09 81.0932 142.09C80.6665 142.09 80.2865 142.007 79.9532 141.84C79.6265 141.673 79.3665 141.46 79.1732 141.2V142H78.0332V134.6H79.1732V137.31ZM82.5232 139.22C82.5232 138.84 82.4432 138.513 82.2832 138.24C82.1299 137.96 81.9232 137.75 81.6632 137.61C81.4099 137.463 81.1365 137.39 80.8432 137.39C80.5565 137.39 80.2832 137.463 80.0232 137.61C79.7699 137.757 79.5632 137.97 79.4032 138.25C79.2499 138.53 79.1732 138.86 79.1732 139.24C79.1732 139.62 79.2499 139.953 79.4032 140.24C79.5632 140.52 79.7699 140.733 80.0232 140.88C80.2832 141.027 80.5565 141.1 80.8432 141.1C81.1365 141.1 81.4099 141.027 81.6632 140.88C81.9232 140.727 82.1299 140.507 82.2832 140.22C82.4432 139.933 82.5232 139.6 82.5232 139.22ZM85.9505 137.29C86.1172 137.01 86.3372 136.793 86.6105 136.64C86.8905 136.48 87.2205 136.4 87.6005 136.4V137.58H87.3105C86.8639 137.58 86.5239 137.693 86.2905 137.92C86.0639 138.147 85.9505 138.54 85.9505 139.1V142H84.8105V136.49H85.9505V137.29ZM93.6984 139.11C93.6984 139.317 93.6851 139.503 93.6584 139.67H89.4484C89.4818 140.11 89.6451 140.463 89.9384 140.73C90.2318 140.997 90.5918 141.13 91.0184 141.13C91.6318 141.13 92.0651 140.873 92.3184 140.36H93.5484C93.3818 140.867 93.0784 141.283 92.6384 141.61C92.2051 141.93 91.6651 142.09 91.0184 142.09C90.4918 142.09 90.0184 141.973 89.5984 141.74C89.1851 141.5 88.8584 141.167 88.6184 140.74C88.3851 140.307 88.2684 139.807 88.2684 139.24C88.2684 138.673 88.3818 138.177 88.6084 137.75C88.8418 137.317 89.1651 136.983 89.5784 136.75C89.9984 136.517 90.4784 136.4 91.0184 136.4C91.5384 136.4 92.0018 136.513 92.4084 136.74C92.8151 136.967 93.1318 137.287 93.3584 137.7C93.5851 138.107 93.6984 138.577 93.6984 139.11ZM92.5084 138.75C92.5018 138.33 92.3518 137.993 92.0584 137.74C91.7651 137.487 91.4018 137.36 90.9684 137.36C90.5751 137.36 90.2384 137.487 89.9584 137.74C89.6784 137.987 89.5118 138.323 89.4584 138.75H92.5084Z" fill="white"/>
<path d="M88 80C96.9299 80 105.772 81.7589 114.022 85.1762C122.273 88.5935 129.769 93.6024 136.083 99.9167C142.398 106.231 147.406 113.727 150.824 121.978C154.241 130.228 156 139.07 156 148C156 156.93 154.241 165.772 150.824 174.022C147.406 182.273 142.398 189.769 136.083 196.083C129.769 202.398 122.273 207.406 114.022 210.824C105.772 214.241 96.9299 216 88 216C79.0701 216 70.2276 214.241 61.9775 210.824C53.7274 207.406 46.2311 202.398 39.9167 196.083C33.6023 189.769 28.5935 182.273 25.1762 174.022C21.7589 165.772 20 156.93 20 148C20 139.07 21.7589 130.228 25.1762 121.977C28.5935 113.727 33.6024 106.231 39.9168 99.9167C46.2312 93.6023 53.7274 88.5935 61.9776 85.1762C70.2277 81.7589 79.0702 80 88 80L88 80Z" stroke="white" stroke-width="8" stroke-miterlimit="1.30541" stroke-linecap="round"/>
<g clip-path="url(#clip2_327_1832)">
<path fill-rule="evenodd" clip-rule="evenodd" d="M27 148.48C27 148.32 27 148.16 27 148C27 147.84 27 147.68 27 147.52C27 146.97 27.46 146.52 28.01 146.53C28.56 146.53 29.01 146.99 29 147.54C29 147.69 29 147.85 29 148C29 148.15 29 148.31 29 148.46C29 149.01 28.56 149.46 28.01 149.47C27.46 149.47 27.01 149.03 27 148.48Z" fill="white"/>
<path opacity="0.4" fill-rule="evenodd" clip-rule="evenodd" d="M28.08 144.76C27.53 144.72 27.11 144.24 27.15 143.69C27.17 143.37 27.2 143.05 27.23 142.73C27.28 142.18 27.76 141.77 28.31 141.82C28.86 141.87 29.27 142.35 29.22 142.9C29.19 143.21 29.17 143.52 29.15 143.82C29.11 144.37 28.63 144.79 28.08 144.75L28.08 144.76Z" fill="white"/>
<path opacity="0.4" fill-rule="evenodd" clip-rule="evenodd" d="M28.52 140.07C27.97 139.99 27.6 139.48 27.68 138.93C27.73 138.61 27.78 138.3 27.83 137.98C27.92 137.44 28.44 137.07 28.98 137.16C29.52 137.25 29.89 137.77 29.8 138.31C29.75 138.61 29.7 138.92 29.66 139.23C29.58 139.78 29.07 140.15 28.52 140.07Z" fill="white"/>
<path opacity="0.4" fill-rule="evenodd" clip-rule="evenodd" d="M29.32 135.43C28.78 135.31 28.45 134.77 28.57 134.23C28.64 133.92 28.72 133.61 28.79 133.3C28.92 132.76 29.47 132.44 30 132.57C30.54 132.7 30.86 133.25 30.73 133.78C30.66 134.08 30.58 134.38 30.51 134.68C30.39 135.22 29.85 135.55 29.31 135.43L29.32 135.43Z" fill="white"/>
<path opacity="0.4" fill-rule="evenodd" clip-rule="evenodd" d="M30.49 130.86C29.96 130.69 29.67 130.13 29.84 129.61C29.94 129.31 30.03 129 30.14 128.7C30.31 128.18 30.88 127.89 31.41 128.07C31.93 128.24 32.22 128.81 32.04 129.34C31.94 129.63 31.85 129.93 31.75 130.22C31.58 130.75 31.02 131.04 30.5 130.87L30.49 130.86Z" fill="white"/>
<path opacity="0.4" fill-rule="evenodd" clip-rule="evenodd" d="M32.01 126.4C31.5 126.19 31.25 125.61 31.46 125.1C31.52 124.95 31.58 124.8 31.64 124.66C31.7 124.51 31.76 124.37 31.83 124.22C32.05 123.71 32.63 123.47 33.14 123.69C33.65 123.91 33.89 124.49 33.67 125C33.61 125.14 33.55 125.28 33.49 125.43C33.43 125.57 33.37 125.72 33.31 125.86C33.1 126.37 32.52 126.62 32.01 126.41L32.01 126.4Z" fill="white"/>
<path opacity="0.4" fill-rule="evenodd" clip-rule="evenodd" d="M33.88 122.08C33.39 121.83 33.19 121.23 33.43 120.74C33.57 120.45 33.72 120.17 33.86 119.89C34.11 119.4 34.72 119.21 35.21 119.46C35.7 119.71 35.89 120.32 35.64 120.81C35.5 121.08 35.36 121.36 35.22 121.64C34.97 122.13 34.37 122.33 33.88 122.09L33.88 122.08Z" fill="white"/>
<path opacity="0.4" fill-rule="evenodd" clip-rule="evenodd" d="M36.08 117.91C35.61 117.63 35.45 117.01 35.74 116.54C35.9 116.27 36.07 115.99 36.24 115.72C36.53 115.25 37.15 115.11 37.62 115.4C38.09 115.69 38.23 116.31 37.94 116.78C37.78 117.04 37.62 117.31 37.46 117.57C37.18 118.04 36.56 118.2 36.09 117.91L36.08 117.91Z" fill="white"/>
<path opacity="0.4" fill-rule="evenodd" clip-rule="evenodd" d="M38.6 113.93C38.15 113.61 38.05 112.98 38.37 112.53C38.56 112.27 38.74 112.01 38.93 111.75C39.26 111.31 39.88 111.21 40.33 111.54C40.77 111.87 40.87 112.49 40.54 112.94C40.36 113.19 40.17 113.44 40 113.69C39.68 114.14 39.05 114.24 38.61 113.92L38.6 113.93Z" fill="white"/>
<path opacity="0.4" fill-rule="evenodd" clip-rule="evenodd" d="M41.43 110.16C41.01 109.8 40.95 109.17 41.31 108.75C41.52 108.51 41.72 108.26 41.93 108.02C42.29 107.6 42.92 107.56 43.34 107.92C43.76 108.28 43.8 108.91 43.44 109.33C43.24 109.56 43.04 109.8 42.84 110.03C42.48 110.45 41.85 110.51 41.43 110.15L41.43 110.16Z" fill="white"/>
<path opacity="0.4" fill-rule="evenodd" clip-rule="evenodd" d="M44.54 106.62C44.15 106.23 44.14 105.6 44.53 105.21C44.64 105.1 44.75 104.98 44.87 104.87C44.98 104.76 45.1 104.65 45.21 104.53C45.6 104.14 46.24 104.15 46.62 104.54C47.01 104.93 47 105.57 46.61 105.95C46.5 106.06 46.39 106.17 46.28 106.28C46.17 106.39 46.06 106.5 45.95 106.61C45.56 107 44.93 107.01 44.54 106.62Z" fill="white"/>
<path opacity="0.4" fill-rule="evenodd" clip-rule="evenodd" d="M47.92 103.34C47.56 102.92 47.6 102.29 48.02 101.93C48.26 101.72 48.5 101.51 48.75 101.31C49.17 100.95 49.8 101.01 50.16 101.43C50.52 101.85 50.46 102.48 50.04 102.84C49.8 103.04 49.57 103.24 49.34 103.44C48.92 103.8 48.29 103.76 47.93 103.34L47.92 103.34Z" fill="white"/>
<path opacity="0.4" fill-rule="evenodd" clip-rule="evenodd" d="M51.55 100.33C51.22 99.89 51.32 99.26 51.76 98.93C52.02 98.74 52.28 98.55 52.54 98.37C52.99 98.05 53.61 98.15 53.94 98.6C54.26 99.05 54.16 99.67 53.71 100C53.46 100.18 53.21 100.36 52.96 100.54C52.52 100.87 51.89 100.77 51.56 100.33L51.55 100.33Z" fill="white"/>
<path opacity="0.4" fill-rule="evenodd" clip-rule="evenodd" d="M55.4 97.62C55.11 97.15 55.25 96.53 55.72 96.24C55.99 96.07 56.26 95.9 56.54 95.74C57.01 95.46 57.63 95.61 57.91 96.08C58.19 96.55 58.04 97.17 57.57 97.45C57.31 97.61 57.04 97.77 56.78 97.93C56.31 98.22 55.69 98.08 55.4 97.61L55.4 97.62Z" fill="white"/>
<path opacity="0.4" fill-rule="evenodd" clip-rule="evenodd" d="M59.45 95.22C59.2 94.73 59.39 94.13 59.88 93.87C60.16 93.72 60.45 93.58 60.73 93.44C61.22 93.19 61.82 93.39 62.07 93.89C62.32 94.38 62.12 94.99 61.62 95.23C61.34 95.37 61.07 95.51 60.79 95.65C60.3 95.9 59.7 95.71 59.44 95.22L59.45 95.22Z" fill="white"/>
<path opacity="0.4" fill-rule="evenodd" clip-rule="evenodd" d="M63.68 93.14C63.46 92.63 63.7 92.04 64.21 91.83C64.36 91.77 64.5 91.71 64.65 91.64C64.8 91.58 64.95 91.52 65.09 91.46C65.6 91.25 66.18 91.5 66.39 92.01C66.6 92.52 66.35 93.11 65.84 93.31C65.7 93.37 65.55 93.43 65.41 93.49C65.27 93.55 65.12 93.61 64.98 93.67C64.47 93.89 63.88 93.65 63.67 93.14L63.68 93.14Z" fill="white"/>
<path opacity="0.4" fill-rule="evenodd" clip-rule="evenodd" d="M68.06 91.4C67.89 90.88 68.17 90.31 68.69 90.14C68.99 90.04 69.3 89.94 69.6 89.84C70.13 89.67 70.69 89.97 70.85 90.49C71.02 91.02 70.72 91.58 70.2 91.75C69.91 91.84 69.61 91.94 69.32 92.04C68.8 92.21 68.23 91.93 68.05 91.41L68.06 91.4Z" fill="white"/>
<path opacity="0.4" fill-rule="evenodd" clip-rule="evenodd" d="M72.56 90.01C72.43 89.47 72.75 88.93 73.29 88.8C73.6 88.72 73.91 88.65 74.22 88.58C74.76 88.46 75.3 88.79 75.42 89.33C75.54 89.87 75.21 90.41 74.67 90.53C74.37 90.6 74.07 90.67 73.77 90.75C73.23 90.88 72.69 90.56 72.56 90.02L72.56 90.01Z" fill="white"/>
<path opacity="0.4" fill-rule="evenodd" clip-rule="evenodd" d="M77.16 88.98C77.07 88.44 77.44 87.92 77.98 87.83C78.29 87.78 78.61 87.73 78.93 87.68C79.48 87.6 79.99 87.97 80.07 88.52C80.15 89.07 79.78 89.58 79.23 89.66C78.92 89.71 78.62 89.75 78.31 89.81C77.77 89.9 77.25 89.53 77.16 88.99L77.16 88.98Z" fill="white"/>
<path opacity="0.4" fill-rule="evenodd" clip-rule="evenodd" d="M81.83 88.31C81.78 87.76 82.19 87.28 82.74 87.23C83.06 87.2 83.38 87.18 83.7 87.15C84.25 87.11 84.73 87.53 84.77 88.08C84.81 88.63 84.39 89.11 83.84 89.15C83.53 89.17 83.22 89.2 82.92 89.22C82.37 89.27 81.89 88.86 81.84 88.31L81.83 88.31Z" fill="white"/>
<path opacity="0.4" fill-rule="evenodd" clip-rule="evenodd" d="M86.53 88.01C86.53 87.46 86.97 87.01 87.52 87C87.68 87 87.84 87 88 87C88.16 87 88.32 87 88.48 87C89.03 87 89.48 87.46 89.47 88.01C89.47 88.56 89.01 89.01 88.46 89C88.31 89 88.15 89 88 89C87.85 89 87.69 89 87.54 89C86.99 89 86.54 88.56 86.53 88.01Z" fill="white"/>
<path opacity="0.4" fill-rule="evenodd" clip-rule="evenodd" d="M91.24 88.08C91.28 87.53 91.76 87.11 92.31 87.15C92.63 87.17 92.95 87.2 93.27 87.23C93.82 87.28 94.23 87.76 94.18 88.31C94.13 88.86 93.65 89.27 93.1 89.22C92.79 89.19 92.48 89.17 92.18 89.15C91.63 89.11 91.21 88.63 91.25 88.08L91.24 88.08Z" fill="white"/>
<path opacity="0.4" fill-rule="evenodd" clip-rule="evenodd" d="M95.93 88.5199C96.01 87.9699 96.52 87.5999 97.07 87.6799C97.39 87.7299 97.7 87.7799 98.02 87.8299C98.56 87.9199 98.93 88.4399 98.84 88.9799C98.75 89.5299 98.23 89.8899 97.69 89.7999C97.39 89.7499 97.08 89.6999 96.77 89.6499C96.22 89.5699 95.85 89.0599 95.93 88.5099L95.93 88.5199Z" fill="white"/>
<path opacity="0.4" fill-rule="evenodd" clip-rule="evenodd" d="M100.57 89.32C100.69 88.78 101.23 88.45 101.77 88.57C102.08 88.64 102.39 88.72 102.7 88.79C103.24 88.92 103.56 89.47 103.43 90C103.3 90.54 102.75 90.86 102.22 90.73C101.92 90.66 101.62 90.58 101.32 90.51C100.78 90.39 100.45 89.85 100.57 89.31L100.57 89.32Z" fill="white"/>
<path opacity="0.4" fill-rule="evenodd" clip-rule="evenodd" d="M105.14 90.49C105.31 89.96 105.87 89.67 106.39 89.84C106.69 89.94 107 90.03 107.3 90.14C107.82 90.31 108.11 90.88 107.93 91.4C107.76 91.92 107.19 92.21 106.66 92.03C106.37 91.93 106.07 91.84 105.78 91.74C105.25 91.57 104.96 91.01 105.13 90.48L105.14 90.49Z" fill="white"/>
<path opacity="0.4" fill-rule="evenodd" clip-rule="evenodd" d="M109.6 92.01C109.81 91.5 110.39 91.25 110.9 91.46C111.05 91.52 111.2 91.58 111.34 91.64C111.49 91.7 111.63 91.76 111.78 91.83C112.29 92.05 112.53 92.63 112.31 93.14C112.09 93.65 111.51 93.89 111 93.67C110.86 93.61 110.72 93.55 110.57 93.49C110.43 93.43 110.28 93.37 110.14 93.31C109.63 93.1 109.38 92.52 109.59 92.01L109.6 92.01Z" fill="white"/>
<path opacity="0.4" fill-rule="evenodd" clip-rule="evenodd" d="M113.92 93.88C114.17 93.39 114.77 93.19 115.26 93.43C115.55 93.57 115.83 93.72 116.11 93.86C116.6 94.11 116.79 94.72 116.54 95.21C116.29 95.7 115.68 95.89 115.19 95.64C114.92 95.5 114.64 95.36 114.36 95.22C113.87 94.97 113.67 94.37 113.91 93.88L113.92 93.88Z" fill="white"/>
<path opacity="0.4" fill-rule="evenodd" clip-rule="evenodd" d="M118.09 96.0801C118.37 95.6101 118.99 95.4501 119.46 95.7401C119.73 95.9101 120.01 96.0701 120.28 96.2401C120.75 96.5301 120.89 97.1501 120.6 97.6201C120.31 98.0901 119.69 98.2301 119.22 97.9401C118.96 97.7801 118.69 97.6101 118.43 97.4601C117.96 97.1701 117.8 96.56 118.09 96.09L118.09 96.0801Z" fill="white"/>
<path opacity="0.4" fill-rule="evenodd" clip-rule="evenodd" d="M122.07 98.6C122.39 98.15 123.02 98.05 123.47 98.37C123.73 98.56 123.99 98.74 124.25 98.93C124.69 99.26 124.79 99.88 124.46 100.33C124.13 100.77 123.51 100.87 123.06 100.54C122.81 100.36 122.56 100.18 122.31 100C121.86 99.68 121.76 99.05 122.08 98.6L122.07 98.6Z" fill="white"/>
<path opacity="0.4" fill-rule="evenodd" clip-rule="evenodd" d="M125.84 101.43C126.2 101.01 126.83 100.95 127.25 101.31C127.49 101.52 127.74 101.72 127.98 101.93C128.4 102.29 128.44 102.92 128.08 103.34C127.72 103.76 127.09 103.8 126.67 103.44C126.44 103.24 126.2 103.04 125.97 102.84C125.55 102.49 125.49 101.85 125.85 101.43L125.84 101.43Z" fill="white"/>
<path opacity="0.4" fill-rule="evenodd" clip-rule="evenodd" d="M129.38 104.54C129.77 104.15 130.4 104.14 130.79 104.53C130.85 104.59 130.91 104.65 130.97 104.71C131.02 104.76 131.08 104.82 131.13 104.87C131.24 104.98 131.35 105.1 131.47 105.21C131.86 105.6 131.85 106.24 131.46 106.62C131.07 107.01 130.43 107 130.05 106.61C129.98 106.54 129.92 106.47 129.85 106.41C129.81 106.37 129.77 106.33 129.72 106.29C129.61 106.18 129.5 106.07 129.39 105.96C129 105.57 128.99 104.94 129.38 104.55L129.38 104.54Z" fill="white"/>
<path opacity="0.4" fill-rule="evenodd" clip-rule="evenodd" d="M132.66 107.92C133.08 107.56 133.71 107.6 134.07 108.02C134.28 108.26 134.49 108.5 134.69 108.75C135.05 109.17 134.99 109.8 134.57 110.16C134.15 110.52 133.52 110.46 133.16 110.04C132.96 109.8 132.76 109.57 132.56 109.34C132.2 108.92 132.24 108.29 132.66 107.93L132.66 107.92Z" fill="white"/>
<path opacity="0.4" fill-rule="evenodd" clip-rule="evenodd" d="M135.67 111.55C136.11 111.22 136.74 111.32 137.07 111.76C137.26 112.02 137.45 112.28 137.63 112.54C137.95 112.99 137.85 113.61 137.4 113.94C136.95 114.26 136.33 114.16 136 113.71C135.82 113.46 135.64 113.21 135.46 112.96C135.13 112.52 135.23 111.89 135.67 111.56L135.67 111.55Z" fill="white"/>
<path opacity="0.4" fill-rule="evenodd" clip-rule="evenodd" d="M138.38 115.4C138.85 115.11 139.47 115.25 139.76 115.72C139.93 115.99 140.1 116.26 140.26 116.54C140.54 117.01 140.39 117.63 139.92 117.91C139.45 118.19 138.83 118.04 138.55 117.57C138.39 117.31 138.23 117.04 138.07 116.78C137.78 116.31 137.92 115.69 138.39 115.4L138.38 115.4Z" fill="white"/>
<path opacity="0.4" fill-rule="evenodd" clip-rule="evenodd" d="M140.78 119.45C141.27 119.2 141.87 119.39 142.13 119.88C142.28 120.16 142.42 120.45 142.56 120.73C142.81 121.22 142.61 121.82 142.11 122.07C141.62 122.32 141.01 122.12 140.77 121.62C140.63 121.34 140.49 121.07 140.35 120.79C140.1 120.3 140.29 119.7 140.78 119.44L140.78 119.45Z" fill="white"/>
<path opacity="0.4" fill-rule="evenodd" clip-rule="evenodd" d="M142.86 123.68C143.37 123.46 143.96 123.7 144.17 124.21C144.23 124.36 144.29 124.5 144.36 124.65C144.42 124.8 144.48 124.95 144.54 125.09C144.75 125.6 144.5 126.18 143.99 126.39C143.48 126.6 142.89 126.35 142.69 125.84C142.63 125.7 142.57 125.55 142.51 125.41C142.45 125.27 142.39 125.12 142.33 124.98C142.11 124.47 142.35 123.88 142.86 123.67L142.86 123.68Z" fill="white"/>
<path opacity="0.4" fill-rule="evenodd" clip-rule="evenodd" d="M144.6 128.06C145.12 127.89 145.69 128.17 145.86 128.69C145.96 128.99 146.06 129.3 146.16 129.6C146.33 130.13 146.03 130.69 145.51 130.85C144.98 131.02 144.42 130.72 144.25 130.2C144.16 129.91 144.06 129.61 143.96 129.32C143.79 128.8 144.07 128.23 144.59 128.05L144.6 128.06Z" fill="white"/>
<path opacity="0.4" fill-rule="evenodd" clip-rule="evenodd" d="M145.99 132.57C146.53 132.44 147.07 132.76 147.2 133.3C147.28 133.61 147.35 133.92 147.42 134.23C147.54 134.77 147.21 135.31 146.67 135.43C146.13 135.55 145.59 135.22 145.47 134.68C145.4 134.38 145.33 134.08 145.25 133.78C145.12 133.24 145.44 132.7 145.98 132.57L145.99 132.57Z" fill="white"/>
<path opacity="0.4" fill-rule="evenodd" clip-rule="evenodd" d="M147.02 137.16C147.56 137.07 148.08 137.44 148.17 137.98C148.22 138.3 148.27 138.61 148.32 138.93C148.4 139.48 148.03 139.99 147.48 140.07C146.93 140.15 146.42 139.78 146.34 139.23C146.29 138.92 146.25 138.62 146.19 138.31C146.1 137.77 146.47 137.25 147.01 137.16L147.02 137.16Z" fill="white"/>
<path opacity="0.4" fill-rule="evenodd" clip-rule="evenodd" d="M147.69 141.83C148.24 141.78 148.72 142.19 148.77 142.74C148.8 143.06 148.82 143.38 148.85 143.7C148.89 144.25 148.47 144.73 147.92 144.77C147.37 144.81 146.89 144.39 146.85 143.84C146.83 143.53 146.8 143.22 146.78 142.92C146.73 142.37 147.14 141.89 147.69 141.84L147.69 141.83Z" fill="white"/>
<path opacity="0.4" fill-rule="evenodd" clip-rule="evenodd" d="M147.99 149.47C147.44 149.47 146.99 149.01 147 148.46C147 148.31 147 148.15 147 148C147 147.85 147 147.69 147 147.54C147 146.99 147.44 146.54 147.99 146.53C148.54 146.53 148.99 146.97 149 147.52C149 147.68 149 147.84 149 148C149 148.16 149 148.32 149 148.48C149 149.03 148.54 149.48 147.99 149.47Z" fill="white"/>
</g>
</g>
<defs>
<linearGradient id="paint0_linear_327_1832" x1="82" y1="0" x2="82" y2="150" gradientUnits="userSpaceOnUse">
<stop stop-color="#FD9840"/>
<stop offset="1" stop-color="#F07A13"/>
</linearGradient>
<clipPath id="clip0_327_1832">
<rect width="164" height="150" rx="16" fill="white"/>
</clipPath>
<clipPath id="clip1_327_1832">
<rect width="25.6" height="24" fill="white" transform="translate(116 15)"/>
</clipPath>
<clipPath id="clip2_327_1832">
<rect width="122" height="122" fill="white" transform="translate(27 209) rotate(-90)"/>
</clipPath>
</defs>
</svg>
