<svg width="15" height="16" viewBox="0 0 15 16" fill="none" xmlns="http://www.w3.org/2000/svg">
<g clip-path="url(#clip0_1888_3250)">
<path fill-rule="evenodd" clip-rule="evenodd" d="M15 8C15 3.85787 11.6421 0.5 7.5 0.5C3.35787 0.5 0 3.85787 0 8C0 12.1421 3.35787 15.5 7.5 15.5C11.6421 15.5 15 12.1421 15 8ZM8.47642 9.6426V15.4369C8.15302 15.4788 7.82725 15.4999 7.50114 15.4999C6.99633 15.4999 6.5033 15.4497 6.0264 15.3547V9.64295H4.80225V7.60344H6.0264V6.37915C6.0264 4.71531 6.71748 3.72607 8.68125 3.72607H10.3161V5.76574H9.29419C8.52973 5.76574 8.47917 6.05061 8.47917 6.58251L8.47642 7.60328H10.3276L10.1109 9.6426H8.47642Z" fill="#2B2B2B"/>
</g>
<defs>
<clipPath id="clip0_1888_3250">
<rect width="15" height="15" fill="white" transform="translate(0 0.5)"/>
</clipPath>
</defs>
</svg>
