<svg width="111" height="31" viewBox="0 0 111 31" fill="none" xmlns="http://www.w3.org/2000/svg">
<path d="M27.5784 11.8583C27.5369 11.4858 27.4487 11.1567 27.3139 10.8709C27.1842 10.58 27.0053 10.335 26.7771 10.136C26.549 9.93187 26.2715 9.77622 25.9448 9.66905C25.6181 9.56188 25.2395 9.5083 24.8091 9.5083C23.9949 9.5083 23.2325 9.70733 22.522 10.1054C21.8167 10.5034 21.2152 11.0827 20.7173 11.843C20.2195 12.5983 19.8798 13.522 19.6983 14.6141C19.5116 15.7062 19.5116 16.635 19.6983 17.4005C19.8902 18.166 20.2506 18.7503 20.7795 19.1535C21.3137 19.5515 22.0008 19.7505 22.841 19.7505C23.6033 19.7505 24.2879 19.6179 24.8946 19.3525C25.5014 19.082 25.9966 18.7018 26.3804 18.2119C26.7694 17.722 27.0183 17.1428 27.1272 16.4742L27.7962 16.5738H23.6967L24.1167 14.0783H30.7833L30.441 16.0532C30.218 17.4311 29.728 18.6151 28.9708 19.6051C28.2137 20.5951 27.2698 21.3555 26.1393 21.8863C25.0139 22.417 23.7796 22.6824 22.4365 22.6824C20.9429 22.6824 19.6853 22.3583 18.6637 21.7102C17.6472 21.057 16.9238 20.1307 16.4933 18.9315C16.0681 17.7271 15.9929 16.2982 16.2677 14.6447C16.4804 13.374 16.8589 12.2411 17.4035 11.246C17.9532 10.2457 18.6248 9.39858 19.4182 8.70454C20.2117 8.01049 21.0907 7.48231 22.0553 7.11997C23.0251 6.75764 24.0338 6.57648 25.0813 6.57648C25.9837 6.57648 26.8005 6.70661 27.5317 6.96688C28.2681 7.22204 28.8982 7.58437 29.422 8.05387C29.951 8.52337 30.3503 9.08218 30.62 9.73029C30.8948 10.3733 31.0219 11.0827 31.0011 11.8583H27.5784Z" fill="black"/>
<path d="M32.9595 6.79081H36.7323L39.2293 13.5424H39.4005L44.1534 6.79081H47.9262L40.4117 16.9259L39.4705 22.468H36.1255L37.0668 16.9259L32.9595 6.79081Z" fill="black"/>
<path d="M49.766 6.79081H53.9199L56.5414 17.3239H56.7281L62.8813 6.79081H67.0353L64.3904 22.468H61.1233L62.8502 12.2641H62.7102L56.8915 22.3915H54.6589L52.263 12.2258H52.1308L50.3883 22.468H47.1211L49.766 6.79081Z" fill="black"/>
<path d="M73.1294 3.96472C73.1294 2.28188 74.4936 0.917664 76.1765 0.917664H107.953C109.636 0.917664 111 2.28188 111 3.96472V27.0353C111 28.7182 109.636 30.0824 107.953 30.0824H76.1765C74.4936 30.0824 73.1294 28.7182 73.1294 27.0353V3.96472Z" fill="#E02418"/>
<path d="M78.6469 7.90216H82.6091L85.1096 18.1118H85.2877L91.1567 7.90216H95.1189L92.5961 23.0979H89.4798L91.127 13.2073H90.9935L85.4435 23.0237H83.314L81.0287 13.1702H80.9026L79.2405 23.0979H76.1242L78.6469 7.90216Z" fill="white"/>
<path d="M95.2432 23.0979L97.7659 7.90216H108.005L107.56 10.551H100.533L99.9399 14.1719H106.44L105.994 16.8207H99.4947L98.9011 20.449H105.957L105.512 23.0979H95.2432Z" fill="white"/>
<path d="M0.0516472 28.7765V24.3444H2.80006V24.92H0.720355V26.2704H2.60313V26.8439H0.720355V28.7765H0.0516472Z" fill="#0B0C0D"/>
<path d="M3.57048 28.7765V25.4524H4.21755V28.7765H3.57048ZM3.89726 24.9395C3.78473 24.9395 3.68806 24.902 3.60727 24.827C3.52792 24.7505 3.48824 24.6596 3.48824 24.5543C3.48824 24.4475 3.52792 24.3567 3.60727 24.2816C3.68806 24.2052 3.78473 24.1669 3.89726 24.1669C4.00979 24.1669 4.10574 24.2052 4.18509 24.2816C4.26588 24.3567 4.30628 24.4475 4.30628 24.5543C4.30628 24.6596 4.26588 24.7505 4.18509 24.827C4.10574 24.902 4.00979 24.9395 3.89726 24.9395Z" fill="#0B0C0D"/>
<path d="M6.63972 25.4524V25.9718H4.82404V25.4524H6.63972ZM5.31096 24.656H5.95803V27.8005C5.95803 27.926 5.97678 28.0205 6.0143 28.084C6.05181 28.146 6.10014 28.1886 6.15929 28.2116C6.21989 28.2333 6.28553 28.2441 6.35622 28.2441C6.40816 28.2441 6.45361 28.2405 6.49256 28.2333C6.53152 28.2261 6.56181 28.2203 6.58345 28.216L6.70032 28.7505C6.66281 28.7649 6.60942 28.7794 6.54017 28.7938C6.47092 28.8097 6.38436 28.8183 6.28048 28.8198C6.11024 28.8226 5.95154 28.7923 5.80438 28.7289C5.65722 28.6654 5.53819 28.5673 5.4473 28.4345C5.35641 28.3018 5.31096 28.1352 5.31096 27.9346V24.656Z" fill="#0B0C0D"/>
<path d="M8.00257 26.8028V28.7765H7.3555V25.4524H7.9766V25.9934H8.01771C8.09418 25.8174 8.21393 25.676 8.37696 25.5693C8.54143 25.4625 8.74846 25.4091 8.99805 25.4091C9.22456 25.4091 9.42294 25.4567 9.59318 25.552C9.76342 25.6457 9.89544 25.7857 9.98921 25.9718C10.083 26.1579 10.1299 26.388 10.1299 26.6621V28.7765H9.48281V26.7401C9.48281 26.4991 9.42005 26.3108 9.29454 26.1752C9.16902 26.0382 8.99661 25.9696 8.77732 25.9696C8.62727 25.9696 8.49382 26.0021 8.37696 26.067C8.26154 26.1319 8.16992 26.2272 8.10211 26.3527C8.03575 26.4768 8.00257 26.6268 8.00257 26.8028Z" fill="#0B0C0D"/>
<path d="M12.4303 28.8436C12.1028 28.8436 11.8208 28.7736 11.5842 28.6336C11.349 28.4923 11.1672 28.2939 11.0388 28.0385C10.9118 27.7817 10.8484 27.4809 10.8484 27.1361C10.8484 26.7956 10.9118 26.4955 11.0388 26.2358C11.1672 25.9761 11.3461 25.7734 11.5755 25.6277C11.8063 25.482 12.0761 25.4091 12.3849 25.4091C12.5724 25.4091 12.7542 25.4401 12.9302 25.5022C13.1062 25.5642 13.2642 25.6616 13.4042 25.7943C13.5441 25.9271 13.6545 26.0995 13.7353 26.3116C13.8161 26.5222 13.8565 26.7783 13.8565 27.0798V27.3092H11.2141V26.8245H13.2224C13.2224 26.6542 13.1878 26.5034 13.1185 26.3722C13.0493 26.2394 12.9519 26.1348 12.8264 26.0584C12.7023 25.9819 12.5566 25.9437 12.3892 25.9437C12.2074 25.9437 12.0487 25.9884 11.9131 26.0778C11.7789 26.1658 11.6751 26.2813 11.6015 26.4241C11.5293 26.5655 11.4933 26.7191 11.4933 26.885V27.2638C11.4933 27.4859 11.5322 27.6749 11.6101 27.8308C11.6895 27.9866 11.7998 28.1056 11.9412 28.1878C12.0826 28.2686 12.2478 28.309 12.4368 28.309C12.5594 28.309 12.6713 28.2917 12.7723 28.2571C12.8732 28.221 12.9605 28.1676 13.0341 28.0969C13.1077 28.0263 13.164 27.939 13.2029 27.8351L13.8153 27.9455C13.7663 28.1258 13.6783 28.2838 13.5513 28.4194C13.4258 28.5536 13.2678 28.6582 13.0774 28.7332C12.8884 28.8068 12.6727 28.8436 12.4303 28.8436Z" fill="#0B0C0D"/>
<path d="M17.0653 26.2639L16.4788 26.3678C16.4543 26.2928 16.4153 26.2214 16.362 26.1536C16.31 26.0858 16.2393 26.0302 16.1499 25.9869C16.0604 25.9437 15.9486 25.922 15.8144 25.922C15.6312 25.922 15.4783 25.9631 15.3557 26.0454C15.233 26.1262 15.1717 26.2308 15.1717 26.3592C15.1717 26.4703 15.2128 26.5597 15.2951 26.6275C15.3773 26.6953 15.51 26.7509 15.6933 26.7942L16.2213 26.9153C16.5272 26.986 16.7551 27.095 16.9051 27.2421C17.0552 27.3893 17.1302 27.5804 17.1302 27.8156C17.1302 28.0147 17.0725 28.1922 16.9571 28.348C16.8431 28.5024 16.6837 28.6235 16.4788 28.7115C16.2754 28.7996 16.0395 28.8436 15.7712 28.8436C15.3989 28.8436 15.0952 28.7642 14.8601 28.6055C14.6249 28.4454 14.4806 28.2181 14.4272 27.9238L15.0527 27.8286C15.0916 27.9916 15.1717 28.115 15.2929 28.1987C15.4141 28.2809 15.5721 28.322 15.7668 28.322C15.9789 28.322 16.1484 28.278 16.2754 28.19C16.4024 28.1006 16.4658 27.9916 16.4658 27.8632C16.4658 27.7593 16.4269 27.6721 16.349 27.6014C16.2725 27.5307 16.1549 27.4773 15.9962 27.4412L15.4336 27.3179C15.1234 27.2472 14.894 27.1346 14.7454 26.9803C14.5982 26.8259 14.5246 26.6304 14.5246 26.3938C14.5246 26.1976 14.5795 26.0259 14.6891 25.8787C14.7988 25.7316 14.9502 25.6169 15.1436 25.5346C15.3369 25.451 15.5584 25.4091 15.8079 25.4091C16.1672 25.4091 16.45 25.487 16.6563 25.6429C16.8626 25.7972 16.9989 26.0043 17.0653 26.2639Z" fill="#0B0C0D"/>
<path d="M20.3325 26.2639L19.7461 26.3678C19.7215 26.2928 19.6826 26.2214 19.6292 26.1536C19.5773 26.0858 19.5066 26.0302 19.4171 25.9869C19.3277 25.9437 19.2159 25.922 19.0817 25.922C18.8985 25.922 18.7455 25.9631 18.6229 26.0454C18.5003 26.1262 18.439 26.2308 18.439 26.3592C18.439 26.4703 18.4801 26.5597 18.5623 26.6275C18.6445 26.6953 18.7773 26.7509 18.9605 26.7942L19.4885 26.9153C19.7944 26.986 20.0224 27.095 20.1724 27.2421C20.3225 27.3893 20.3975 27.5804 20.3975 27.8156C20.3975 28.0147 20.3398 28.1922 20.2243 28.348C20.1104 28.5024 19.9509 28.6235 19.7461 28.7115C19.5427 28.7996 19.3068 28.8436 19.0384 28.8436C18.6662 28.8436 18.3625 28.7642 18.1273 28.6055C17.8922 28.4454 17.7479 28.2181 17.6945 27.9238L18.3199 27.8286C18.3589 27.9916 18.439 28.115 18.5601 28.1987C18.6813 28.2809 18.8393 28.322 19.0341 28.322C19.2462 28.322 19.4157 28.278 19.5427 28.19C19.6696 28.1006 19.7331 27.9916 19.7331 27.8632C19.7331 27.7593 19.6941 27.6721 19.6162 27.6014C19.5398 27.5307 19.4222 27.4773 19.2635 27.4412L18.7008 27.3179C18.3906 27.2472 18.1612 27.1346 18.0126 26.9803C17.8655 26.8259 17.7919 26.6304 17.7919 26.3938C17.7919 26.1976 17.8467 26.0259 17.9564 25.8787C18.066 25.7316 18.2175 25.6169 18.4108 25.5346C18.6042 25.451 18.8256 25.4091 19.0752 25.4091C19.4344 25.4091 19.7172 25.487 19.9235 25.6429C20.1298 25.7972 20.2662 26.0043 20.3325 26.2639Z" fill="#0B0C0D"/>
<path d="M22.7217 28.7765V25.4524H23.3688V28.7765H22.7217ZM23.0485 24.9395C22.936 24.9395 22.8393 24.902 22.7585 24.827C22.6792 24.7505 22.6395 24.6596 22.6395 24.5543C22.6395 24.4475 22.6792 24.3567 22.7585 24.2816C22.8393 24.2052 22.936 24.1669 23.0485 24.1669C23.161 24.1669 23.257 24.2052 23.3363 24.2816C23.4171 24.3567 23.4575 24.4475 23.4575 24.5543C23.4575 24.6596 23.4171 24.7505 23.3363 24.827C23.257 24.902 23.161 24.9395 23.0485 24.9395Z" fill="#0B0C0D"/>
<path d="M24.8864 26.8028V28.7765H24.2393V25.4524H24.8604V25.9934H24.9015C24.978 25.8174 25.0977 25.676 25.2608 25.5693C25.4252 25.4625 25.6323 25.4091 25.8819 25.4091C26.1084 25.4091 26.3067 25.4567 26.477 25.552C26.6472 25.6457 26.7792 25.7857 26.873 25.9718C26.9668 26.1579 27.0137 26.388 27.0137 26.6621V28.7765H26.3666V26.7401C26.3666 26.4991 26.3039 26.3108 26.1783 26.1752C26.0528 26.0382 25.8804 25.9696 25.6611 25.9696C25.5111 25.9696 25.3776 26.0021 25.2608 26.067C25.1453 26.1319 25.0537 26.2272 24.9859 26.3527C24.9195 26.4768 24.8864 26.6268 24.8864 26.8028Z" fill="#0B0C0D"/>
<path d="M29.9033 30.023C29.8066 30.023 29.7186 30.0151 29.6393 29.9992C29.5599 29.9848 29.5008 29.9689 29.4618 29.9516L29.6176 29.4214C29.7359 29.4531 29.8413 29.4668 29.9336 29.4625C30.0259 29.4582 30.1074 29.4235 30.1781 29.3586C30.2503 29.2937 30.3138 29.1877 30.3686 29.0405L30.4487 28.8198L29.2324 25.4524H29.9249L30.7668 28.032H30.8014L31.6432 25.4524H32.3379L30.968 29.2201C30.9046 29.3932 30.8238 29.5397 30.7257 29.6594C30.6276 29.7806 30.5107 29.8715 30.3751 29.9321C30.2395 29.9927 30.0822 30.023 29.9033 30.023Z" fill="#0B0C0D"/>
<path d="M34.2331 28.8436C33.9215 28.8436 33.6495 28.7721 33.4173 28.6293C33.185 28.4865 33.0046 28.2867 32.8762 28.0299C32.7478 27.773 32.6836 27.473 32.6836 27.1296C32.6836 26.7848 32.7478 26.4832 32.8762 26.225C33.0046 25.9667 33.185 25.7662 33.4173 25.6234C33.6495 25.4805 33.9215 25.4091 34.2331 25.4091C34.5448 25.4091 34.8167 25.4805 35.049 25.6234C35.2813 25.7662 35.4616 25.9667 35.59 26.225C35.7184 26.4832 35.7826 26.7848 35.7826 27.1296C35.7826 27.473 35.7184 27.773 35.59 28.0299C35.4616 28.2867 35.2813 28.4865 35.049 28.6293C34.8167 28.7721 34.5448 28.8436 34.2331 28.8436ZM34.2353 28.3004C34.4373 28.3004 34.6046 28.247 34.7374 28.1402C34.8701 28.0335 34.9682 27.8914 35.0317 27.7139C35.0966 27.5364 35.1291 27.341 35.1291 27.1274C35.1291 26.9153 35.0966 26.7206 35.0317 26.5431C34.9682 26.3642 34.8701 26.2207 34.7374 26.1125C34.6046 26.0043 34.4373 25.9502 34.2353 25.9502C34.0319 25.9502 33.8631 26.0043 33.7289 26.1125C33.5962 26.2207 33.4973 26.3642 33.4324 26.5431C33.3689 26.7206 33.3372 26.9153 33.3372 27.1274C33.3372 27.341 33.3689 27.5364 33.4324 27.7139C33.4973 27.8914 33.5962 28.0335 33.7289 28.1402C33.8631 28.247 34.0319 28.3004 34.2353 28.3004Z" fill="#0B0C0D"/>
<path d="M38.6106 27.3979V25.4524H39.2598V28.7765H38.6236V28.2008H38.5889C38.5125 28.3783 38.3898 28.5262 38.221 28.6445C38.0537 28.7613 37.8452 28.8198 37.5956 28.8198C37.3821 28.8198 37.1931 28.7729 37.0286 28.6791C36.8656 28.5839 36.7372 28.4432 36.6434 28.2571C36.5511 28.071 36.5049 27.8409 36.5049 27.5667V25.4524H37.152V27.4888C37.152 27.7153 37.2147 27.8957 37.3402 28.0299C37.4658 28.164 37.6288 28.2311 37.8293 28.2311C37.9505 28.2311 38.071 28.2008 38.1907 28.1402C38.3119 28.0796 38.4122 27.988 38.4915 27.8654C38.5723 27.7428 38.612 27.5869 38.6106 27.3979Z" fill="#0B0C0D"/>
<path d="M40.1292 28.7765V25.4524H40.7547V25.9805H40.7893C40.8499 25.8016 40.9566 25.6609 41.1096 25.5585C41.2639 25.4546 41.4385 25.4026 41.6333 25.4026C41.6737 25.4026 41.7213 25.4041 41.7761 25.407C41.8324 25.4098 41.8764 25.4135 41.9081 25.4178V26.0367C41.8822 26.0295 41.836 26.0216 41.7696 26.0129C41.7033 26.0028 41.6369 25.9978 41.5705 25.9978C41.4176 25.9978 41.2813 26.0302 41.1615 26.0951C41.0432 26.1586 40.9494 26.2474 40.8802 26.3613C40.8109 26.4739 40.7763 26.6023 40.7763 26.7465V28.7765H40.1292Z" fill="#0B0C0D"/>
<path d="M44.0809 30.023V25.4524H44.7128V25.9913H44.7669C44.8044 25.922 44.8585 25.8419 44.9292 25.7511C44.9999 25.6602 45.098 25.5808 45.2235 25.513C45.3491 25.4438 45.515 25.4091 45.7213 25.4091C45.9896 25.4091 46.2291 25.4769 46.4398 25.6126C46.6504 25.7482 46.8156 25.9437 46.9353 26.199C47.0565 26.4544 47.1171 26.7617 47.1171 27.1209C47.1171 27.4802 47.0573 27.7882 46.9375 28.045C46.8178 28.3004 46.6533 28.4973 46.4441 28.6358C46.2349 28.7729 45.9961 28.8414 45.7278 28.8414C45.5258 28.8414 45.3606 28.8075 45.2322 28.7397C45.1052 28.6719 45.0057 28.5925 44.9335 28.5016C44.8614 28.4107 44.8059 28.3299 44.7669 28.2593H44.728V30.023H44.0809ZM44.715 27.1144C44.715 27.3482 44.7489 27.553 44.8167 27.729C44.8845 27.9051 44.9826 28.0428 45.111 28.1424C45.2394 28.2405 45.3967 28.2895 45.5828 28.2895C45.7761 28.2895 45.9377 28.2383 46.0675 28.1359C46.1974 28.032 46.2955 27.8914 46.3619 27.7139C46.4297 27.5364 46.4636 27.3366 46.4636 27.1144C46.4636 26.8951 46.4304 26.6982 46.364 26.5236C46.2991 26.3491 46.201 26.2113 46.0697 26.1103C45.9399 26.0093 45.7775 25.9588 45.5828 25.9588C45.3952 25.9588 45.2365 26.0071 45.1067 26.1038C44.9783 26.2005 44.8809 26.3354 44.8145 26.5085C44.7481 26.6816 44.715 26.8836 44.715 27.1144Z" fill="#0B0C0D"/>
<path d="M49.2423 28.8436C48.9306 28.8436 48.6587 28.7721 48.4264 28.6293C48.1941 28.4865 48.0138 28.2867 47.8854 28.0299C47.757 27.773 47.6928 27.473 47.6928 27.1296C47.6928 26.7848 47.757 26.4832 47.8854 26.225C48.0138 25.9667 48.1941 25.7662 48.4264 25.6234C48.6587 25.4805 48.9306 25.4091 49.2423 25.4091C49.5539 25.4091 49.8259 25.4805 50.0581 25.6234C50.2904 25.7662 50.4708 25.9667 50.5992 26.225C50.7276 26.4832 50.7918 26.7848 50.7918 27.1296C50.7918 27.473 50.7276 27.773 50.5992 28.0299C50.4708 28.2867 50.2904 28.4865 50.0581 28.6293C49.8259 28.7721 49.5539 28.8436 49.2423 28.8436ZM49.2444 28.3004C49.4464 28.3004 49.6138 28.247 49.7465 28.1402C49.8792 28.0335 49.9773 27.8914 50.0408 27.7139C50.1058 27.5364 50.1382 27.341 50.1382 27.1274C50.1382 26.9153 50.1058 26.7206 50.0408 26.5431C49.9773 26.3642 49.8792 26.2207 49.7465 26.1125C49.6138 26.0043 49.4464 25.9502 49.2444 25.9502C49.041 25.9502 48.8722 26.0043 48.738 26.1125C48.6053 26.2207 48.5065 26.3642 48.4416 26.5431C48.3781 26.7206 48.3463 26.9153 48.3463 27.1274C48.3463 27.341 48.3781 27.5364 48.4416 27.7139C48.5065 27.8914 48.6053 28.0335 48.738 28.1402C48.8722 28.247 49.041 28.3004 49.2444 28.3004Z" fill="#0B0C0D"/>
<path d="M52.9142 28.8436C52.5925 28.8436 52.3155 28.7707 52.0832 28.625C51.8524 28.4778 51.6749 28.2751 51.5508 28.0169C51.4268 27.7586 51.3647 27.4629 51.3647 27.1296C51.3647 26.792 51.4282 26.4941 51.5552 26.2358C51.6821 25.9761 51.861 25.7734 52.0919 25.6277C52.3227 25.482 52.5947 25.4091 52.9077 25.4091C53.1602 25.4091 53.3853 25.456 53.5829 25.5498C53.7806 25.6421 53.94 25.772 54.0612 25.9393C54.1838 26.1067 54.2567 26.3022 54.2798 26.5258H53.65C53.6154 26.37 53.536 26.2358 53.412 26.1233C53.2893 26.0107 53.1249 25.9545 52.9185 25.9545C52.7382 25.9545 52.5802 26.0021 52.4446 26.0973C52.3104 26.1911 52.2058 26.3253 52.1308 26.4998C52.0558 26.673 52.0183 26.8778 52.0183 27.1144C52.0183 27.3568 52.0551 27.566 52.1286 27.742C52.2022 27.918 52.3061 28.0544 52.4403 28.151C52.5759 28.2477 52.7353 28.296 52.9185 28.296C53.0412 28.296 53.1523 28.2737 53.2518 28.229C53.3528 28.1828 53.4372 28.1171 53.505 28.032C53.5743 27.9469 53.6226 27.8445 53.65 27.7247H54.2798C54.2567 27.9397 54.1867 28.1316 54.0699 28.3004C53.953 28.4692 53.7965 28.6019 53.6002 28.6986C53.4055 28.7952 53.1768 28.8436 52.9142 28.8436Z" fill="#0B0C0D"/>
<path d="M55.5669 27.649L55.5625 26.8591H55.6751L56.9995 25.4524H57.7743L56.2637 27.0538H56.162L55.5669 27.649ZM54.9717 28.7765V24.3444H55.6188V28.7765H54.9717ZM57.0709 28.7765L55.8807 27.1967L56.3265 26.7444L57.8651 28.7765H57.0709Z" fill="#0B0C0D"/>
<path d="M59.6597 28.8436C59.3322 28.8436 59.0502 28.7736 58.8136 28.6336C58.5784 28.4923 58.3966 28.2939 58.2682 28.0385C58.1413 27.7817 58.0778 27.4809 58.0778 27.1361C58.0778 26.7956 58.1413 26.4955 58.2682 26.2358C58.3966 25.9761 58.5755 25.7734 58.8049 25.6277C59.0358 25.482 59.3055 25.4091 59.6143 25.4091C59.8018 25.4091 59.9836 25.4401 60.1596 25.5022C60.3357 25.5642 60.4936 25.6616 60.6336 25.7943C60.7735 25.9271 60.8839 26.0995 60.9647 26.3116C61.0455 26.5222 61.0859 26.7783 61.0859 27.0798V27.3092H58.4435V26.8245H60.4518C60.4518 26.6542 60.4172 26.5034 60.3479 26.3722C60.2787 26.2394 60.1813 26.1348 60.0558 26.0584C59.9317 25.9819 59.786 25.9437 59.6186 25.9437C59.4368 25.9437 59.2781 25.9884 59.1425 26.0778C59.0083 26.1658 58.9045 26.2813 58.8309 26.4241C58.7587 26.5655 58.7227 26.7191 58.7227 26.885V27.2638C58.7227 27.4859 58.7616 27.6749 58.8395 27.8308C58.9189 27.9866 59.0293 28.1056 59.1706 28.1878C59.312 28.2686 59.4772 28.309 59.6662 28.309C59.7889 28.309 59.9007 28.2917 60.0017 28.2571C60.1026 28.221 60.1899 28.1676 60.2635 28.0969C60.3371 28.0263 60.3934 27.939 60.4323 27.8351L61.0448 27.9455C60.9957 28.1258 60.9077 28.2838 60.7807 28.4194C60.6552 28.5536 60.4972 28.6582 60.3068 28.7332C60.1178 28.8068 59.9021 28.8436 59.6597 28.8436Z" fill="#0B0C0D"/>
<path d="M63.3555 25.4524V25.9718H61.5398V25.4524H63.3555ZM62.0267 24.656H62.6738V27.8005C62.6738 27.926 62.6925 28.0205 62.7301 28.084C62.7676 28.146 62.8159 28.1886 62.875 28.2116C62.9356 28.2333 63.0013 28.2441 63.072 28.2441C63.1239 28.2441 63.1694 28.2405 63.2083 28.2333C63.2473 28.2261 63.2776 28.2203 63.2992 28.216L63.4161 28.7505C63.3786 28.7649 63.3252 28.7794 63.2559 28.7938C63.1867 28.8097 63.1001 28.8183 62.9962 28.8198C62.826 28.8226 62.6673 28.7923 62.5201 28.7289C62.373 28.6654 62.254 28.5673 62.1631 28.4345C62.0722 28.3018 62.0267 28.1352 62.0267 27.9346V24.656Z" fill="#0B0C0D"/>
<path d="M9.62072 6.57648L2.93897 22.2471H0L6.68175 6.57648H9.62072Z" fill="#E02418"/>
<path d="M15.6706 6.57648L8.98884 22.2471H6.04987L12.7316 6.57648H15.6706Z" fill="#E02418"/>
</svg>
