<svg width="164" height="150" viewBox="0 0 164 150" fill="none" xmlns="http://www.w3.org/2000/svg">
<rect width="164" height="150" rx="16" fill="url(#paint0_linear_327_1796)"/>
<rect x="81" y="16" width="71" height="25" rx="12.5" fill="white"/>
<path d="M97.646 31.712H100.936V33H96.05V23.27H97.646V31.712ZM103.083 24.264C102.793 24.264 102.551 24.166 102.355 23.97C102.159 23.774 102.061 23.5313 102.061 23.242C102.061 22.9527 102.159 22.71 102.355 22.514C102.551 22.318 102.793 22.22 103.083 22.22C103.363 22.22 103.601 22.318 103.797 22.514C103.993 22.71 104.091 22.9527 104.091 23.242C104.091 23.5313 103.993 23.774 103.797 23.97C103.601 24.166 103.363 24.264 103.083 24.264ZM103.867 25.286V33H102.271V25.286H103.867ZM108.944 31.572L111.128 25.286H112.822L109.882 33H107.978L105.052 25.286H106.76L108.944 31.572ZM121.099 28.954C121.099 29.2433 121.08 29.5047 121.043 29.738H115.149C115.195 30.354 115.424 30.8487 115.835 31.222C116.245 31.5953 116.749 31.782 117.347 31.782C118.205 31.782 118.812 31.4227 119.167 30.704H120.889C120.655 31.4133 120.231 31.9967 119.615 32.454C119.008 32.902 118.252 33.126 117.347 33.126C116.609 33.126 115.947 32.9627 115.359 32.636C114.78 32.3 114.323 31.8333 113.987 31.236C113.66 30.6293 113.497 29.9293 113.497 29.136C113.497 28.3427 113.655 27.6473 113.973 27.05C114.299 26.4433 114.752 25.9767 115.331 25.65C115.919 25.3233 116.591 25.16 117.347 25.16C118.075 25.16 118.723 25.3187 119.293 25.636C119.862 25.9533 120.305 26.4013 120.623 26.98C120.94 27.5493 121.099 28.2073 121.099 28.954ZM119.433 28.45C119.423 27.862 119.213 27.3907 118.803 27.036C118.392 26.6813 117.883 26.504 117.277 26.504C116.726 26.504 116.255 26.6813 115.863 27.036C115.471 27.3813 115.237 27.8527 115.163 28.45H119.433Z" fill="#E02418"/>
<circle cx="132" cy="28.5" r="6" fill="#E02418"/>
<path d="M19.553 41.573V51.994H24.755V54H17.377V41.573H19.553ZM27.2555 43.919C26.5415 43.919 25.9805 43.358 25.9805 42.661C25.9805 41.964 26.5415 41.42 27.2555 41.42C27.9355 41.42 28.4965 41.964 28.4965 42.661C28.4965 43.358 27.9355 43.919 27.2555 43.919ZM26.2185 54V45.602H28.2925V54H26.2185ZM32.8153 54L29.4833 45.602H31.6933L33.1553 49.461C33.5123 50.464 33.8013 51.331 33.9033 51.79C34.0223 51.263 34.3283 50.379 34.6853 49.461L36.2153 45.602H38.3573L34.8553 54H32.8153ZM42.8915 54.221C40.3925 54.221 38.6415 52.402 38.6415 49.801C38.6415 47.166 40.3585 45.347 42.8235 45.347C45.3395 45.347 46.9375 47.03 46.9375 49.648V50.277L40.6135 50.294C40.7665 51.773 41.5485 52.521 42.9255 52.521C44.0645 52.521 44.8125 52.079 45.0505 51.28H46.9715C46.6145 53.116 45.0845 54.221 42.8915 54.221ZM42.8405 47.047C41.6165 47.047 40.8685 47.71 40.6645 48.968H44.8805C44.8805 47.812 44.0815 47.047 42.8405 47.047ZM22.29 71.716H19.553V76H17.377V63.573H22.29C24.789 63.573 26.404 65.205 26.404 67.636C26.404 70.033 24.772 71.716 22.29 71.716ZM21.865 65.511H19.553V69.778H21.831C23.327 69.778 24.126 68.979 24.126 67.619C24.126 66.259 23.31 65.511 21.865 65.511ZM31.2704 76.221C28.7714 76.221 27.0204 74.402 27.0204 71.801C27.0204 69.166 28.7374 67.347 31.2024 67.347C33.7184 67.347 35.3164 69.03 35.3164 71.648V72.277L28.9924 72.294C29.1454 73.773 29.9274 74.521 31.3044 74.521C32.4434 74.521 33.1914 74.079 33.4294 73.28H35.3504C34.9934 75.116 33.4634 76.221 31.2704 76.221ZM31.2194 69.047C29.9954 69.047 29.2474 69.71 29.0434 70.968H33.2594C33.2594 69.812 32.4604 69.047 31.2194 69.047ZM42.2463 67.568V69.489H41.4813C39.9853 69.489 39.0503 70.288 39.0503 71.92V76H36.9763V67.619H38.9313L39.0503 68.843C39.4073 68.01 40.2063 67.449 41.3283 67.449C41.6173 67.449 41.9063 67.483 42.2463 67.568ZM43.0041 73.45H44.9761C44.9931 74.181 45.5371 74.64 46.4891 74.64C47.4581 74.64 47.9851 74.249 47.9851 73.637C47.9851 73.212 47.7641 72.906 47.0161 72.736L45.5031 72.379C43.9901 72.039 43.2591 71.325 43.2591 69.982C43.2591 68.333 44.6531 67.347 46.5911 67.347C48.4781 67.347 49.7531 68.435 49.7701 70.067H47.7981C47.7811 69.353 47.3051 68.894 46.5061 68.894C45.6901 68.894 45.2141 69.268 45.2141 69.897C45.2141 70.373 45.5881 70.679 46.3021 70.849L47.8151 71.206C49.2261 71.529 49.9401 72.175 49.9401 73.467C49.9401 75.167 48.4951 76.221 46.4211 76.221C44.3301 76.221 43.0041 75.099 43.0041 73.45ZM51.0262 71.784C51.0262 69.166 52.9132 67.364 55.5142 67.364C58.1152 67.364 60.0022 69.166 60.0022 71.784C60.0022 74.402 58.1152 76.204 55.5142 76.204C52.9132 76.204 51.0262 74.402 51.0262 71.784ZM53.1002 71.784C53.1002 73.314 54.0862 74.351 55.5142 74.351C56.9422 74.351 57.9282 73.314 57.9282 71.784C57.9282 70.254 56.9422 69.217 55.5142 69.217C54.0862 69.217 53.1002 70.254 53.1002 71.784ZM63.7202 76H61.6462V67.602H63.5672L63.7372 68.69C64.2642 67.84 65.2842 67.347 66.4232 67.347C68.5312 67.347 69.6192 68.656 69.6192 70.832V76H67.5452V71.325C67.5452 69.914 66.8482 69.234 65.7772 69.234C64.5022 69.234 63.7202 70.118 63.7202 71.478V76ZM74.1559 76.221C72.3709 76.221 71.2829 75.184 71.2829 73.603C71.2829 72.056 72.4049 71.087 74.3939 70.934L76.9099 70.747V70.56C76.9099 69.421 76.2299 68.962 75.1759 68.962C73.9519 68.962 73.2719 69.472 73.2719 70.356H71.5039C71.5039 68.537 72.9999 67.347 75.2779 67.347C77.5389 67.347 78.9329 68.571 78.9329 70.9V76H77.1139L76.9609 74.759C76.6039 75.626 75.4649 76.221 74.1559 76.221ZM74.8359 74.657C76.1109 74.657 76.9269 73.892 76.9269 72.6V72.158L75.1759 72.294C73.8839 72.413 73.3909 72.838 73.3909 73.518C73.3909 74.283 73.9009 74.657 74.8359 74.657ZM83.0614 76H81.0044V63.352H83.0614V76ZM16.289 87.579V85.573H25.741V87.579H22.103V98H19.927V87.579H16.289ZM31.3556 89.568V91.489H30.5906C29.0946 91.489 28.1596 92.288 28.1596 93.92V98H26.0856V89.619H28.0406L28.1596 90.843C28.5166 90.01 29.3156 89.449 30.4376 89.449C30.7266 89.449 31.0156 89.483 31.3556 89.568ZM34.9264 98.221C33.1414 98.221 32.0534 97.184 32.0534 95.603C32.0534 94.056 33.1754 93.087 35.1644 92.934L37.6804 92.747V92.56C37.6804 91.421 37.0004 90.962 35.9464 90.962C34.7224 90.962 34.0424 91.472 34.0424 92.356H32.2744C32.2744 90.537 33.7704 89.347 36.0484 89.347C38.3094 89.347 39.7034 90.571 39.7034 92.9V98H37.8844L37.7314 96.759C37.3744 97.626 36.2354 98.221 34.9264 98.221ZM35.6064 96.657C36.8814 96.657 37.6974 95.892 37.6974 94.6V94.158L35.9464 94.294C34.6544 94.413 34.1614 94.838 34.1614 95.518C34.1614 96.283 34.6714 96.657 35.6064 96.657ZM42.7779 87.919C42.0639 87.919 41.5029 87.358 41.5029 86.661C41.5029 85.964 42.0639 85.42 42.7779 85.42C43.4579 85.42 44.0189 85.964 44.0189 86.661C44.0189 87.358 43.4579 87.919 42.7779 87.919ZM41.7409 98V89.602H43.8149V98H41.7409ZM48.0317 98H45.9577V89.602H47.8787L48.0487 90.69C48.5757 89.84 49.5957 89.347 50.7347 89.347C52.8427 89.347 53.9307 90.656 53.9307 92.832V98H51.8567V93.325C51.8567 91.914 51.1597 91.234 50.0887 91.234C48.8137 91.234 48.0317 92.118 48.0317 93.478V98ZM57.0055 87.919C56.2915 87.919 55.7305 87.358 55.7305 86.661C55.7305 85.964 56.2915 85.42 57.0055 85.42C57.6855 85.42 58.2465 85.964 58.2465 86.661C58.2465 87.358 57.6855 87.919 57.0055 87.919ZM55.9685 98V89.602H58.0425V98H55.9685ZM62.2593 98H60.1853V89.602H62.1063L62.2763 90.69C62.8033 89.84 63.8233 89.347 64.9623 89.347C67.0703 89.347 68.1583 90.656 68.1583 92.832V98H66.0843V93.325C66.0843 91.914 65.3873 91.234 64.3163 91.234C63.0413 91.234 62.2593 92.118 62.2593 93.478V98ZM69.72 93.614C69.72 91.166 71.318 89.33 73.715 89.33C74.973 89.33 75.959 89.857 76.452 90.758L76.571 89.602H78.492V97.575C78.492 100.38 76.809 102.131 74.089 102.131C71.675 102.131 70.026 100.754 69.771 98.51H71.845C71.981 99.598 72.814 100.244 74.089 100.244C75.517 100.244 76.435 99.343 76.435 97.949V96.555C75.908 97.337 74.871 97.83 73.664 97.83C71.284 97.83 69.72 96.045 69.72 93.614ZM71.811 93.563C71.811 94.974 72.712 96.028 74.072 96.028C75.5 96.028 76.384 95.025 76.384 93.563C76.384 92.135 75.517 91.149 74.072 91.149C72.695 91.149 71.811 92.186 71.811 93.563Z" fill="white"/>
<g clip-path="url(#clip0_327_1796)">
<path d="M129.361 121.514C131.216 122.114 132.908 122.724 134.639 123.195C135.665 123.474 135.998 124.013 135.881 125.051C135.598 127.577 135.35 130.105 135.138 132.634C135.052 133.656 134.582 134.12 133.597 133.971C132.661 133.831 132.003 133.416 132.13 132.277C132.314 130.611 132.419 128.937 132.664 127.281C132.813 126.252 132.432 125.85 131.505 125.594C129.618 125.068 127.738 124.496 125.906 123.808C125.001 123.468 124.464 123.682 123.832 124.337C123.832 124.337 121.648 126.85 115.719 132.556C115.423 132.841 114.766 133.458 113.816 133.542C113.238 133.594 112.756 133.432 112.448 133.296C112.27 133.13 112.044 132.864 112.01 132.513C111.952 131.92 112.476 131.42 112.708 131.202C115.106 128.969 118.831 125.013 121.797 121.916C122.368 121.319 122.832 120.43 122.975 119.612C123.454 116.846 123.762 114.052 124.147 111.27C124.413 109.339 125.201 108.742 127.062 109.105C128.202 109.329 129.345 109.576 130.463 109.894C132.2 110.384 132.616 111.134 132.089 112.87C131.228 115.704 130.314 118.518 129.367 121.517L129.361 121.514Z" fill="white"/>
<path d="M129.412 108.693C127.545 108.696 126.033 107.235 126.011 105.402C125.989 103.487 127.519 101.977 129.466 102C131.349 102.023 132.768 103.474 132.762 105.372C132.756 107.235 131.292 108.69 129.415 108.693H129.412Z" fill="white"/>
<path d="M132.956 112.25C132.772 111.426 132.632 110.802 132.448 109.972C136.802 109.946 139.996 109.975 140.762 110.027C140.889 110.036 141.247 110.066 141.555 110.316C141.619 110.368 142.044 110.712 141.997 111.205C141.956 111.627 141.6 111.87 141.482 111.948C141.111 112.201 140.711 112.201 140.59 112.201C139.787 112.201 136.897 112.234 132.953 112.25H132.956Z" fill="white"/>
<path d="M123.518 109.972C123.391 110.802 123.286 111.474 123.169 112.244C119.167 112.211 116.255 112.182 115.506 112.192C115.407 112.192 115.074 112.198 114.76 111.997C114.69 111.951 114.232 111.646 114.213 111.104C114.21 111.017 114.213 110.734 114.391 110.484C114.687 110.079 115.261 110.04 115.534 110.024C116.474 109.975 119.475 109.939 123.518 109.972Z" fill="white"/>
</g>
<defs>
<linearGradient id="paint0_linear_327_1796" x1="82" y1="0" x2="82" y2="150" gradientUnits="userSpaceOnUse">
<stop stop-color="#DB4B3D"/>
<stop offset="1" stop-color="#D03728"/>
</linearGradient>
<clipPath id="clip0_327_1796">
<rect width="30" height="32" fill="white" transform="translate(112 102)"/>
</clipPath>
</defs>
</svg>
