<svg width="164" height="150" viewBox="0 0 164 150" fill="none" xmlns="http://www.w3.org/2000/svg">
<rect width="164" height="150" rx="16" fill="url(#paint0_linear_327_1823)"/>
<path d="M18.29 27.716H15.553V32H13.377V19.573H18.29C20.789 19.573 22.404 21.205 22.404 23.636C22.404 26.033 20.772 27.716 18.29 27.716ZM17.865 21.511H15.553V25.778H17.831C19.327 25.778 20.126 24.979 20.126 23.619C20.126 22.259 19.31 21.511 17.865 21.511ZM27.2704 32.221C24.7714 32.221 23.0204 30.402 23.0204 27.801C23.0204 25.166 24.7374 23.347 27.2024 23.347C29.7184 23.347 31.3164 25.03 31.3164 27.648V28.277L24.9924 28.294C25.1454 29.773 25.9274 30.521 27.3044 30.521C28.4434 30.521 29.1914 30.079 29.4294 29.28H31.3504C30.9934 31.116 29.4634 32.221 27.2704 32.221ZM27.2194 25.047C25.9954 25.047 25.2474 25.71 25.0434 26.968H29.2594C29.2594 25.812 28.4604 25.047 27.2194 25.047ZM38.2463 23.568V25.489H37.4813C35.9853 25.489 35.0503 26.288 35.0503 27.92V32H32.9763V23.619H34.9313L35.0503 24.843C35.4073 24.01 36.2063 23.449 37.3283 23.449C37.6173 23.449 37.9063 23.483 38.2463 23.568ZM39.0041 29.45H40.9761C40.9931 30.181 41.5371 30.64 42.4891 30.64C43.4581 30.64 43.9851 30.249 43.9851 29.637C43.9851 29.212 43.7641 28.906 43.0161 28.736L41.5031 28.379C39.9901 28.039 39.2591 27.325 39.2591 25.982C39.2591 24.333 40.6531 23.347 42.5911 23.347C44.4781 23.347 45.7531 24.435 45.7701 26.067H43.7981C43.7811 25.353 43.3051 24.894 42.5061 24.894C41.6901 24.894 41.2141 25.268 41.2141 25.897C41.2141 26.373 41.5881 26.679 42.3021 26.849L43.8151 27.206C45.2261 27.529 45.9401 28.175 45.9401 29.467C45.9401 31.167 44.4951 32.221 42.4211 32.221C40.3301 32.221 39.0041 31.099 39.0041 29.45ZM47.0262 27.784C47.0262 25.166 48.9132 23.364 51.5142 23.364C54.1152 23.364 56.0022 25.166 56.0022 27.784C56.0022 30.402 54.1152 32.204 51.5142 32.204C48.9132 32.204 47.0262 30.402 47.0262 27.784ZM49.1002 27.784C49.1002 29.314 50.0862 30.351 51.5142 30.351C52.9422 30.351 53.9282 29.314 53.9282 27.784C53.9282 26.254 52.9422 25.217 51.5142 25.217C50.0862 25.217 49.1002 26.254 49.1002 27.784ZM59.7202 32H57.6462V23.602H59.5672L59.7372 24.69C60.2642 23.84 61.2842 23.347 62.4232 23.347C64.5312 23.347 65.6192 24.656 65.6192 26.832V32H63.5452V27.325C63.5452 25.914 62.8482 25.234 61.7772 25.234C60.5022 25.234 59.7202 26.118 59.7202 27.478V32ZM70.1559 32.221C68.3709 32.221 67.2829 31.184 67.2829 29.603C67.2829 28.056 68.4049 27.087 70.3939 26.934L72.9099 26.747V26.56C72.9099 25.421 72.2299 24.962 71.1759 24.962C69.9519 24.962 69.2719 25.472 69.2719 26.356H67.5039C67.5039 24.537 68.9999 23.347 71.2779 23.347C73.5389 23.347 74.9329 24.571 74.9329 26.9V32H73.1139L72.9609 30.759C72.6039 31.626 71.4649 32.221 70.1559 32.221ZM70.8359 30.657C72.1109 30.657 72.9269 29.892 72.9269 28.6V28.158L71.1759 28.294C69.8839 28.413 69.3909 28.838 69.3909 29.518C69.3909 30.283 69.9009 30.657 70.8359 30.657ZM79.0614 32H77.0044V19.352H79.0614V32ZM12.289 40.579V38.573H21.741V40.579H18.103V51H15.927V40.579H12.289ZM27.3556 42.568V44.489H26.5906C25.0946 44.489 24.1596 45.288 24.1596 46.92V51H22.0856V42.619H24.0406L24.1596 43.843C24.5166 43.01 25.3156 42.449 26.4376 42.449C26.7266 42.449 27.0156 42.483 27.3556 42.568ZM30.9264 51.221C29.1414 51.221 28.0534 50.184 28.0534 48.603C28.0534 47.056 29.1754 46.087 31.1644 45.934L33.6804 45.747V45.56C33.6804 44.421 33.0004 43.962 31.9464 43.962C30.7224 43.962 30.0424 44.472 30.0424 45.356H28.2744C28.2744 43.537 29.7704 42.347 32.0484 42.347C34.3094 42.347 35.7034 43.571 35.7034 45.9V51H33.8844L33.7314 49.759C33.3744 50.626 32.2354 51.221 30.9264 51.221ZM31.6064 49.657C32.8814 49.657 33.6974 48.892 33.6974 47.6V47.158L31.9464 47.294C30.6544 47.413 30.1614 47.838 30.1614 48.518C30.1614 49.283 30.6714 49.657 31.6064 49.657ZM38.7779 40.919C38.0639 40.919 37.5029 40.358 37.5029 39.661C37.5029 38.964 38.0639 38.42 38.7779 38.42C39.4579 38.42 40.0189 38.964 40.0189 39.661C40.0189 40.358 39.4579 40.919 38.7779 40.919ZM37.7409 51V42.602H39.8149V51H37.7409ZM44.0317 51H41.9577V42.602H43.8787L44.0487 43.69C44.5757 42.84 45.5957 42.347 46.7347 42.347C48.8427 42.347 49.9307 43.656 49.9307 45.832V51H47.8567V46.325C47.8567 44.914 47.1597 44.234 46.0887 44.234C44.8137 44.234 44.0317 45.118 44.0317 46.478V51ZM53.0055 40.919C52.2915 40.919 51.7305 40.358 51.7305 39.661C51.7305 38.964 52.2915 38.42 53.0055 38.42C53.6855 38.42 54.2465 38.964 54.2465 39.661C54.2465 40.358 53.6855 40.919 53.0055 40.919ZM51.9685 51V42.602H54.0425V51H51.9685ZM58.2593 51H56.1853V42.602H58.1063L58.2763 43.69C58.8033 42.84 59.8233 42.347 60.9623 42.347C63.0703 42.347 64.1583 43.656 64.1583 45.832V51H62.0843V46.325C62.0843 44.914 61.3873 44.234 60.3163 44.234C59.0413 44.234 58.2593 45.118 58.2593 46.478V51ZM65.72 46.614C65.72 44.166 67.318 42.33 69.715 42.33C70.973 42.33 71.959 42.857 72.452 43.758L72.571 42.602H74.492V50.575C74.492 53.38 72.809 55.131 70.089 55.131C67.675 55.131 66.026 53.754 65.771 51.51H67.845C67.981 52.598 68.814 53.244 70.089 53.244C71.517 53.244 72.435 52.343 72.435 50.949V49.555C71.908 50.337 70.871 50.83 69.664 50.83C67.284 50.83 65.72 49.045 65.72 46.614ZM67.811 46.563C67.811 47.974 68.712 49.028 70.072 49.028C71.5 49.028 72.384 48.025 72.384 46.563C72.384 45.135 71.517 44.149 70.072 44.149C68.695 44.149 67.811 45.186 67.811 46.563Z" fill="white"/>
<path d="M16.7387 72.175C16.7387 70.815 17.7247 69.897 19.5947 69.761L21.8897 69.574V69.404C21.8897 68.435 21.3457 67.942 20.3087 67.942C19.1867 67.942 18.5577 68.401 18.5577 69.217H16.9597C16.9597 67.568 18.3027 66.48 20.3937 66.48C22.5187 66.48 23.7257 67.653 23.7257 69.71V72.345C23.7257 72.991 24.0147 73.297 24.5927 73.297C25.5277 73.297 26.1567 72.056 26.1567 70.22C26.1567 66.956 23.7597 64.627 20.3767 64.627C16.9767 64.627 14.4607 67.194 14.4607 70.628C14.4607 74.079 16.9767 76.646 20.3767 76.646C21.6007 76.646 22.8417 76.221 23.9127 75.473L24.5077 76.629C23.3177 77.479 21.8897 77.921 20.3767 77.921C16.1947 77.921 13.0837 74.81 13.0837 70.628C13.0837 66.463 16.2117 63.352 20.3767 63.352C24.5247 63.352 27.5337 66.242 27.5337 70.22C27.5337 72.838 26.2757 74.555 24.3207 74.555C23.1477 74.555 22.3997 74.045 22.1617 73.11C21.8217 73.96 20.7167 74.555 19.4927 74.555C17.7757 74.555 16.7387 73.654 16.7387 72.175ZM18.6597 72.107C18.6597 72.787 19.1017 73.127 19.9857 73.127C21.1757 73.127 21.9067 72.43 21.9067 71.274V70.866L20.2917 71.002C19.1357 71.104 18.6597 71.444 18.6597 72.107ZM31.8574 76H29.7154V63.573H31.8744L37.7054 72.379V63.573H39.8474V76H37.7054L31.8574 67.194V76ZM46.0492 76.221C43.5502 76.221 41.7992 74.402 41.7992 71.801C41.7992 69.166 43.5162 67.347 45.9812 67.347C48.4972 67.347 50.0952 69.03 50.0952 71.648V72.277L43.7712 72.294C43.9242 73.773 44.7062 74.521 46.0832 74.521C47.2222 74.521 47.9702 74.079 48.2082 73.28H50.1292C49.7722 75.116 48.2422 76.221 46.0492 76.221ZM45.9982 69.047C44.7742 69.047 44.0262 69.71 43.8222 70.968H48.0382C48.0382 69.812 47.2392 69.047 45.9982 69.047ZM54.1711 76.221C52.3861 76.221 51.2981 75.184 51.2981 73.603C51.2981 72.056 52.4201 71.087 54.4091 70.934L56.9251 70.747V70.56C56.9251 69.421 56.2451 68.962 55.1911 68.962C53.9671 68.962 53.2871 69.472 53.2871 70.356H51.5191C51.5191 68.537 53.0151 67.347 55.2931 67.347C57.5541 67.347 58.9481 68.571 58.9481 70.9V76H57.1291L56.9761 74.759C56.6191 75.626 55.4801 76.221 54.1711 76.221ZM54.8511 74.657C56.1261 74.657 56.9421 73.892 56.9421 72.6V72.158L55.1911 72.294C53.8991 72.413 53.4061 72.838 53.4061 73.518C53.4061 74.283 53.9161 74.657 54.8511 74.657ZM66.2556 67.568V69.489H65.4906C63.9946 69.489 63.0596 70.288 63.0596 71.92V76H60.9856V67.619H62.9406L63.0596 68.843C63.4166 68.01 64.2156 67.449 65.3376 67.449C65.6266 67.449 65.9156 67.483 66.2556 67.568ZM69.5804 76H67.6594V63.352H69.7334V68.826C70.2774 67.891 71.3994 67.33 72.6744 67.33C75.0714 67.33 76.5334 69.2 76.5334 71.852C76.5334 74.436 74.9524 76.221 72.5384 76.221C71.2804 76.221 70.2094 75.66 69.7164 74.691L69.5804 76ZM69.7504 71.767C69.7504 73.28 70.6854 74.317 72.1134 74.317C73.5754 74.317 74.4424 73.263 74.4424 71.767C74.4424 70.271 73.5754 69.2 72.1134 69.2C70.6854 69.2 69.7504 70.254 69.7504 71.767ZM77.1383 79.893V78.159H78.3793C79.1953 78.159 79.7053 77.972 80.0623 76.986L80.3003 76.357L76.9173 67.602H79.1103L81.2693 73.722L83.5473 67.602H85.6893L81.5753 77.87C80.9463 79.434 80.0623 80.08 78.6853 80.08C78.1073 80.08 77.5973 80.012 77.1383 79.893ZM97.1954 65.409C94.7304 65.409 93.3194 67.194 93.3194 69.88C93.3194 72.651 94.9174 74.164 97.2124 74.164C99.3714 74.164 100.68 72.974 100.68 70.985V70.934H96.9234V69.013H102.703V76H100.867L100.731 74.572C100.051 75.524 98.6404 76.187 96.9574 76.187C93.4724 76.187 91.0414 73.654 91.0414 69.829C91.0414 66.055 93.5064 63.369 97.2464 63.369C100.085 63.369 102.278 65.018 102.635 67.551H100.34C99.9494 66.089 98.6914 65.409 97.1954 65.409ZM104.016 79.893V78.159H105.257C106.073 78.159 106.583 77.972 106.94 76.986L107.178 76.357L103.795 67.602H105.988L108.147 73.722L110.425 67.602H112.567L108.453 77.87C107.824 79.434 106.94 80.08 105.563 80.08C104.985 80.08 104.475 80.012 104.016 79.893ZM115.819 76H113.745V67.602H115.649L115.819 68.588C116.244 67.891 117.094 67.347 118.301 67.347C119.576 67.347 120.46 67.976 120.902 68.945C121.327 67.976 122.313 67.347 123.588 67.347C125.628 67.347 126.75 68.571 126.75 70.509V76H124.693V71.053C124.693 69.846 124.047 69.217 123.061 69.217C122.058 69.217 121.293 69.863 121.293 71.24V76H119.219V71.036C119.219 69.863 118.59 69.234 117.604 69.234C116.618 69.234 115.819 69.88 115.819 71.24V76Z" fill="#F5F6FA"/>
<path d="M126 17.9286C128.216 17.9286 130.342 18.8091 131.909 20.3763C133.477 21.9436 134.357 24.0693 134.357 26.2857C134.357 29.8172 131.876 33.6657 126.977 37.8726C126.705 38.1066 126.357 38.2351 125.998 38.2348C125.639 38.2345 125.292 38.1053 125.02 37.8709L124.696 37.5897C120.015 33.4926 117.643 29.7383 117.643 26.2857C117.643 24.0693 118.523 21.9436 120.091 20.3763C121.658 18.8091 123.784 17.9286 126 17.9286ZM126 23.0714C125.148 23.0714 124.33 23.4101 123.727 24.0129C123.124 24.6157 122.786 25.4332 122.786 26.2857C122.786 27.1382 123.124 27.9558 123.727 28.5586C124.33 29.1614 125.148 29.5 126 29.5C126.852 29.5 127.67 29.1614 128.273 28.5586C128.876 27.9558 129.214 27.1382 129.214 26.2857C129.214 25.4332 128.876 24.6157 128.273 24.0129C127.67 23.4101 126.852 23.0714 126 23.0714Z" fill="white"/>
<path d="M19.056 129.248H18.024V131H16.896V129.248H12.408V128.204L16.5 122.324H18.024V128.204H19.056V129.248ZM13.68 128.204H16.896V123.572L13.68 128.204ZM23.004 131.144C21.228 131.144 20.076 130.016 20.076 128.288H21.24C21.24 129.404 21.924 130.088 23.028 130.088C24.204 130.088 24.96 129.308 24.96 128.132C24.96 127.016 24.252 126.188 23.04 126.188C22.308 126.188 21.636 126.536 21.24 127.028L20.244 126.776L21.3 122.324H25.644V123.404H22.152L21.576 125.708C22.032 125.36 22.608 125.18 23.256 125.18C25.02 125.18 26.16 126.416 26.16 128.084C26.16 129.884 24.876 131.144 23.004 131.144ZM32.0311 131H30.8791V122.324H32.0311L35.0191 129.62L38.0071 122.324H39.1831V131H38.0311V127.568C38.0311 125.948 38.0431 125.36 38.1031 124.748L35.5711 131H34.4671L31.9471 124.772C32.0071 125.192 32.0311 126.08 32.0311 127.292V131ZM41.5633 123.74C41.1553 123.74 40.8193 123.404 40.8193 122.996C40.8193 122.576 41.1553 122.252 41.5633 122.252C41.9713 122.252 42.3073 122.576 42.3073 122.996C42.3073 123.404 41.9713 123.74 41.5633 123.74ZM41.0113 131V125.132H42.1393V131H41.0113ZM44.9049 131H43.7769V125.132H44.7969L44.9169 126.032C45.2889 125.36 46.0329 124.964 46.8609 124.964C48.4089 124.964 49.1169 125.912 49.1169 127.412V131H47.9889V127.664C47.9889 126.476 47.4369 125.996 46.5729 125.996C45.5169 125.996 44.9049 126.752 44.9049 127.892V131ZM50.9793 131H49.8633L53.2473 122.336H54.3753L50.9793 131ZM54.879 124.664C54.879 123.176 56.079 122.168 57.867 122.168C59.523 122.168 60.591 123.092 60.687 124.592H59.499C59.439 123.728 58.827 123.224 57.855 123.224C56.763 123.224 56.055 123.776 56.055 124.628C56.055 125.324 56.451 125.744 57.267 125.936L58.695 126.272C60.111 126.596 60.831 127.364 60.831 128.588C60.831 130.148 59.619 131.144 57.771 131.144C56.007 131.144 54.831 130.22 54.759 128.732H55.959C55.983 129.56 56.679 130.088 57.771 130.088C58.923 130.088 59.655 129.548 59.655 128.684C59.655 128 59.283 127.568 58.455 127.376L57.027 127.052C55.611 126.728 54.879 125.912 54.879 124.664ZM64.6488 131.144C62.9208 131.144 61.7328 129.896 61.7328 128.072C61.7328 126.236 62.8968 124.964 64.6008 124.964C66.2688 124.964 67.3608 126.116 67.3608 127.856V128.276L62.8248 128.288C62.9088 129.524 63.5568 130.208 64.6728 130.208C65.5488 130.208 66.1248 129.848 66.3168 129.176H67.3728C67.0848 130.436 66.1008 131.144 64.6488 131.144ZM64.6008 125.912C63.6168 125.912 62.9928 126.5 62.8488 127.532H66.2328C66.2328 126.56 65.5968 125.912 64.6008 125.912ZM68.1407 129.296H69.2207C69.2207 129.896 69.6767 130.256 70.4207 130.256C71.2127 130.256 71.6687 129.932 71.6687 129.392C71.6687 128.996 71.4767 128.756 70.8647 128.6L69.8327 128.36C68.7887 128.108 68.2967 127.592 68.2967 126.728C68.2967 125.648 69.2087 124.964 70.5047 124.964C71.7887 124.964 72.6287 125.684 72.6527 126.8H71.5727C71.5487 126.212 71.1527 125.84 70.4687 125.84C69.7607 125.84 69.3647 126.152 69.3647 126.692C69.3647 127.088 69.6527 127.352 70.2287 127.496L71.2607 127.748C72.2567 127.988 72.7487 128.444 72.7487 129.32C72.7487 130.436 71.7887 131.144 70.3967 131.144C69.0167 131.144 68.1407 130.412 68.1407 129.296ZM73.5196 129.296H74.5996C74.5996 129.896 75.0556 130.256 75.7996 130.256C76.5916 130.256 77.0476 129.932 77.0476 129.392C77.0476 128.996 76.8556 128.756 76.2436 128.6L75.2116 128.36C74.1676 128.108 73.6756 127.592 73.6756 126.728C73.6756 125.648 74.5876 124.964 75.8836 124.964C77.1676 124.964 78.0076 125.684 78.0316 126.8H76.9516C76.9276 126.212 76.5316 125.84 75.8476 125.84C75.1396 125.84 74.7436 126.152 74.7436 126.692C74.7436 127.088 75.0316 127.352 75.6076 127.496L76.6396 127.748C77.6356 127.988 78.1276 128.444 78.1276 129.32C78.1276 130.436 77.1676 131.144 75.7756 131.144C74.3956 131.144 73.5196 130.412 73.5196 129.296ZM79.9305 123.74C79.5225 123.74 79.1865 123.404 79.1865 122.996C79.1865 122.576 79.5225 122.252 79.9305 122.252C80.3385 122.252 80.6745 122.576 80.6745 122.996C80.6745 123.404 80.3385 123.74 79.9305 123.74ZM79.3785 131V125.132H80.5065V131H79.3785ZM81.7601 128.06C81.7601 126.248 83.0561 124.976 84.8201 124.976C86.5721 124.976 87.8681 126.248 87.8681 128.06C87.8681 129.872 86.5721 131.144 84.8201 131.144C83.0561 131.144 81.7601 129.872 81.7601 128.06ZM82.9001 128.06C82.9001 129.284 83.6801 130.136 84.8201 130.136C85.9481 130.136 86.7401 129.284 86.7401 128.06C86.7401 126.836 85.9481 125.984 84.8201 125.984C83.6801 125.984 82.9001 126.836 82.9001 128.06ZM90.2448 131H89.1168V125.132H90.1368L90.2568 126.032C90.6288 125.36 91.3728 124.964 92.2008 124.964C93.7488 124.964 94.4568 125.912 94.4568 127.412V131H93.3288V127.664C93.3288 126.476 92.7768 125.996 91.9128 125.996C90.8568 125.996 90.2448 126.752 90.2448 127.892V131Z" fill="white"/>
<g clip-path="url(#clip0_327_1823)">
<path d="M136.683 124.157C136.802 122.644 136.92 121.184 137.032 119.723C137.115 118.666 137.918 117.994 138.986 118.097C139.747 118.17 140.379 118.72 140.396 119.534C140.441 121.76 140.409 123.987 140.403 126.213C140.403 126.3 140.351 126.386 140.308 126.525C140.096 126.383 139.919 126.259 139.738 126.142C137.855 124.921 135.444 125.574 134.517 127.576C134.374 127.883 134.198 127.998 133.877 127.99C133.656 127.986 133.433 128.021 133.16 128.044V133.999H123.61V127.969C122.608 128.237 122.265 127.648 121.838 126.978C120.835 125.402 118.572 125.069 116.949 126.161C116.81 126.255 116.675 126.356 116.456 126.514C116.404 126.222 116.328 125.983 116.327 125.744C116.319 123.814 116.304 121.884 116.332 119.954C116.354 118.393 117.618 117.61 118.903 118.328C119.398 118.605 119.673 119.022 119.715 119.586C119.82 120.955 119.938 122.323 120.039 123.692C120.061 124.003 120.093 124.209 120.516 124.19C125.79 123.961 131.065 123.979 136.34 124.18C136.431 124.184 136.523 124.168 136.685 124.156L136.683 124.157Z" fill="white"/>
<path d="M132.819 106.418C132.807 108.852 130.81 110.767 128.296 110.755C125.876 110.744 123.894 108.785 123.894 106.408C123.894 103.966 125.919 101.97 128.362 102C130.868 102.031 132.831 103.978 132.819 106.418Z" fill="white"/>
<path d="M128.344 115.089C130.671 115.098 132.482 116.874 132.494 119.156C132.505 121.384 130.597 123.233 128.312 123.21C126.044 123.187 124.186 121.363 124.18 119.154C124.174 116.908 126.047 115.08 128.344 115.088V115.089Z" fill="white"/>
<path d="M133.517 117.132C132.438 114.983 130.779 113.75 128.345 113.751C125.914 113.751 124.251 114.98 123.206 117.059C122.746 116.944 122.291 116.732 121.844 116.746C121.316 116.762 120.795 116.982 120.268 117.097C120.057 117.142 119.837 117.147 119.622 117.17C119.603 116.957 119.524 116.729 119.576 116.535C120.164 114.363 121.646 113.015 123.813 112.452C127.029 111.618 130.266 111.588 133.448 112.636C135.474 113.303 136.694 114.747 137.217 116.758C137.25 116.883 137.194 117.092 137.101 117.17C137.004 117.251 136.761 117.29 136.666 117.227C135.647 116.559 134.611 116.563 133.517 117.132Z" fill="white"/>
<path d="M137.019 130.14C135.68 130.166 135.35 129.835 135.408 128.795C135.458 127.907 135.864 127.221 136.71 126.875C137.588 126.515 138.462 126.607 139.23 127.179C139.863 127.65 139.953 128.315 139.788 129.032C139.64 129.676 139.098 129.814 138.549 129.912C137.955 130.016 137.355 130.091 137.02 130.14H137.019Z" fill="white"/>
<path d="M119.697 130.137C119.34 130.086 118.722 130.012 118.109 129.904C117.573 129.809 117.059 129.641 116.923 129.031C116.778 128.388 116.83 127.778 117.352 127.287C118.056 126.626 119.364 126.48 120.207 126.965C121.045 127.448 121.508 128.522 121.285 129.459C121.17 129.943 120.752 130.158 119.697 130.136V130.137Z" fill="white"/>
<path d="M143.654 119.888C143.654 120.092 143.668 120.296 143.652 120.499C143.594 121.211 143.066 121.714 142.368 121.736C141.7 121.757 141.104 121.241 141.041 120.54C141.004 120.136 141.009 119.724 141.037 119.32C141.088 118.579 141.65 118.058 142.358 118.058C143.07 118.058 143.599 118.573 143.66 119.333C143.675 119.517 143.662 119.703 143.662 119.888C143.66 119.888 143.658 119.888 143.655 119.888H143.654Z" fill="white"/>
<path d="M113 119.857C113.062 119.497 113.06 119.112 113.198 118.782C113.424 118.242 114.036 117.98 114.603 118.091C115.213 118.212 115.632 118.663 115.676 119.288C115.702 119.655 115.692 120.027 115.681 120.397C115.656 121.167 115.097 121.732 114.376 121.732C113.63 121.732 113.096 121.204 113.055 120.421C113.046 120.236 113.054 120.051 113.054 119.866C113.036 119.864 113.018 119.86 113.001 119.858L113 119.857Z" fill="white"/>
<path d="M136.335 119.896C136.335 120.1 136.345 120.304 136.333 120.506C136.291 121.207 135.755 121.714 135.047 121.735C134.405 121.754 133.79 121.241 133.733 120.589C133.694 120.148 133.701 119.7 133.73 119.258C133.774 118.564 134.355 118.053 135.049 118.06C135.752 118.067 136.289 118.574 136.334 119.285C136.348 119.488 136.336 119.692 136.334 119.896H136.335Z" fill="white"/>
<path d="M120.378 119.896C120.378 119.693 120.367 119.489 120.38 119.287C120.425 118.609 120.943 118.099 121.61 118.067C122.305 118.033 122.917 118.518 122.978 119.203C123.019 119.661 123.018 120.129 122.978 120.587C122.919 121.262 122.283 121.767 121.607 121.73C120.935 121.692 120.415 121.177 120.378 120.505C120.367 120.303 120.376 120.099 120.376 119.896C120.376 119.896 120.378 119.896 120.379 119.896H120.378Z" fill="white"/>
</g>
<defs>
<linearGradient id="paint0_linear_327_1823" x1="82" y1="0" x2="82" y2="150" gradientUnits="userSpaceOnUse">
<stop stop-color="#9557F3"/>
<stop offset="1" stop-color="#692FC2"/>
</linearGradient>
<clipPath id="clip0_327_1823">
<rect width="30.6667" height="32" fill="white" transform="translate(113 102)"/>
</clipPath>
</defs>
</svg>
