<svg width="50" height="50" viewBox="0 0 50 50" fill="none" xmlns="http://www.w3.org/2000/svg">
<rect width="50" height="50" rx="25" fill="#EEF6FF"/>
<path d="M27.05 15.0001C29.0883 15.2149 30.9922 16.1189 32.4469 17.5627C33.9016 19.0065 34.8199 20.9035 35.05 22.9401M27.05 19.0001C28.0335 19.194 28.936 19.6791 29.6404 20.3924C30.3448 21.1057 30.8185 22.0142 31 23.0001M35 29.9201V32.9201C35.0011 33.1986 34.9441 33.4743 34.8325 33.7294C34.7209 33.9846 34.5573 34.2137 34.3521 34.402C34.1469 34.5902 33.9046 34.7336 33.6408 34.8228C33.3769 34.912 33.0974 34.9452 32.82 34.9201C29.7429 34.5854 26.7872 33.5339 24.19 31.8501C21.7738 30.3148 19.7253 28.2663 18.19 25.8501C16.5003 23.2411 15.4486 20.271 15.12 17.1801C15.095 16.9036 15.1279 16.6249 15.2165 16.3617C15.3051 16.0986 15.4476 15.8568 15.6348 15.6517C15.822 15.4466 16.0498 15.2828 16.3038 15.1706C16.5578 15.0584 16.8323 15.0004 17.11 15.0001H20.11C20.5953 14.9953 21.0658 15.1672 21.4338 15.4836C21.8017 15.8001 22.0421 16.2395 22.11 16.7201C22.2363 17.6802 22.4711 18.6229 22.81 19.5301C22.9445 19.888 22.9737 20.277 22.8939 20.651C22.8142 21.0249 22.6289 21.3682 22.36 21.6401L21.09 22.9101C22.5136 25.4136 24.5865 27.4865 27.09 28.9101L28.36 27.6401C28.6319 27.3712 28.9752 27.1859 29.3491 27.1062C29.7231 27.0264 30.1121 27.0556 30.47 27.1901C31.3772 27.529 32.3199 27.7638 33.28 27.8901C33.7658 27.9586 34.2094 28.2033 34.5265 28.5776C34.8437 28.9519 35.0122 29.4297 35 29.9201Z" stroke="url(#paint0_linear_1258_3380)" stroke-width="2" stroke-linecap="round" stroke-linejoin="round"/>
<defs>
<linearGradient id="paint0_linear_1258_3380" x1="25.0809" y1="15" x2="25.0809" y2="34.9282" gradientUnits="userSpaceOnUse">
<stop stop-color="#3573E7"/>
<stop offset="1" stop-color="#2463DB"/>
</linearGradient>
</defs>
</svg>
