<svg width="164" height="150" viewBox="0 0 164 150" fill="none" xmlns="http://www.w3.org/2000/svg">
<g clip-path="url(#clip0_327_1804)">
<rect width="164" height="150" rx="16" fill="url(#paint0_linear_327_1804)"/>
<path d="M18.524 25.702H14.548V30H13.176V19.878H19.28V21.138H14.548V24.456H18.524V25.702ZM24.2138 23.098V24.302H23.6258C22.3798 24.302 21.6098 25.058 21.6098 26.374V30H20.2938V23.168H21.5258L21.6098 24.204C21.8898 23.49 22.5758 23.014 23.5138 23.014C23.7518 23.014 23.9478 23.042 24.2138 23.098ZM28.156 30.168C26.14 30.168 24.754 28.712 24.754 26.584C24.754 24.442 26.112 22.958 28.1 22.958C30.046 22.958 31.32 24.302 31.32 26.332V26.822L26.028 26.836C26.126 28.278 26.882 29.076 28.184 29.076C29.206 29.076 29.878 28.656 30.102 27.872H31.334C30.998 29.342 29.85 30.168 28.156 30.168ZM28.1 24.064C26.952 24.064 26.224 24.75 26.056 25.954H30.004C30.004 24.82 29.262 24.064 28.1 24.064ZM35.7439 30.168C33.7279 30.168 32.3419 28.712 32.3419 26.584C32.3419 24.442 33.6999 22.958 35.6879 22.958C37.6339 22.958 38.9079 24.302 38.9079 26.332V26.822L33.6159 26.836C33.7139 28.278 34.4699 29.076 35.7719 29.076C36.7939 29.076 37.4659 28.656 37.6899 27.872H38.9219C38.5859 29.342 37.4379 30.168 35.7439 30.168ZM35.6879 24.064C34.5399 24.064 33.8119 24.75 33.6439 25.954H37.5919C37.5919 24.82 36.8499 24.064 35.6879 24.064ZM41.9878 26.962H40.9658C40.8258 25.912 40.7278 24.05 40.7278 22.23V19.878H42.2398V22.23C42.2398 24.078 42.1278 25.926 41.9878 26.962ZM41.4838 30.196C40.9238 30.196 40.4758 29.748 40.4758 29.202C40.4758 28.656 40.9238 28.208 41.4838 28.208C42.0158 28.208 42.4778 28.656 42.4778 29.202C42.4778 29.748 42.0158 30.196 41.4838 30.196ZM46.103 26.962H45.081C44.941 25.912 44.843 24.05 44.843 22.23V19.878H46.355V22.23C46.355 24.078 46.243 25.926 46.103 26.962ZM45.599 30.196C45.039 30.196 44.591 29.748 44.591 29.202C44.591 28.656 45.039 28.208 45.599 28.208C46.131 28.208 46.593 28.656 46.593 29.202C46.593 29.748 46.131 30.196 45.599 30.196Z" fill="white"/>
<path d="M15.553 54H13.377V41.573H18.12C20.942 41.573 22.591 43.001 22.591 45.449C22.591 47.115 21.809 48.305 20.347 48.9L22.71 54H20.33L18.222 49.359H15.553V54ZM15.553 43.511V47.438H18.12C19.497 47.438 20.313 46.707 20.313 45.449C20.313 44.208 19.497 43.511 18.12 43.511H15.553ZM27.619 54.221C25.12 54.221 23.369 52.402 23.369 49.801C23.369 47.166 25.086 45.347 27.551 45.347C30.067 45.347 31.665 47.03 31.665 49.648V50.277L25.341 50.294C25.494 51.773 26.276 52.521 27.653 52.521C28.792 52.521 29.54 52.079 29.778 51.28H31.699C31.342 53.116 29.812 54.221 27.619 54.221ZM27.568 47.047C26.344 47.047 25.596 47.71 25.392 48.968H29.608C29.608 47.812 28.809 47.047 27.568 47.047ZM32.8319 49.784C32.8319 47.183 34.5489 45.347 37.0309 45.347C39.3259 45.347 40.8899 46.622 41.1109 48.645H39.0369C38.7989 47.693 38.1019 47.2 37.1159 47.2C35.7899 47.2 34.9059 48.203 34.9059 49.784C34.9059 51.365 35.7219 52.351 37.0479 52.351C38.0849 52.351 38.8159 51.841 39.0369 50.923H41.1279C40.8729 52.878 39.2409 54.221 37.0479 54.221C34.4979 54.221 32.8319 52.453 32.8319 49.784ZM42.1786 49.784C42.1786 47.166 44.0656 45.364 46.6666 45.364C49.2676 45.364 51.1546 47.166 51.1546 49.784C51.1546 52.402 49.2676 54.204 46.6666 54.204C44.0656 54.204 42.1786 52.402 42.1786 49.784ZM44.2526 49.784C44.2526 51.314 45.2386 52.351 46.6666 52.351C48.0946 52.351 49.0806 51.314 49.0806 49.784C49.0806 48.254 48.0946 47.217 46.6666 47.217C45.2386 47.217 44.2526 48.254 44.2526 49.784ZM58.0685 45.568V47.489H57.3035C55.8075 47.489 54.8725 48.288 54.8725 49.92V54H52.7985V45.619H54.7535L54.8725 46.843C55.2295 46.01 56.0285 45.449 57.1505 45.449C57.4395 45.449 57.7285 45.483 58.0685 45.568ZM62.6411 54.221C60.2101 54.221 58.6971 52.436 58.6971 49.835C58.6971 47.217 60.2271 45.347 62.7601 45.347C63.9331 45.347 64.9701 45.84 65.4971 46.673V41.352H67.5541V54H65.6501L65.5141 52.691C65.0041 53.66 63.9161 54.221 62.6411 54.221ZM63.1001 52.317C64.5451 52.317 65.4801 51.28 65.4801 49.767C65.4801 48.254 64.5451 47.2 63.1001 47.2C61.6551 47.2 60.7711 48.271 60.7711 49.767C60.7711 51.263 61.6551 52.317 63.1001 52.317ZM73.4725 54.221C70.9735 54.221 69.2225 52.402 69.2225 49.801C69.2225 47.166 70.9395 45.347 73.4045 45.347C75.9205 45.347 77.5185 47.03 77.5185 49.648V50.277L71.1945 50.294C71.3475 51.773 72.1295 52.521 73.5065 52.521C74.6455 52.521 75.3935 52.079 75.6315 51.28H77.5525C77.1955 53.116 75.6655 54.221 73.4725 54.221ZM73.4215 47.047C72.1975 47.047 71.4495 47.71 71.2455 48.968H75.4615C75.4615 47.812 74.6625 47.047 73.4215 47.047ZM82.6294 54.221C80.1984 54.221 78.6854 52.436 78.6854 49.835C78.6854 47.217 80.2154 45.347 82.7484 45.347C83.9214 45.347 84.9584 45.84 85.4854 46.673V41.352H87.5424V54H85.6384L85.5024 52.691C84.9924 53.66 83.9044 54.221 82.6294 54.221ZM83.0884 52.317C84.5334 52.317 85.4684 51.28 85.4684 49.767C85.4684 48.254 84.5334 47.2 83.0884 47.2C81.6434 47.2 80.7594 48.271 80.7594 49.767C80.7594 51.263 81.6434 52.317 83.0884 52.317ZM15.553 76H13.377V63.573H15.553V68.707H21.061V63.573H23.237V76H21.061V70.73H15.553V76ZM25.1952 71.784C25.1952 69.166 27.0822 67.364 29.6832 67.364C32.2842 67.364 34.1712 69.166 34.1712 71.784C34.1712 74.402 32.2842 76.204 29.6832 76.204C27.0822 76.204 25.1952 74.402 25.1952 71.784ZM27.2692 71.784C27.2692 73.314 28.2552 74.351 29.6832 74.351C31.1112 74.351 32.0972 73.314 32.0972 71.784C32.0972 70.254 31.1112 69.217 29.6832 69.217C28.2552 69.217 27.2692 70.254 27.2692 71.784ZM37.8891 76H35.8151V67.602H37.7191L37.8891 68.588C38.3141 67.891 39.1641 67.347 40.3711 67.347C41.6461 67.347 42.5301 67.976 42.9721 68.945C43.3971 67.976 44.3831 67.347 45.6581 67.347C47.6981 67.347 48.8201 68.571 48.8201 70.509V76H46.7631V71.053C46.7631 69.846 46.1171 69.217 45.1311 69.217C44.1281 69.217 43.3631 69.863 43.3631 71.24V76H41.2891V71.036C41.2891 69.863 40.6601 69.234 39.6741 69.234C38.6881 69.234 37.8891 69.88 37.8891 71.24V76ZM54.6132 76.221C52.1142 76.221 50.3632 74.402 50.3632 71.801C50.3632 69.166 52.0802 67.347 54.5452 67.347C57.0612 67.347 58.6592 69.03 58.6592 71.648V72.277L52.3352 72.294C52.4882 73.773 53.2702 74.521 54.6472 74.521C55.7862 74.521 56.5342 74.079 56.7722 73.28H58.6932C58.3362 75.116 56.8062 76.221 54.6132 76.221ZM54.5622 69.047C53.3382 69.047 52.5902 69.71 52.3862 70.968H56.6022C56.6022 69.812 55.8032 69.047 54.5622 69.047ZM15.961 98L12.255 85.573H14.516L16.488 92.135C16.675 92.815 16.862 93.512 17.049 94.6C17.253 93.495 17.44 92.849 17.661 92.135L19.616 85.573H22.013L23.934 92.135C24.138 92.832 24.325 93.546 24.529 94.6C24.767 93.444 24.937 92.781 25.124 92.152L27.13 85.573H29.34L25.566 98H23.458L20.806 88.956L18.103 98H15.961ZM28.9637 93.784C28.9637 91.166 30.8507 89.364 33.4517 89.364C36.0527 89.364 37.9397 91.166 37.9397 93.784C37.9397 96.402 36.0527 98.204 33.4517 98.204C30.8507 98.204 28.9637 96.402 28.9637 93.784ZM31.0377 93.784C31.0377 95.314 32.0237 96.351 33.4517 96.351C34.8797 96.351 35.8657 95.314 35.8657 93.784C35.8657 92.254 34.8797 91.217 33.4517 91.217C32.0237 91.217 31.0377 92.254 31.0377 93.784ZM44.8537 89.568V91.489H44.0887C42.5927 91.489 41.6577 92.288 41.6577 93.92V98H39.5837V89.619H41.5387L41.6577 90.843C42.0147 90.01 42.8137 89.449 43.9357 89.449C44.2247 89.449 44.5137 89.483 44.8537 89.568ZM48.3485 98H46.2915V85.352H48.3485V93.121L51.6125 89.602H54.2135L51.0175 92.934L54.1455 98H51.7655L49.5725 94.464L48.3485 95.739V98ZM54.5301 93.784C54.5301 91.166 56.4171 89.364 59.0181 89.364C61.6191 89.364 63.5061 91.166 63.5061 93.784C63.5061 96.402 61.6191 98.204 59.0181 98.204C56.4171 98.204 54.5301 96.402 54.5301 93.784ZM56.6041 93.784C56.6041 95.314 57.5901 96.351 59.0181 96.351C60.4461 96.351 61.4321 95.314 61.4321 93.784C61.4321 92.254 60.4461 91.217 59.0181 91.217C57.5901 91.217 56.6041 92.254 56.6041 93.784ZM70.6459 89.602H72.7199V98H70.7989L70.6459 96.878C70.1359 97.677 69.0479 98.221 67.9259 98.221C65.9879 98.221 64.8489 96.912 64.8489 94.855V89.602H66.9229V94.124C66.9229 95.722 67.5519 96.368 68.7079 96.368C70.0169 96.368 70.6459 95.603 70.6459 94.005V89.602ZM77.718 98H75.644V91.336H74.029V89.602H75.644V86.984H77.718V89.602H79.35V91.336H77.718V98Z" fill="white"/>
<circle opacity="0.4" cx="129.5" cy="135.5" r="58.5" fill="white"/>
<circle cx="129.5" cy="135.5" r="50.5" fill="white"/>
<path d="M114.104 29L111.864 25.108H110.646V29H109.05V19.27H112.41C113.157 19.27 113.787 19.4007 114.3 19.662C114.823 19.9233 115.21 20.2733 115.462 20.712C115.723 21.1507 115.854 21.6407 115.854 22.182C115.854 22.8167 115.667 23.3953 115.294 23.918C114.93 24.4313 114.365 24.7813 113.6 24.968L116.008 29H114.104ZM110.646 23.834H112.41C113.007 23.834 113.455 23.6847 113.754 23.386C114.062 23.0873 114.216 22.686 114.216 22.182C114.216 21.678 114.067 21.286 113.768 21.006C113.469 20.7167 113.017 20.572 112.41 20.572H110.646V23.834ZM124.966 24.954C124.966 25.2433 124.947 25.5047 124.91 25.738H119.016C119.062 26.354 119.291 26.8487 119.702 27.222C120.112 27.5953 120.616 27.782 121.214 27.782C122.072 27.782 122.679 27.4227 123.034 26.704H124.756C124.522 27.4133 124.098 27.9967 123.482 28.454C122.875 28.902 122.119 29.126 121.214 29.126C120.476 29.126 119.814 28.9627 119.226 28.636C118.647 28.3 118.19 27.8333 117.854 27.236C117.527 26.6293 117.364 25.9293 117.364 25.136C117.364 24.3427 117.522 23.6473 117.84 23.05C118.166 22.4433 118.619 21.9767 119.198 21.65C119.786 21.3233 120.458 21.16 121.214 21.16C121.942 21.16 122.59 21.3187 123.16 21.636C123.729 21.9533 124.172 22.4013 124.49 22.98C124.807 23.5493 124.966 24.2073 124.966 24.954ZM123.3 24.45C123.29 23.862 123.08 23.3907 122.67 23.036C122.259 22.6813 121.75 22.504 121.144 22.504C120.593 22.504 120.122 22.6813 119.73 23.036C119.338 23.3813 119.104 23.8527 119.03 24.45H123.3ZM126.004 25.136C126.004 24.3427 126.163 23.6473 126.48 23.05C126.807 22.4433 127.255 21.9767 127.824 21.65C128.394 21.3233 129.047 21.16 129.784 21.16C130.718 21.16 131.488 21.384 132.094 21.832C132.71 22.2707 133.126 22.9007 133.34 23.722H131.618C131.478 23.3393 131.254 23.0407 130.946 22.826C130.638 22.6113 130.251 22.504 129.784 22.504C129.131 22.504 128.608 22.7373 128.216 23.204C127.834 23.6613 127.642 24.3053 127.642 25.136C127.642 25.9667 127.834 26.6153 128.216 27.082C128.608 27.5487 129.131 27.782 129.784 27.782C130.708 27.782 131.32 27.376 131.618 26.564H133.34C133.116 27.348 132.696 27.9733 132.08 28.44C131.464 28.8973 130.699 29.126 129.784 29.126C129.047 29.126 128.394 28.9627 127.824 28.636C127.255 28.3 126.807 27.8333 126.48 27.236C126.163 26.6293 126.004 25.9293 126.004 25.136Z" fill="white"/>
<mask id="mask0_327_1804" style="mask-type:luminance" maskUnits="userSpaceOnUse" x="138" y="18" width="14" height="13">
<path d="M145 30.3333C148.222 30.3333 150.833 27.7217 150.833 24.5C150.833 21.2782 148.222 18.6666 145 18.6666C141.778 18.6666 139.167 21.2782 139.167 24.5C139.167 27.7217 141.778 30.3333 145 30.3333Z" fill="white" stroke="white" stroke-linejoin="round"/>
<path d="M143.833 24.4999V22.4792L145.583 23.4896L147.333 24.4999L145.583 25.5102L143.833 26.5206V24.4999Z" fill="black" stroke="black" stroke-linejoin="round"/>
</mask>
<g mask="url(#mask0_327_1804)">
<path d="M138 17.5H152V31.5H138V17.5Z" fill="white"/>
</g>
<path d="M127.003 105.518C126.611 108.028 126.217 110.542 125.835 113.056C125.775 113.44 125.612 113.931 125.772 114.21C127.569 117.327 126.911 120.602 126.327 123.821C126.125 124.937 126.333 125.413 127.296 125.869C128.992 126.676 130.622 127.618 132.288 128.488C133.276 129.004 133.685 129.787 133.637 130.924C133.536 133.32 133.504 135.717 133.456 138.113C133.436 139.106 133.195 139.997 132.042 140C130.892 140 130.64 139.139 130.625 138.128C130.596 136.23 130.462 134.334 130.483 132.435C130.495 131.478 130.139 131.002 129.285 130.669C127.999 130.168 126.733 129.598 125.503 128.965C124.667 128.536 124.115 128.599 123.508 129.391C120.582 133.221 116.855 136.191 113.129 139.157C112.975 139.28 112.815 139.4 112.655 139.514C111.851 140.096 111.048 140.081 110.407 139.319C109.749 138.536 109.933 137.702 110.639 137.055C111.807 135.981 113.061 135.003 114.22 133.917C115.702 132.528 117.119 131.071 118.578 129.655C121.75 126.571 121.927 122.642 121.625 118.587C121.575 117.891 121.272 117.186 121.355 116.517C121.447 115.776 121.643 114.786 122.153 114.42C123.122 113.722 123.427 112.849 123.555 111.796C123.878 109.123 124.204 106.451 124.486 103.772C124.581 102.869 124.673 101.946 125.811 102.003C127.047 102.065 127.071 103.037 126.97 104C126.92 104.498 126.887 104.996 126.849 105.494C126.902 105.503 126.958 105.512 127.012 105.521L127.003 105.518Z" fill="url(#paint1_linear_327_1804)"/>
<path d="M123.269 111.788C123.207 113.27 121.991 114.407 120.541 114.335C119.095 114.263 117.924 112.988 118.004 111.566C118.087 110.109 119.338 108.948 120.764 109.002C122.205 109.059 123.328 110.31 123.266 111.785L123.269 111.788Z" fill="url(#paint2_linear_327_1804)"/>
</g>
<defs>
<linearGradient id="paint0_linear_327_1804" x1="82" y1="0" x2="82" y2="150" gradientUnits="userSpaceOnUse">
<stop stop-color="#3573E7"/>
<stop offset="1" stop-color="#2463DB"/>
</linearGradient>
<linearGradient id="paint1_linear_327_1804" x1="121.82" y1="102" x2="121.82" y2="140" gradientUnits="userSpaceOnUse">
<stop stop-color="#3573E7"/>
<stop offset="1" stop-color="#2463DB"/>
</linearGradient>
<linearGradient id="paint2_linear_327_1804" x1="120.634" y1="109" x2="120.634" y2="114.338" gradientUnits="userSpaceOnUse">
<stop stop-color="#3573E7"/>
<stop offset="1" stop-color="#2463DB"/>
</linearGradient>
<clipPath id="clip0_327_1804">
<rect width="164" height="150" rx="16" fill="white"/>
</clipPath>
</defs>
</svg>
