<svg width="44" height="44" viewBox="0 0 44 44" fill="none" xmlns="http://www.w3.org/2000/svg">
<rect width="44" height="44" rx="12" fill="url(#paint0_linear_1314_4240)"/>
<g clip-path="url(#clip0_1314_4240)">
<path d="M31.0063 28.4221C30.8564 28.3241 30.736 28.2497 30.6203 28.1683C30.2449 27.9026 29.8258 27.702 29.3772 27.6642C28.2781 27.5721 27.1484 28.0597 26.6974 29.2213C26.6289 29.3972 26.5121 29.5164 26.2984 29.5058C26.1614 29.4999 26.0233 29.5211 25.8864 29.5223C25.7849 29.5223 25.7365 29.5542 25.7376 29.6663C25.7376 30.0689 25.7258 30.4726 25.7258 30.8752C25.7258 31.8243 25.7305 32.7735 25.7329 33.7226C25.7329 33.7958 25.7258 33.8678 25.7211 33.9611C25.4248 33.9741 25.1367 33.9989 24.8499 33.9989C22.9032 33.9989 20.9553 33.993 19.0087 33.9894C18.965 33.9894 18.9201 33.9835 18.8764 33.9823C18.7643 33.98 18.7289 33.9233 18.7289 33.8135C18.7277 33.1453 18.7171 32.4772 18.7171 31.809C18.7171 31.1172 18.7242 30.4254 18.7348 29.7336C18.7371 29.5837 18.6923 29.5152 18.5376 29.5188C18.4196 29.5223 18.3015 29.4999 18.1847 29.5058C17.9592 29.5176 17.8211 29.4043 17.7054 29.226C17.5507 28.9875 17.3937 28.7479 17.2154 28.5271C16.8389 28.0597 16.3478 27.761 15.761 27.6394C15.3585 27.5556 14.9618 27.6477 14.5911 27.7952C14.2748 27.9204 13.9785 28.101 13.6833 28.2721C13.5157 28.3701 13.4578 28.3595 13.426 28.1588C13.4012 28.0042 13.3823 27.846 13.3835 27.689C13.3835 26.283 13.3882 24.8758 13.3941 23.4698C13.3953 23.2077 13.4413 22.9515 13.5617 22.7143C13.8061 22.2314 14.263 22.0024 14.8544 22.0673C15.3337 22.1205 15.7551 22.4864 15.859 22.9976C15.9299 23.3423 15.9487 23.6988 15.9783 24.0506C16.0456 24.8534 16.1069 25.6573 16.1636 26.4612C16.1742 26.6147 16.2415 26.6395 16.3785 26.6359C17.7349 26.5946 19.0913 26.5403 20.4477 26.5262C22.0945 26.5085 23.7425 26.5108 25.3894 26.5309C26.283 26.5415 27.1779 26.6029 28.0703 26.6513C28.2061 26.6584 28.2663 26.6159 28.2781 26.4943C28.3183 26.0988 28.3548 25.7033 28.3903 25.3079C28.4564 24.5712 28.5107 23.8322 28.5898 23.0967C28.6535 22.5112 29.1139 22.1086 29.7219 22.0721C30.4739 22.026 31.0039 22.4746 31.0334 23.2254C31.0618 23.9573 31.0582 24.6904 31.0571 25.4224C31.0547 26.342 31.0417 27.2616 31.0323 28.1812C31.0323 28.2485 31.0193 28.3158 31.0087 28.4209L31.0063 28.4221Z" fill="white"/>
<path d="M21.4146 10.1393C21.3496 10.1227 21.3036 10.1109 21.2587 10.0979C21.2587 10.085 21.2599 10.072 21.2611 10.059C21.9092 9.97635 22.5561 9.9669 23.2113 10.1156C23.1582 10.1357 23.1051 10.1558 23.085 10.1641C23.2786 10.2325 23.5029 10.2833 23.7 10.386C24.7873 10.9562 25.3823 11.8605 25.4685 13.087C25.5417 14.1365 25.2028 15.0384 24.4166 15.7408C23.5607 16.5058 22.5467 16.7974 21.4323 16.507C19.9247 16.1127 18.9 14.8484 18.9414 13.2676C18.9768 11.9195 19.6072 10.9432 20.8007 10.3329C20.9837 10.2396 21.1973 10.2065 21.4157 10.1393H21.4146Z" fill="white"/>
<path d="M19.1574 22.8511C19.1704 21.1323 20.5492 19.7664 22.2799 19.8018C23.8122 19.8325 25.2678 21.0732 25.2595 22.9149C25.2524 24.531 23.8665 25.8803 22.2834 25.9028C20.482 25.9275 19.1491 24.5133 19.1586 22.8511H19.1574Z" fill="white"/>
<path d="M18.3983 21.3613C17.6357 20.9422 16.9026 20.9682 16.1801 21.4191C16.1246 21.4545 16.0432 21.5124 16.0019 21.4947C15.8874 21.4463 15.7846 21.3672 15.6843 21.2905C15.6631 21.2739 15.6607 21.2137 15.6701 21.1795C15.8779 20.4676 16.1447 19.7865 16.637 19.2116C17.1977 18.5552 17.9096 18.1326 18.723 17.8847C19.1397 17.7583 19.5729 17.6851 20.0003 17.6001C20.8963 17.4219 21.8041 17.3676 22.7155 17.4101C23.1865 17.4313 23.6611 17.4597 24.125 17.5329C25.047 17.6792 25.9655 17.8587 26.78 18.3592C27.6182 18.8751 28.2085 19.5929 28.5296 20.5278C28.6027 20.7415 28.6795 20.954 28.7598 21.1653C28.7975 21.2633 28.7716 21.3117 28.6877 21.3837C28.5142 21.5313 28.3832 21.5183 28.1931 21.3943C27.5131 20.9516 26.8036 20.9776 26.0894 21.32C26.0587 21.3341 26.0268 21.3448 26.0009 21.3554C25.8474 21.1028 25.7081 20.8489 25.5452 20.6128C25.0447 19.8856 24.4119 19.3084 23.5513 19.0534C22.4817 18.737 21.4134 18.7393 20.3922 19.2446C19.6438 19.6153 19.0936 20.2044 18.6687 20.915C18.5789 21.0662 18.488 21.2161 18.3995 21.3613H18.3983Z" fill="white"/>
<path d="M30.625 29.9531C30.6344 30.5339 30.4184 30.8137 29.8423 30.9282C29.4669 31.0026 29.0891 31.0664 28.709 31.1065C28.4823 31.1301 28.2451 31.1242 28.0196 31.0888C27.5698 31.0168 27.4093 30.7878 27.3573 30.3758C27.2534 29.5447 27.7197 28.7655 28.5485 28.5519C29.1163 28.4055 29.67 28.4137 30.1551 28.8057C30.4656 29.0571 30.6156 29.4372 30.6238 29.9531H30.625Z" fill="white"/>
<path d="M16.0255 31.1231C15.5309 31.1042 14.9973 31.0699 14.479 30.92C14.0505 30.7961 13.8037 30.4655 13.7943 30.0193C13.7884 29.7489 13.8403 29.4928 13.9478 29.2472C14.0989 28.9025 14.3562 28.6723 14.7151 28.5661C15.2133 28.4185 15.7068 28.435 16.1813 28.6581C16.7586 28.9308 17.1092 29.5707 17.0584 30.2495C17.0466 30.4041 17.036 30.5694 16.9746 30.7087C16.8707 30.9436 16.6653 31.0699 16.4056 31.0959C16.2935 31.1065 16.1801 31.1136 16.0267 31.1242L16.0255 31.1231Z" fill="white"/>
<path d="M31.4513 23.406C31.4844 23.1652 31.4868 22.9149 31.5564 22.6847C31.6863 22.2609 32.1278 21.9929 32.5504 22.0389C32.9848 22.0873 33.3768 22.4415 33.4134 22.8783C33.4441 23.2478 33.4441 23.6244 33.4098 23.9939C33.3662 24.4685 32.9211 24.8073 32.4206 24.7943C31.9247 24.7813 31.5399 24.426 31.4986 23.9384C31.4844 23.7625 31.4797 23.5866 31.4714 23.4095C31.4643 23.4083 31.4572 23.406 31.4502 23.4048L31.4513 23.406Z" fill="white"/>
<path d="M28.0916 23.4084C28.0786 23.6161 28.081 23.7944 28.0538 23.9679C27.9759 24.4697 27.5851 24.8037 27.1011 24.7955C26.5852 24.7872 26.1732 24.4366 26.1319 23.929C26.1048 23.5831 26.1083 23.2301 26.139 22.8842C26.1803 22.4203 26.6171 22.0484 27.0893 22.0331C27.5261 22.0201 27.9617 22.3719 28.042 22.8217C28.0774 23.0235 28.0774 23.2313 28.0916 23.4072V23.4084Z" fill="white"/>
<path d="M12.942 23.4356C12.942 23.5678 12.9443 23.7012 12.942 23.8334C12.9313 24.2938 12.6126 24.6869 12.1794 24.7766C11.7225 24.8723 11.2869 24.6669 11.0909 24.2454C11.0354 24.125 11.0118 23.9798 11.0083 23.8452C10.9988 23.5359 10.9929 23.2254 11.0189 22.9185C11.0638 22.3955 11.5135 22.0083 12.0153 22.0331C12.5064 22.0579 12.9302 22.503 12.9408 23.0082C12.9443 23.1511 12.9408 23.2927 12.9408 23.4356C12.9408 23.4356 12.942 23.4356 12.9431 23.4356H12.942Z" fill="white"/>
<path d="M18.3204 23.4201C18.298 23.6444 18.3003 23.8734 18.2484 24.0907C18.1445 24.5227 17.7786 24.7883 17.3288 24.7943C16.8814 24.8002 16.4965 24.5404 16.4009 24.1036C16.2982 23.6373 16.2793 23.1569 16.4221 22.6906C16.5567 22.2549 17.0254 21.9716 17.4575 22.0401C17.919 22.1133 18.272 22.5123 18.2838 22.9762C18.2874 23.1238 18.2838 23.2702 18.2838 23.4178C18.2956 23.4178 18.3074 23.4189 18.3204 23.4201Z" fill="white"/>
</g>
<defs>
<linearGradient id="paint0_linear_1314_4240" x1="22" y1="0" x2="22" y2="44" gradientUnits="userSpaceOnUse">
<stop stop-color="#FD9840"/>
<stop offset="1" stop-color="#F07A13"/>
</linearGradient>
<clipPath id="clip0_1314_4240">
<rect width="22.437" height="24" fill="white" transform="translate(11 10)"/>
</clipPath>
</defs>
</svg>
