<svg width="44" height="44" viewBox="0 0 44 44" fill="none" xmlns="http://www.w3.org/2000/svg">
<rect width="44" height="44" rx="12" fill="url(#paint0_linear_1314_4269)"/>
<path opacity="0.95" fill-rule="evenodd" clip-rule="evenodd" d="M14.0336 11.5738C14.8429 11.1964 15.7154 11 16.6 11C17.4846 11 18.3571 11.1964 19.1665 11.5738C19.9755 11.9511 20.7022 12.5002 21.3087 13.1831C21.6787 13.5996 22.3213 13.5996 22.6913 13.1831C23.9175 11.8025 25.6081 11 27.4 11C29.1919 11 30.8825 11.8025 32.1087 13.1831C33.3312 14.5596 34 16.4023 34 18.3009C34 20.1996 33.3312 22.0423 32.1087 23.4188L24.6709 31.793C23.2415 33.4023 20.7585 33.4023 19.3292 31.793L11.8914 23.4188C11.285 22.7361 10.8097 21.9322 10.4872 21.0557C10.1648 20.1793 10 19.2435 10 18.3009C10 17.3584 10.1648 16.4226 10.4872 15.5462C10.8097 14.6697 11.285 13.8657 11.8914 13.1831C12.4979 12.5002 13.2246 11.9511 14.0336 11.5738Z" fill="white"/>
<defs>
<linearGradient id="paint0_linear_1314_4269" x1="22" y1="0" x2="22" y2="44" gradientUnits="userSpaceOnUse">
<stop stop-color="#FDCE30"/>
<stop offset="1" stop-color="#F8C109"/>
</linearGradient>
</defs>
</svg>
