<svg width="44" height="44" viewBox="0 0 44 44" fill="none" xmlns="http://www.w3.org/2000/svg">
<rect width="44" height="44" rx="12" fill="url(#paint0_linear_1314_4353)"/>
<g clip-path="url(#clip0_1314_4353)">
<path d="M24.0208 24.6352C25.4117 25.0855 26.6812 25.5432 27.9792 25.8961C28.7485 26.1055 28.9986 26.5096 28.9105 27.2886C28.6985 29.1825 28.5127 31.0788 28.3531 32.9752C28.2888 33.742 27.9363 34.0901 27.198 33.9781C26.4954 33.8734 26.0024 33.5618 26.0977 32.7074C26.2358 31.4586 26.3144 30.2025 26.4978 28.961C26.6097 28.1893 26.3239 27.8874 25.6285 27.6951C24.2137 27.3008 22.8038 26.8723 21.4295 26.3562C20.7507 26.1006 20.3482 26.2613 19.8743 26.753C19.8743 26.753 18.2356 28.6372 13.789 32.9167C13.5675 33.131 13.0745 33.5935 12.3623 33.6568C11.9289 33.6957 11.5669 33.574 11.3358 33.4718C11.2025 33.3476 11.0334 33.148 11.0072 32.8851C10.9643 32.4396 11.3573 32.0647 11.5311 31.9016C13.3293 30.2268 16.1231 27.2594 18.3476 24.937C18.7763 24.4891 19.124 23.8221 19.2312 23.2087C19.5908 21.1346 19.8219 19.0387 20.11 16.9524C20.3101 15.504 20.9008 15.0561 22.2964 15.3287C23.1515 15.4967 24.0089 15.6817 24.8473 15.9203C26.1501 16.2879 26.4621 16.8502 26.0667 18.1526C25.4213 20.2777 24.7353 22.3883 24.0256 24.6376L24.0208 24.6352Z" fill="white"/>
<path d="M24.0589 15.0196C22.6584 15.022 21.5248 13.9266 21.5081 12.5512C21.4914 11.1149 22.6394 9.98297 24.0994 10C25.5117 10.017 26.5764 11.1052 26.5716 12.5293C26.5668 13.9266 25.4689 15.0171 24.0613 15.0196H24.0589Z" fill="white"/>
<path d="M26.7169 17.6876C26.5787 17.0693 26.474 16.6019 26.3358 15.9787C29.6011 15.9593 31.9971 15.9812 32.5711 16.0201C32.6664 16.0274 32.9355 16.0493 33.1666 16.2368C33.2142 16.2757 33.5333 16.5338 33.4976 16.9038C33.4667 17.2202 33.1999 17.4028 33.1118 17.4612C32.8331 17.6511 32.533 17.6511 32.4425 17.6511C31.8399 17.6511 29.6726 17.6754 26.7145 17.6876H26.7169Z" fill="white"/>
<path d="M19.6385 15.9787C19.5432 16.6019 19.4646 17.1058 19.3765 17.6827C16.3755 17.6584 14.1915 17.6365 13.6294 17.6438C13.5556 17.6438 13.3055 17.6487 13.0697 17.4977C13.0173 17.4637 12.6743 17.2348 12.6601 16.8283C12.6577 16.7626 12.6601 16.5508 12.7934 16.3633C13.0149 16.059 13.446 16.0298 13.6508 16.0177C14.3558 15.9811 16.6065 15.9544 19.6385 15.9787Z" fill="white"/>
</g>
<defs>
<linearGradient id="paint0_linear_1314_4353" x1="22" y1="0" x2="22" y2="44" gradientUnits="userSpaceOnUse">
<stop stop-color="#DB4B3D"/>
<stop offset="1" stop-color="#D03728"/>
</linearGradient>
<clipPath id="clip0_1314_4353">
<rect width="22.5" height="24" fill="white" transform="translate(11 10)"/>
</clipPath>
</defs>
</svg>
