<svg width="44" height="44" viewBox="0 0 44 44" fill="none" xmlns="http://www.w3.org/2000/svg">
<rect width="44" height="44" rx="12" fill="url(#paint0_linear_1316_4391)"/>
<path d="M25.9968 10.3476C25.7022 12.2372 25.4055 14.129 25.1177 16.0208C25.0731 16.3097 24.9503 16.6799 25.0708 16.8899C26.4229 19.2354 25.9276 21.7006 25.488 24.123C25.3363 24.9627 25.4925 25.3217 26.2176 25.6648C27.4939 26.2721 28.721 26.981 29.9749 27.6356C30.7179 28.0239 31.0258 28.6131 30.9901 29.4687C30.9142 31.2725 30.8897 33.0762 30.854 34.88C30.8384 35.6272 30.6577 36.2977 29.7897 36.2999C28.924 36.2999 28.7344 35.652 28.7232 34.8913C28.7009 33.4623 28.6005 32.0355 28.6161 30.6065C28.6251 29.8864 28.3573 29.5274 27.7148 29.2768C26.7464 28.8998 25.7937 28.4709 24.8678 27.9946C24.2386 27.6718 23.8236 27.7192 23.3662 28.3151C21.164 31.198 18.3595 33.4329 15.5549 35.6656C15.4389 35.7581 15.3184 35.8484 15.1979 35.9342C14.5933 36.3722 13.9886 36.3609 13.5067 35.7875C13.0114 35.1983 13.1497 34.5707 13.6807 34.0831C14.5598 33.2749 15.5036 32.5389 16.376 31.7217C17.4915 30.6765 18.558 29.5793 19.6558 28.5138C22.0431 26.1931 22.177 23.2358 21.9494 20.1836C21.9115 19.6599 21.6839 19.1293 21.7464 18.6259C21.8155 18.0683 21.9628 17.3233 22.3466 17.0479C23.0762 16.5219 23.306 15.865 23.4019 15.0726C23.6451 13.0612 23.8905 11.0497 24.1025 9.03377C24.1739 8.35426 24.2431 7.65895 25.0998 7.70184C26.0302 7.74925 26.0481 8.48068 25.9722 9.20534C25.9343 9.58009 25.9097 9.95483 25.8807 10.3296C25.9209 10.3364 25.9633 10.3431 26.0034 10.3499L25.9968 10.3476Z" fill="#FAFAFE"/>
<path d="M23.187 15.067C23.1401 16.1822 22.2254 17.0378 21.1343 16.9836C20.0455 16.9294 19.1642 15.97 19.2244 14.8999C19.2869 13.8028 20.2285 12.9291 21.3017 12.9697C22.386 13.0126 23.2316 13.954 23.1848 15.0647L23.187 15.067Z" fill="#FAFAFE"/>
<defs>
<linearGradient id="paint0_linear_1316_4391" x1="22" y1="0" x2="22" y2="44" gradientUnits="userSpaceOnUse">
<stop stop-color="#9557F3"/>
<stop offset="1" stop-color="#692FC2"/>
</linearGradient>
</defs>
</svg>
