<svg width="44" height="44" viewBox="0 0 44 44" fill="none" xmlns="http://www.w3.org/2000/svg">
<rect width="44" height="44" rx="12" fill="url(#paint0_linear_1314_4298)"/>
<g clip-path="url(#clip0_1314_4298)">
<path d="M16.0758 22.6673H13.7827C13.8864 22.4508 14.049 22.2682 14.2519 22.1403C14.4548 22.0124 14.6896 21.9446 14.9293 21.9446C15.169 21.9446 15.4038 22.0124 15.6066 22.1403C15.8095 22.2682 15.9721 22.4508 16.0758 22.6673ZM19.7447 21.9422C19.7455 21.6445 19.7674 21.3472 19.8103 21.0526C19.6322 21.0813 19.4623 21.1477 19.3119 21.2472C19.1614 21.3468 19.0338 21.4772 18.9376 21.6299C18.8414 21.7827 18.7787 21.9541 18.7537 22.133C18.7287 22.3118 18.7421 22.494 18.7928 22.6673H19.7893C19.7611 22.4266 19.7471 22.1845 19.7474 21.9422H19.7447ZM14.5958 17.2499C13.744 16.3969 12.6002 15.4955 11.5912 15.4955H11.5073L11.5604 16.5452C12.0459 16.5216 12.8288 16.998 13.7113 17.8574C13.7668 17.9112 13.8212 17.9652 13.8744 18.0195C14.0192 17.9882 14.1666 17.9708 14.3147 17.9677C14.3683 17.7139 14.4642 17.471 14.5984 17.2492L14.5958 17.2499ZM15.9231 16.2171C16.0641 16.0513 16.1904 15.8735 16.3005 15.6857C16.4672 15.4024 16.5974 15.0991 16.6878 14.783C16.7778 14.4689 16.8274 14.1445 16.8352 13.8178C16.8421 13.5138 16.8115 13.2102 16.7441 12.9137C16.7143 12.7846 16.6778 12.6571 16.6346 12.5319C16.5988 12.4283 16.5582 12.3265 16.5128 12.2268C16.4812 12.1577 16.4468 12.0898 16.4099 12.0234C16.3975 11.9998 16.3844 11.9808 16.3772 11.9683L16.3654 11.9492L16.3458 11.9591C16.3326 11.9657 16.3123 11.9755 16.2894 11.9886C16.2223 12.0255 16.1567 12.0651 16.0928 12.1074C16.0017 12.1679 15.9143 12.2336 15.8308 12.3042C15.7285 12.3882 15.6308 12.4776 15.5379 12.5719C15.3255 12.7889 15.1406 13.0313 14.9876 13.2936C14.8233 13.576 14.6958 13.8783 14.6082 14.1931C14.5181 14.5088 14.4684 14.8346 14.4601 15.1628C14.4537 15.4668 14.4843 15.7704 14.5512 16.0669C14.6051 16.3022 14.6823 16.5314 14.7818 16.7513C14.8074 16.809 14.8323 16.8582 14.8546 16.8995C15.1415 16.5767 15.5124 16.3403 15.9258 16.2165L15.9231 16.2171ZM34.5737 13.8224C34.5613 13.8152 34.5416 13.8033 34.5181 13.7909C34.4511 13.7548 34.3825 13.7219 34.3123 13.6925C34.2252 13.6557 34.1217 13.6151 34.0051 13.5777C33.879 13.5375 33.7508 13.504 33.6211 13.4773C33.3235 13.4172 33.0196 13.394 32.7164 13.4084C32.3902 13.424 32.0675 13.4813 31.7559 13.579C31.4439 13.6757 31.1455 13.8115 30.8675 13.9832C30.6092 14.1432 30.3714 14.3343 30.1593 14.552L30.1297 14.5835C30.4313 14.9407 30.6643 15.3507 30.817 15.7927C31.0213 15.8173 31.2273 15.825 31.4329 15.8156C31.7591 15.8002 32.082 15.7435 32.394 15.647C32.7063 15.5517 33.005 15.4168 33.2831 15.2455C33.5416 15.0858 33.7795 14.8948 33.9913 14.6767C34.0839 14.5814 34.1713 14.4813 34.2533 14.3768C34.3287 14.2797 34.3922 14.1892 34.4427 14.1078C34.4932 14.0264 34.5318 13.9596 34.5567 13.911C34.5698 13.8873 34.579 13.8664 34.5849 13.8533L34.5947 13.8329L34.5737 13.8224ZM29.909 10.2192C29.8854 10.1266 29.8625 10.0394 29.8553 10L28.8214 10.1903C28.8351 10.2657 28.8587 10.3562 28.8909 10.4809C29.0441 11.0754 29.3973 12.4453 28.9715 13.6571C29.2935 13.8249 29.59 14.0378 29.8519 14.2896C30.5484 12.7117 30.0976 10.9605 29.9064 10.2191L29.909 10.2192ZM17.6705 34H24.3493C25.4874 34 26.6143 33.7755 27.6658 33.3394C28.7173 32.9032 29.6727 32.264 30.4774 31.4581C31.2822 30.6522 31.9206 29.6954 32.3561 28.6424C32.7916 27.5895 33.0158 26.4609 33.0158 25.3212V23.717H9.00592V25.3218C9.00606 27.6231 9.91894 29.8302 11.5438 31.4576C13.1686 33.085 15.3724 33.9995 17.6705 34ZM31.024 21.9422C31.0254 20.6241 30.5173 19.3566 29.6062 18.4052C29.8167 18.0402 29.9404 17.6315 29.968 17.2109C29.9956 16.7903 29.9262 16.369 29.7652 15.9795C29.6042 15.59 29.3559 15.2429 29.0396 14.9648C28.7233 14.6867 28.3473 14.4853 27.9408 14.3759C27.5343 14.2666 27.1081 14.2523 26.6952 14.3342C26.2823 14.4162 25.8937 14.5921 25.5596 14.8484C25.2254 15.1047 24.9545 15.4345 24.768 15.8123C24.5814 16.1902 24.4841 16.6059 24.4835 17.0274C23.3001 17.371 22.2804 18.1312 21.6124 19.168C20.9444 20.2048 20.6729 21.4485 20.848 22.6699H30.9703C31.0053 22.4289 31.0232 22.1857 31.024 21.9422ZM17.6947 22.3103C17.6945 21.7464 17.9 21.2018 18.2726 20.779C18.1506 20.5472 17.9603 20.3586 17.7275 20.2389C17.4947 20.1192 17.2308 20.0742 16.9715 20.11C16.7123 20.1459 16.4704 20.2608 16.2787 20.4392C16.087 20.6176 15.9549 20.8508 15.9002 21.107C16.2145 21.2528 16.4924 21.4669 16.7138 21.7338C16.9351 22.0006 17.0943 22.3134 17.1798 22.6496C17.3619 22.644 17.5406 22.5992 17.7039 22.5183C17.6978 22.4491 17.6948 22.3797 17.6947 22.3103ZM13.3706 21.4941C13.2113 21.2011 12.9437 20.9822 12.6251 20.8845C12.3065 20.7867 11.9624 20.8179 11.6665 20.9713C11.3706 21.1247 11.1465 21.3881 11.0423 21.705C10.938 22.0219 10.962 22.3672 11.109 22.6666H12.6716C12.7821 22.2147 13.0254 21.8063 13.37 21.4941H13.3706ZM17.7196 17.8567C17.5993 17.6247 17.4107 17.4354 17.1794 17.3143C16.9481 17.1933 16.6851 17.1464 16.4263 17.18C16.1674 17.2136 15.9251 17.326 15.7322 17.5021C15.5394 17.6782 15.4052 17.9095 15.3479 18.1645C15.8004 18.3771 16.1728 18.7294 16.4106 19.1696C16.6119 19.1019 16.8216 19.0623 17.0337 19.0521C17.1363 18.5935 17.3752 18.1767 17.7189 17.8567H17.7196ZM19.2992 18.2832C19.0164 18.2826 18.7415 18.3764 18.5178 18.5496C18.294 18.7227 18.1343 18.9656 18.0636 19.2398C18.5046 19.4306 18.8761 19.753 19.1276 20.1629C19.4094 20.045 19.7118 19.9843 20.0173 19.9845H20.0638C20.1712 19.6615 20.3056 19.3481 20.4654 19.0476C20.3662 18.8204 20.2031 18.6272 19.996 18.4914C19.7889 18.3557 19.5468 18.2833 19.2992 18.2832H19.2992ZM15.5124 19.7233C15.3981 19.4914 15.2162 19.2999 14.9906 19.174C14.7651 19.0481 14.5067 18.9939 14.2497 19.0187C13.9927 19.0434 13.7492 19.1458 13.5517 19.3123C13.3542 19.4788 13.212 19.7016 13.1439 19.951C13.6302 20.1564 14.0327 20.5206 14.2859 20.9844C14.4778 20.9291 14.676 20.8989 14.8756 20.8945C14.969 20.4502 15.1904 20.043 15.5124 19.7233Z" fill="white"/>
</g>
<defs>
<linearGradient id="paint0_linear_1314_4298" x1="22" y1="0" x2="22" y2="44" gradientUnits="userSpaceOnUse">
<stop stop-color="#FD9840"/>
<stop offset="1" stop-color="#F07A13"/>
</linearGradient>
<clipPath id="clip0_1314_4298">
<rect width="25.6" height="24" fill="white" transform="translate(9 10)"/>
</clipPath>
</defs>
</svg>
