<svg width="44" height="44" viewBox="0 0 44 44" fill="none" xmlns="http://www.w3.org/2000/svg">
<rect width="44" height="44" rx="12" fill="url(#paint0_linear_1305_4098)"/>
<g clip-path="url(#clip0_1305_4098)">
<path d="M29.1778 21.1111C28.9222 20.7778 28.6111 20.4889 28.3222 20.2C27.5778 19.5333 26.7333 19.0556 26.0222 18.3556C24.3667 16.7333 24 14.0556 25.0556 12C24 12.2556 23.0778 12.8333 22.2889 13.4667C19.4111 15.7778 18.2778 19.8556 19.6333 23.3556C19.6778 23.4667 19.7222 23.5778 19.7222 23.7222C19.7222 23.9667 19.5556 24.1889 19.3333 24.2778C19.0778 24.3889 18.8111 24.3222 18.6 24.1444C18.5369 24.0916 18.4842 24.0276 18.4445 23.9556C17.1889 22.3667 16.9889 20.0889 17.8333 18.2667C15.9778 19.7778 14.9667 22.3333 15.1111 24.7444C15.1778 25.3 15.2445 25.8556 15.4333 26.4111C15.5889 27.0778 15.8889 27.7444 16.2222 28.3333C17.4222 30.2556 19.5 31.6333 21.7333 31.9111C24.1111 32.2111 26.6556 31.7778 28.4778 30.1333C30.5111 28.2889 31.2222 25.3333 30.1778 22.8L30.0333 22.5111C29.8 22 29.1778 21.1111 29.1778 21.1111ZM25.6667 28.1111C25.3556 28.3778 24.8445 28.6667 24.4445 28.7778C23.2 29.2222 21.9556 28.6 21.2222 27.8667C22.5445 27.5556 23.3333 26.5778 23.5667 25.5889C23.7556 24.7 23.4 23.9667 23.2556 23.1111C23.1222 22.2889 23.1445 21.5889 23.4445 20.8222C23.6556 21.2444 23.8778 21.6667 24.1445 22C25 23.1111 26.3445 23.6 26.6333 25.1111C26.6778 25.2667 26.7 25.4222 26.7 25.5889C26.7333 26.5 26.3333 27.5 25.6667 28.1111Z" fill="white"/>
</g>
<defs>
<linearGradient id="paint0_linear_1305_4098" x1="22" y1="0" x2="22" y2="44" gradientUnits="userSpaceOnUse">
<stop stop-color="#0BB839"/>
<stop offset="1" stop-color="#058527"/>
</linearGradient>
<clipPath id="clip0_1305_4098">
<rect width="16.6667" height="20" fill="white" transform="translate(14 12)"/>
</clipPath>
</defs>
</svg>
