<svg width="24" height="24" viewBox="0 0 24 24" fill="none" xmlns="http://www.w3.org/2000/svg">
<g clip-path="url(#clip0_1888_77)">
<path d="M0.601208 11.8563C0.60065 13.8728 1.12753 15.8417 2.12939 17.5771L0.505394 23.5066L6.57349 21.9156C8.25185 22.8292 10.1323 23.308 12.0433 23.3081H12.0483C18.3566 23.3081 23.4918 18.1748 23.4945 11.8653C23.4957 8.80792 22.3061 5.93295 20.1448 3.76997C17.9839 1.60718 15.11 0.415458 12.0478 0.414062C5.7387 0.414062 0.603906 5.54709 0.601301 11.8563" fill="url(#paint0_linear_1888_77)"/>
<path d="M0.19256 11.8527C0.191909 13.9417 0.737676 15.981 1.77526 17.7786L0.0930252 23.9207L6.3787 22.2726C8.11061 23.2168 10.0606 23.7147 12.0447 23.7154H12.0499C18.5846 23.7154 23.9042 18.3975 23.907 11.8621C23.9081 8.69489 22.6757 5.71656 20.4372 3.47609C18.1984 1.23591 15.2217 0.00130233 12.0499 0C5.51405 0 0.195165 5.31721 0.19256 11.8527ZM3.93591 17.469L3.70121 17.0965C2.71461 15.5277 2.19386 13.7149 2.19461 11.8534C2.19665 6.4213 6.61749 2.00186 12.0536 2.00186C14.6861 2.00298 17.1602 3.02921 19.021 4.89116C20.8818 6.7533 21.9057 9.22865 21.905 11.8614C21.9026 17.2935 17.4817 21.7135 12.0499 21.7135H12.046C10.2773 21.7126 8.5427 21.2376 7.02995 20.34L6.66996 20.1265L2.93991 21.1045L3.93591 17.469Z" fill="url(#paint1_linear_1888_77)"/>
<path d="M9.08633 6.89771C8.86437 6.4044 8.63079 6.39445 8.41972 6.3858C8.24689 6.37836 8.0493 6.37892 7.85191 6.37892C7.65433 6.37892 7.3333 6.45324 7.06196 6.74952C6.79033 7.04608 6.02493 7.76273 6.02493 9.22031C6.02493 10.6779 7.08661 12.0866 7.23461 12.2845C7.38279 12.482 9.28419 15.5689 12.2955 16.7564C14.7982 17.7433 15.3075 17.547 15.8507 17.4975C16.394 17.4482 17.6036 16.7811 17.8504 16.0892C18.0974 15.3975 18.0974 14.8046 18.0234 14.6807C17.9493 14.5572 17.7517 14.4831 17.4554 14.335C17.1592 14.1869 15.7025 13.4701 15.431 13.3712C15.1594 13.2724 14.9619 13.2231 14.7643 13.5198C14.5667 13.8159 13.9994 14.4831 13.8264 14.6807C13.6537 14.8787 13.4807 14.9034 13.1846 14.7552C12.8881 14.6065 11.934 14.2941 10.802 13.2849C9.92121 12.4996 9.32661 11.5298 9.15377 11.2331C8.98093 10.937 9.13526 10.7764 9.28382 10.6288C9.41693 10.496 9.58019 10.2828 9.72847 10.1099C9.87619 9.93687 9.92549 9.81343 10.0243 9.61585C10.1232 9.41808 10.0737 9.24506 9.99972 9.09687C9.92549 8.94868 9.34977 7.48347 9.08633 6.89771Z" fill="white"/>
</g>
<defs>
<linearGradient id="paint0_linear_1888_77" x1="1149.96" y1="2309.67" x2="1149.96" y2="0.414062" gradientUnits="userSpaceOnUse">
<stop stop-color="#1FAF38"/>
<stop offset="1" stop-color="#60D669"/>
</linearGradient>
<linearGradient id="paint1_linear_1888_77" x1="1190.79" y1="2392.07" x2="1190.79" y2="0" gradientUnits="userSpaceOnUse">
<stop stop-color="#F9F9F9"/>
<stop offset="1" stop-color="white"/>
</linearGradient>
<clipPath id="clip0_1888_77">
<rect width="23.814" height="24" fill="white" transform="translate(0.0930252)"/>
</clipPath>
</defs>
</svg>
