<svg width="18" height="16" viewBox="0 0 18 16" fill="none" xmlns="http://www.w3.org/2000/svg">
<g clip-path="url(#clip0_1888_3208)">
<path d="M8.88943 14.2197L5.40169 14.1559C4.27243 14.1337 3.14037 14.1781 2.03326 13.9479C0.349086 13.6039 0.229773 11.9175 0.104925 10.5029C-0.0671029 8.51418 -0.000505703 6.48935 0.324133 4.51722C0.507403 3.41065 1.22864 2.75035 2.34401 2.6785C6.10921 2.41773 9.89945 2.44863 13.6563 2.57029C14.0531 2.58144 14.4526 2.6424 14.8438 2.71178C16.775 3.05019 16.8221 4.96128 16.9473 6.57006C17.0722 8.19544 17.0195 9.82917 16.7808 11.4435C16.5894 12.7801 16.2231 13.901 14.6773 14.0092C12.7406 14.1507 10.8482 14.2646 8.90603 14.2283C8.90612 14.2197 8.89496 14.2197 8.88943 14.2197ZM6.83897 10.8358C8.29848 9.99807 9.73015 9.17431 11.1813 8.34221C9.71908 7.50449 8.29014 6.68074 6.83897 5.84863V10.8358Z" fill="#2B2B2B"/>
</g>
<defs>
<clipPath id="clip0_1888_3208">
<rect width="18" height="15.9714" fill="white" transform="translate(0 0.0141602)"/>
</clipPath>
</defs>
</svg>
